<svg xmlns="http://www.w3.org/2000/svg" viewBox="0 0 484 448" width="484" height="448" font-family="ui-sans-serif,-apple-system,system-ui,sans-serif">
<rect width="484" height="448" fill="white"/>
<line x1="171.3" y1="149.6" x2="171.3" y2="147.3" stroke="#9a9aa0" stroke-width="0.7" stroke-dasharray="3 3" stroke-linecap="round"/>
<line x1="171.3" y1="147.3" x2="175.1" y2="145.8" stroke="#9a9aa0" stroke-width="0.7" stroke-dasharray="3 3" stroke-linecap="round"/>
<line x1="218.2" y1="131.4" x2="218.2" y2="129.1" stroke="#9a9aa0" stroke-width="0.7" stroke-dasharray="3 3" stroke-linecap="round"/>
<line x1="171.3" y1="149.6" x2="218.2" y2="131.4" stroke="#9a9aa0" stroke-width="0.7" stroke-dasharray="3 3" stroke-linecap="round"/>
<line x1="175.1" y1="165.5" x2="175.1" y2="162.6" stroke="#9a9aa0" stroke-width="0.7" stroke-dasharray="3 3" stroke-linecap="round"/>
<line x1="167.6" y1="179.0" x2="175.1" y2="181.9" stroke="#9a9aa0" stroke-width="0.7" stroke-dasharray="3 3" stroke-linecap="round"/>
<line x1="175.1" y1="162.6" x2="333.3" y2="223.8" stroke="#9a9aa0" stroke-width="0.7" stroke-dasharray="3 3" stroke-linecap="round"/>
<line x1="167.6" y1="179.0" x2="167.6" y2="63.9" stroke="#9a9aa0" stroke-width="0.7" stroke-dasharray="3 3" stroke-linecap="round"/>
<line x1="333.3" y1="243.2" x2="333.3" y2="223.8" stroke="#9a9aa0" stroke-width="0.7" stroke-dasharray="3 3" stroke-linecap="round"/>
<line x1="169.4" y1="64.6" x2="167.6" y2="63.9" stroke="#9a9aa0" stroke-width="0.7" stroke-dasharray="3 3" stroke-linecap="round"/>
<line x1="333.3" y1="243.2" x2="340.8" y2="246.1" stroke="#9a9aa0" stroke-width="0.7" stroke-dasharray="3 3" stroke-linecap="round"/>
<line x1="169.4" y1="76.1" x2="169.4" y2="64.6" stroke="#9a9aa0" stroke-width="0.7" stroke-dasharray="3 3" stroke-linecap="round"/>
<line x1="340.8" y1="132.9" x2="340.8" y2="131.0" stroke="#9a9aa0" stroke-width="0.7" stroke-dasharray="3 3" stroke-linecap="round"/>
<line x1="169.4" y1="76.1" x2="173.2" y2="77.5" stroke="#9a9aa0" stroke-width="0.7" stroke-dasharray="3 3" stroke-linecap="round"/>
<line x1="340.8" y1="131.0" x2="338.9" y2="130.3" stroke="#9a9aa0" stroke-width="0.7" stroke-dasharray="3 3" stroke-linecap="round"/>
<line x1="173.2" y1="77.5" x2="173.2" y2="66.1" stroke="#9a9aa0" stroke-width="0.7" stroke-dasharray="3 3" stroke-linecap="round"/>
<line x1="338.9" y1="141.7" x2="338.9" y2="130.3" stroke="#9a9aa0" stroke-width="0.7" stroke-dasharray="3 3" stroke-linecap="round"/>
<line x1="335.2" y1="128.8" x2="173.2" y2="66.1" stroke="#9a9aa0" stroke-width="0.7" stroke-dasharray="3 3" stroke-linecap="round"/>
<line x1="335.2" y1="140.3" x2="338.9" y2="141.7" stroke="#9a9aa0" stroke-width="0.7" stroke-dasharray="3 3" stroke-linecap="round"/>
<line x1="335.2" y1="140.3" x2="335.2" y2="128.8" stroke="#9a9aa0" stroke-width="0.7" stroke-dasharray="3 3" stroke-linecap="round"/>
<line x1="169.4" y1="148.9" x2="171.3" y2="149.6" stroke="#9a9aa0" stroke-width="0.7" stroke-dasharray="3 3" stroke-linecap="round"/>
<line x1="171.3" y1="147.3" x2="175.1" y2="148.7" stroke="#9a9aa0" stroke-width="0.7" stroke-dasharray="3 3" stroke-linecap="round"/>
<line x1="175.1" y1="81.2" x2="175.1" y2="78.3" stroke="#9a9aa0" stroke-width="0.7" stroke-dasharray="3 3" stroke-linecap="round"/>
<line x1="175.1" y1="78.3" x2="333.3" y2="139.6" stroke="#9a9aa0" stroke-width="0.7" stroke-dasharray="3 3" stroke-linecap="round"/>
<line x1="333.3" y1="210.0" x2="333.3" y2="139.6" stroke="#9a9aa0" stroke-width="0.7" stroke-dasharray="3 3" stroke-linecap="round"/>
<line x1="333.3" y1="210.0" x2="337.0" y2="211.5" stroke="#9a9aa0" stroke-width="0.7" stroke-dasharray="3 3" stroke-linecap="round"/>
<line x1="337.0" y1="213.8" x2="337.0" y2="211.5" stroke="#9a9aa0" stroke-width="0.7" stroke-dasharray="3 3" stroke-linecap="round"/>
<line x1="337.0" y1="213.8" x2="338.9" y2="214.5" stroke="#9a9aa0" stroke-width="0.7" stroke-dasharray="3 3" stroke-linecap="round"/>
<line x1="338.9" y1="226.0" x2="338.9" y2="214.5" stroke="#9a9aa0" stroke-width="0.7" stroke-dasharray="3 3" stroke-linecap="round"/>
<line x1="335.2" y1="224.6" x2="338.9" y2="226.0" stroke="#9a9aa0" stroke-width="0.7" stroke-dasharray="3 3" stroke-linecap="round"/>
<line x1="335.2" y1="224.6" x2="335.2" y2="213.1" stroke="#9a9aa0" stroke-width="0.7" stroke-dasharray="3 3" stroke-linecap="round"/>
<line x1="333.3" y1="212.4" x2="335.2" y2="213.1" stroke="#9a9aa0" stroke-width="0.7" stroke-dasharray="3 3" stroke-linecap="round"/>
<line x1="329.5" y1="210.9" x2="333.3" y2="212.4" stroke="#9a9aa0" stroke-width="0.7" stroke-dasharray="3 3" stroke-linecap="round"/>
<line x1="173.2" y1="150.3" x2="175.1" y2="151.1" stroke="#9a9aa0" stroke-width="0.7" stroke-dasharray="3 3" stroke-linecap="round"/>
<line x1="173.2" y1="161.8" x2="173.2" y2="150.3" stroke="#9a9aa0" stroke-width="0.7" stroke-dasharray="3 3" stroke-linecap="round"/>
<line x1="169.4" y1="160.4" x2="173.2" y2="161.8" stroke="#9a9aa0" stroke-width="0.7" stroke-dasharray="3 3" stroke-linecap="round"/>
<line x1="169.4" y1="160.4" x2="169.4" y2="148.9" stroke="#9a9aa0" stroke-width="0.7" stroke-dasharray="3 3" stroke-linecap="round"/>
<line x1="329.5" y1="172.2" x2="340.8" y2="176.6" stroke="#9a9aa0" stroke-width="0.7" stroke-dasharray="3 3" stroke-linecap="round"/>
<line x1="337.0" y1="211.5" x2="340.8" y2="210.0" stroke="#9a9aa0" stroke-width="0.7" stroke-dasharray="3 3" stroke-linecap="round"/>
<line x1="329.5" y1="208.6" x2="333.3" y2="210.0" stroke="#9a9aa0" stroke-width="0.7" stroke-dasharray="3 3" stroke-linecap="round"/>
<line x1="222.0" y1="163.7" x2="222.0" y2="144.4" stroke="#9a9aa0" stroke-width="0.7" stroke-dasharray="3 3" stroke-linecap="round"/>
<line x1="214.5" y1="160.8" x2="222.0" y2="163.7" stroke="#9a9aa0" stroke-width="0.7" stroke-dasharray="3 3" stroke-linecap="round"/>
<line x1="222.0" y1="144.4" x2="380.2" y2="205.7" stroke="#9a9aa0" stroke-width="0.7" stroke-dasharray="3 3" stroke-linecap="round"/>
<line x1="214.5" y1="160.8" x2="214.5" y2="130.6" stroke="#9a9aa0" stroke-width="0.7" stroke-dasharray="3 3" stroke-linecap="round"/>
<line x1="214.5" y1="96.5" x2="214.5" y2="45.7" stroke="#9a9aa0" stroke-width="0.7" stroke-dasharray="3 3" stroke-linecap="round"/>
<line x1="380.2" y1="210.0" x2="380.2" y2="205.7" stroke="#9a9aa0" stroke-width="0.7" stroke-dasharray="3 3" stroke-linecap="round"/>
<line x1="216.4" y1="46.4" x2="214.5" y2="45.7" stroke="#9a9aa0" stroke-width="0.7" stroke-dasharray="3 3" stroke-linecap="round"/>
<line x1="216.4" y1="57.9" x2="216.4" y2="46.4" stroke="#9a9aa0" stroke-width="0.7" stroke-dasharray="3 3" stroke-linecap="round"/>
<line x1="387.7" y1="114.7" x2="387.7" y2="112.8" stroke="#9a9aa0" stroke-width="0.7" stroke-dasharray="3 3" stroke-linecap="round"/>
<line x1="216.4" y1="57.9" x2="220.1" y2="59.4" stroke="#9a9aa0" stroke-width="0.7" stroke-dasharray="3 3" stroke-linecap="round"/>
<line x1="387.7" y1="112.8" x2="385.8" y2="112.1" stroke="#9a9aa0" stroke-width="0.7" stroke-dasharray="3 3" stroke-linecap="round"/>
<line x1="220.1" y1="59.4" x2="220.1" y2="47.9" stroke="#9a9aa0" stroke-width="0.7" stroke-dasharray="3 3" stroke-linecap="round"/>
<line x1="385.8" y1="115.5" x2="385.8" y2="112.1" stroke="#9a9aa0" stroke-width="0.7" stroke-dasharray="3 3" stroke-linecap="round"/>
<line x1="382.1" y1="110.6" x2="220.1" y2="47.9" stroke="#9a9aa0" stroke-width="0.7" stroke-dasharray="3 3" stroke-linecap="round"/>
<line x1="382.1" y1="122.1" x2="385.8" y2="123.6" stroke="#9a9aa0" stroke-width="0.7" stroke-dasharray="3 3" stroke-linecap="round"/>
<line x1="382.1" y1="122.1" x2="382.1" y2="110.6" stroke="#9a9aa0" stroke-width="0.7" stroke-dasharray="3 3" stroke-linecap="round"/>
<line x1="216.4" y1="130.7" x2="218.2" y2="131.4" stroke="#9a9aa0" stroke-width="0.7" stroke-dasharray="3 3" stroke-linecap="round"/>
<line x1="222.0" y1="99.4" x2="222.0" y2="60.1" stroke="#9a9aa0" stroke-width="0.7" stroke-dasharray="3 3" stroke-linecap="round"/>
<line x1="222.0" y1="60.1" x2="380.2" y2="121.4" stroke="#9a9aa0" stroke-width="0.7" stroke-dasharray="3 3" stroke-linecap="round"/>
<line x1="380.2" y1="125.8" x2="380.2" y2="121.4" stroke="#9a9aa0" stroke-width="0.7" stroke-dasharray="3 3" stroke-linecap="round"/>
<line x1="382.1" y1="206.4" x2="385.8" y2="207.8" stroke="#9a9aa0" stroke-width="0.7" stroke-dasharray="3 3" stroke-linecap="round"/>
<line x1="382.1" y1="206.4" x2="382.1" y2="194.9" stroke="#9a9aa0" stroke-width="0.7" stroke-dasharray="3 3" stroke-linecap="round"/>
<line x1="380.2" y1="194.2" x2="382.1" y2="194.9" stroke="#9a9aa0" stroke-width="0.7" stroke-dasharray="3 3" stroke-linecap="round"/>
<line x1="222.0" y1="132.9" x2="380.2" y2="194.2" stroke="#9a9aa0" stroke-width="0.7" stroke-dasharray="3 3" stroke-linecap="round"/>
<line x1="220.1" y1="132.2" x2="222.0" y2="132.9" stroke="#9a9aa0" stroke-width="0.7" stroke-dasharray="3 3" stroke-linecap="round"/>
<line x1="220.1" y1="143.7" x2="220.1" y2="132.2" stroke="#9a9aa0" stroke-width="0.7" stroke-dasharray="3 3" stroke-linecap="round"/>
<line x1="216.4" y1="142.2" x2="220.1" y2="143.7" stroke="#9a9aa0" stroke-width="0.7" stroke-dasharray="3 3" stroke-linecap="round"/>
<line x1="216.4" y1="142.2" x2="216.4" y2="130.7" stroke="#9a9aa0" stroke-width="0.7" stroke-dasharray="3 3" stroke-linecap="round"/>
<line x1="169.4" y1="148.9" x2="216.4" y2="130.7" stroke="#9a9aa0" stroke-width="0.7" stroke-dasharray="3 3" stroke-linecap="round"/>
<line x1="171.3" y1="164.0" x2="175.1" y2="162.6" stroke="#9a9aa0" stroke-width="0.7" stroke-dasharray="3 3" stroke-linecap="round"/>
<line x1="163.8" y1="180.5" x2="167.6" y2="179.0" stroke="#9a9aa0" stroke-width="0.7" stroke-dasharray="3 3" stroke-linecap="round"/>
<line x1="329.5" y1="225.3" x2="333.3" y2="223.8" stroke="#9a9aa0" stroke-width="0.7" stroke-dasharray="3 3" stroke-linecap="round"/>
<line x1="163.8" y1="67.2" x2="163.8" y2="65.3" stroke="#9a9aa0" stroke-width="0.7" stroke-dasharray="3 3" stroke-linecap="round"/>
<line x1="163.8" y1="65.3" x2="167.6" y2="63.9" stroke="#9a9aa0" stroke-width="0.7" stroke-dasharray="3 3" stroke-linecap="round"/>
<line x1="329.5" y1="244.7" x2="333.3" y2="243.2" stroke="#9a9aa0" stroke-width="0.7" stroke-dasharray="3 3" stroke-linecap="round"/>
<line x1="158.8" y1="65.3" x2="218.2" y2="42.3" stroke="#9a9aa0" stroke-width="0.7" stroke-dasharray="3 3" stroke-linecap="round"/>
<line x1="218.2" y1="42.3" x2="396.4" y2="111.4" stroke="#9a9aa0" stroke-width="0.7" stroke-dasharray="3 3" stroke-linecap="round"/>
<line x1="337.0" y1="132.4" x2="340.8" y2="131.0" stroke="#9a9aa0" stroke-width="0.7" stroke-dasharray="3 3" stroke-linecap="round"/>
<line x1="338.9" y1="130.3" x2="385.8" y2="112.1" stroke="#9a9aa0" stroke-width="0.7" stroke-dasharray="3 3" stroke-linecap="round"/>
<line x1="387.7" y1="112.8" x2="391.5" y2="111.4" stroke="#9a9aa0" stroke-width="0.7" stroke-dasharray="3 3" stroke-linecap="round"/>
<line x1="391.5" y1="111.4" x2="218.2" y2="44.2" stroke="#9a9aa0" stroke-width="0.7" stroke-dasharray="3 3" stroke-linecap="round"/>
<line x1="214.5" y1="45.7" x2="218.2" y2="44.2" stroke="#9a9aa0" stroke-width="0.7" stroke-dasharray="3 3" stroke-linecap="round"/>
<line x1="169.4" y1="64.6" x2="216.4" y2="46.4" stroke="#9a9aa0" stroke-width="0.7" stroke-dasharray="3 3" stroke-linecap="round"/>
<line x1="337.0" y1="132.4" x2="163.8" y2="65.3" stroke="#9a9aa0" stroke-width="0.7" stroke-dasharray="3 3" stroke-linecap="round"/>
<line x1="169.4" y1="76.1" x2="216.4" y2="57.9" stroke="#9a9aa0" stroke-width="0.7" stroke-dasharray="3 3" stroke-linecap="round"/>
<line x1="337.0" y1="134.4" x2="337.0" y2="132.4" stroke="#9a9aa0" stroke-width="0.7" stroke-dasharray="3 3" stroke-linecap="round"/>
<line x1="173.2" y1="77.5" x2="220.1" y2="59.4" stroke="#9a9aa0" stroke-width="0.7" stroke-dasharray="3 3" stroke-linecap="round"/>
<line x1="173.2" y1="66.1" x2="220.1" y2="47.9" stroke="#9a9aa0" stroke-width="0.7" stroke-dasharray="3 3" stroke-linecap="round"/>
<line x1="338.9" y1="141.7" x2="340.8" y2="141.0" stroke="#9a9aa0" stroke-width="0.7" stroke-dasharray="3 3" stroke-linecap="round"/>
<line x1="335.2" y1="128.8" x2="382.1" y2="110.6" stroke="#9a9aa0" stroke-width="0.7" stroke-dasharray="3 3" stroke-linecap="round"/>
<line x1="335.2" y1="140.3" x2="382.1" y2="122.1" stroke="#9a9aa0" stroke-width="0.7" stroke-dasharray="3 3" stroke-linecap="round"/>
<line x1="171.3" y1="79.7" x2="175.1" y2="78.3" stroke="#9a9aa0" stroke-width="0.7" stroke-dasharray="3 3" stroke-linecap="round"/>
<line x1="329.5" y1="141.0" x2="333.3" y2="139.6" stroke="#9a9aa0" stroke-width="0.7" stroke-dasharray="3 3" stroke-linecap="round"/>
<line x1="333.3" y1="212.4" x2="333.3" y2="210.0" stroke="#9a9aa0" stroke-width="0.7" stroke-dasharray="3 3" stroke-linecap="round"/>
<line x1="329.5" y1="213.8" x2="333.3" y2="212.4" stroke="#9a9aa0" stroke-width="0.7" stroke-dasharray="3 3" stroke-linecap="round"/>
<line x1="337.0" y1="213.8" x2="340.8" y2="212.4" stroke="#9a9aa0" stroke-width="0.7" stroke-dasharray="3 3" stroke-linecap="round"/>
<line x1="338.9" y1="214.5" x2="340.8" y2="213.8" stroke="#9a9aa0" stroke-width="0.7" stroke-dasharray="3 3" stroke-linecap="round"/>
<line x1="338.9" y1="226.0" x2="340.8" y2="225.3" stroke="#9a9aa0" stroke-width="0.7" stroke-dasharray="3 3" stroke-linecap="round"/>
<line x1="335.2" y1="224.6" x2="382.1" y2="206.4" stroke="#9a9aa0" stroke-width="0.7" stroke-dasharray="3 3" stroke-linecap="round"/>
<line x1="335.2" y1="213.1" x2="382.1" y2="194.9" stroke="#9a9aa0" stroke-width="0.7" stroke-dasharray="3 3" stroke-linecap="round"/>
<line x1="173.2" y1="150.3" x2="220.1" y2="132.2" stroke="#9a9aa0" stroke-width="0.7" stroke-dasharray="3 3" stroke-linecap="round"/>
<line x1="173.2" y1="161.8" x2="220.1" y2="143.7" stroke="#9a9aa0" stroke-width="0.7" stroke-dasharray="3 3" stroke-linecap="round"/>
<line x1="169.4" y1="160.4" x2="216.4" y2="142.2" stroke="#9a9aa0" stroke-width="0.7" stroke-dasharray="3 3" stroke-linecap="round"/>
<line x1="380.2" y1="194.2" x2="380.2" y2="191.9" stroke="#9a9aa0" stroke-width="0.7" stroke-dasharray="3 3" stroke-linecap="round"/>
<line x1="222.0" y1="132.9" x2="222.0" y2="130.6" stroke="#9a9aa0" stroke-width="0.7" stroke-dasharray="3 3" stroke-linecap="round"/>
<line x1="222.0" y1="144.4" x2="225.8" y2="142.9" stroke="#9a9aa0" stroke-width="0.7" stroke-dasharray="3 3" stroke-linecap="round"/>
<line x1="225.8" y1="162.3" x2="225.8" y2="142.9" stroke="#9a9aa0" stroke-width="0.7" stroke-dasharray="3 3" stroke-linecap="round"/>
<line x1="222.0" y1="163.7" x2="225.8" y2="162.3" stroke="#9a9aa0" stroke-width="0.7" stroke-dasharray="3 3" stroke-linecap="round"/>
<line x1="214.5" y1="160.8" x2="218.2" y2="159.4" stroke="#9a9aa0" stroke-width="0.7" stroke-dasharray="3 3" stroke-linecap="round"/>
<line x1="218.2" y1="159.4" x2="225.8" y2="162.3" stroke="#9a9aa0" stroke-width="0.7" stroke-dasharray="3 3" stroke-linecap="round"/>
<line x1="225.8" y1="142.9" x2="384.0" y2="204.2" stroke="#9a9aa0" stroke-width="0.7" stroke-dasharray="3 3" stroke-linecap="round"/>
<line x1="380.2" y1="205.7" x2="384.0" y2="204.2" stroke="#9a9aa0" stroke-width="0.7" stroke-dasharray="3 3" stroke-linecap="round"/>
<line x1="218.2" y1="159.4" x2="218.2" y2="44.2" stroke="#9a9aa0" stroke-width="0.7" stroke-dasharray="3 3" stroke-linecap="round"/>
<line x1="384.0" y1="223.6" x2="384.0" y2="204.2" stroke="#9a9aa0" stroke-width="0.7" stroke-dasharray="3 3" stroke-linecap="round"/>
<line x1="380.2" y1="225.0" x2="384.0" y2="223.6" stroke="#9a9aa0" stroke-width="0.7" stroke-dasharray="3 3" stroke-linecap="round"/>
<line x1="384.0" y1="223.6" x2="391.5" y2="226.5" stroke="#9a9aa0" stroke-width="0.7" stroke-dasharray="3 3" stroke-linecap="round"/>
<line x1="391.5" y1="113.3" x2="391.5" y2="111.4" stroke="#9a9aa0" stroke-width="0.7" stroke-dasharray="3 3" stroke-linecap="round"/>
<line x1="222.0" y1="60.1" x2="225.8" y2="58.6" stroke="#9a9aa0" stroke-width="0.7" stroke-dasharray="3 3" stroke-linecap="round"/>
<line x1="225.8" y1="100.8" x2="225.8" y2="58.6" stroke="#9a9aa0" stroke-width="0.7" stroke-dasharray="3 3" stroke-linecap="round"/>
<line x1="222.0" y1="132.9" x2="225.0" y2="131.7" stroke="#9a9aa0" stroke-width="0.7" stroke-dasharray="3 3" stroke-linecap="round"/>
<line x1="225.8" y1="58.6" x2="384.0" y2="119.9" stroke="#9a9aa0" stroke-width="0.7" stroke-dasharray="3 3" stroke-linecap="round"/>
<line x1="380.2" y1="121.4" x2="384.0" y2="119.9" stroke="#9a9aa0" stroke-width="0.7" stroke-dasharray="3 3" stroke-linecap="round"/>
<line x1="384.0" y1="192.7" x2="384.0" y2="119.9" stroke="#9a9aa0" stroke-width="0.7" stroke-dasharray="3 3" stroke-linecap="round"/>
<line x1="380.2" y1="194.2" x2="384.0" y2="192.7" stroke="#9a9aa0" stroke-width="0.7" stroke-dasharray="3 3" stroke-linecap="round"/>
<line x1="218.2" y1="42.3" x2="218.2" y2="40.0" stroke="#9a9aa0" stroke-width="0.7" stroke-dasharray="3 3" stroke-linecap="round"/>
<line x1="329.5" y1="171.6" x2="340.8" y2="176.0" stroke="#9a9aa0" stroke-width="0.7" stroke-dasharray="3 3" stroke-linecap="round"/>
<line x1="380.2" y1="191.3" x2="384.0" y2="192.7" stroke="#9a9aa0" stroke-width="0.7" stroke-dasharray="3 3" stroke-linecap="round"/>
<line x1="175.1" y1="145.8" x2="218.2" y2="129.1" stroke="#1d1d1f" stroke-width="1.4" stroke-linecap="round"/>
<line x1="175.1" y1="181.9" x2="175.1" y2="165.5" stroke="#1d1d1f" stroke-width="1.4" stroke-linecap="round"/>
<line x1="340.8" y1="246.1" x2="340.8" y2="132.9" stroke="#1d1d1f" stroke-width="1.4" stroke-linecap="round"/>
<line x1="175.1" y1="148.7" x2="175.1" y2="81.2" stroke="#1d1d1f" stroke-width="1.4" stroke-linecap="round"/>
<line x1="175.1" y1="151.1" x2="329.5" y2="210.9" stroke="#1d1d1f" stroke-width="1.4" stroke-linecap="round"/>
<line x1="218.2" y1="129.1" x2="222.0" y2="130.6" stroke="#1d1d1f" stroke-width="1.4" stroke-linecap="round"/>
<line x1="222.0" y1="130.6" x2="329.5" y2="172.2" stroke="#1d1d1f" stroke-width="1.4" stroke-linecap="round"/>
<line x1="340.8" y1="176.6" x2="380.2" y2="191.9" stroke="#1d1d1f" stroke-width="1.4" stroke-linecap="round"/>
<line x1="380.2" y1="191.9" x2="384.0" y2="193.3" stroke="#1d1d1f" stroke-width="1.4" stroke-linecap="round"/>
<line x1="340.8" y1="210.0" x2="384.0" y2="193.3" stroke="#1d1d1f" stroke-width="1.4" stroke-linecap="round"/>
<line x1="175.1" y1="148.7" x2="329.5" y2="208.6" stroke="#1d1d1f" stroke-width="1.4" stroke-linecap="round"/>
<line x1="214.5" y1="130.6" x2="214.5" y2="96.5" stroke="#1d1d1f" stroke-width="1.4" stroke-linecap="round"/>
<line x1="380.2" y1="225.0" x2="380.2" y2="210.0" stroke="#1d1d1f" stroke-width="1.4" stroke-linecap="round"/>
<line x1="380.2" y1="225.0" x2="387.7" y2="227.9" stroke="#1d1d1f" stroke-width="1.4" stroke-linecap="round"/>
<line x1="387.7" y1="227.9" x2="387.7" y2="114.7" stroke="#1d1d1f" stroke-width="1.4" stroke-linecap="round"/>
<line x1="385.8" y1="123.6" x2="385.8" y2="115.5" stroke="#1d1d1f" stroke-width="1.4" stroke-linecap="round"/>
<line x1="222.0" y1="130.6" x2="222.0" y2="99.4" stroke="#1d1d1f" stroke-width="1.4" stroke-linecap="round"/>
<line x1="380.2" y1="191.9" x2="380.2" y2="125.8" stroke="#1d1d1f" stroke-width="1.4" stroke-linecap="round"/>
<line x1="384.0" y1="195.6" x2="384.0" y2="193.3" stroke="#1d1d1f" stroke-width="1.4" stroke-linecap="round"/>
<line x1="384.0" y1="195.6" x2="385.8" y2="196.4" stroke="#1d1d1f" stroke-width="1.4" stroke-linecap="round"/>
<line x1="385.8" y1="207.8" x2="385.8" y2="196.4" stroke="#1d1d1f" stroke-width="1.4" stroke-linecap="round"/>
<line x1="171.3" y1="183.4" x2="171.3" y2="164.0" stroke="#1d1d1f" stroke-width="1.4" stroke-linecap="round"/>
<line x1="171.3" y1="183.4" x2="175.1" y2="181.9" stroke="#1d1d1f" stroke-width="1.4" stroke-linecap="round"/>
<line x1="163.8" y1="180.5" x2="171.3" y2="183.4" stroke="#1d1d1f" stroke-width="1.4" stroke-linecap="round"/>
<line x1="171.3" y1="164.0" x2="329.5" y2="225.3" stroke="#1d1d1f" stroke-width="1.4" stroke-linecap="round"/>
<line x1="163.8" y1="180.5" x2="163.8" y2="67.2" stroke="#1d1d1f" stroke-width="1.4" stroke-linecap="round"/>
<line x1="329.5" y1="244.7" x2="329.5" y2="225.3" stroke="#1d1d1f" stroke-width="1.4" stroke-linecap="round"/>
<line x1="158.8" y1="65.3" x2="337.0" y2="134.4" stroke="#1d1d1f" stroke-width="1.4" stroke-linecap="round"/>
<line x1="337.0" y1="134.4" x2="396.4" y2="111.4" stroke="#1d1d1f" stroke-width="1.4" stroke-linecap="round"/>
<line x1="337.0" y1="247.6" x2="340.8" y2="246.1" stroke="#1d1d1f" stroke-width="1.4" stroke-linecap="round"/>
<line x1="329.5" y1="244.7" x2="337.0" y2="247.6" stroke="#1d1d1f" stroke-width="1.4" stroke-linecap="round"/>
<line x1="337.0" y1="247.6" x2="337.0" y2="134.4" stroke="#1d1d1f" stroke-width="1.4" stroke-linecap="round"/>
<line x1="340.8" y1="141.0" x2="385.8" y2="123.6" stroke="#1d1d1f" stroke-width="1.4" stroke-linecap="round"/>
<line x1="171.3" y1="152.5" x2="171.3" y2="79.7" stroke="#1d1d1f" stroke-width="1.4" stroke-linecap="round"/>
<line x1="175.1" y1="151.1" x2="175.1" y2="148.7" stroke="#1d1d1f" stroke-width="1.4" stroke-linecap="round"/>
<line x1="171.3" y1="152.5" x2="175.1" y2="151.1" stroke="#1d1d1f" stroke-width="1.4" stroke-linecap="round"/>
<line x1="171.3" y1="79.7" x2="329.5" y2="141.0" stroke="#1d1d1f" stroke-width="1.4" stroke-linecap="round"/>
<line x1="329.5" y1="213.8" x2="329.5" y2="141.0" stroke="#1d1d1f" stroke-width="1.4" stroke-linecap="round"/>
<line x1="340.8" y1="212.4" x2="384.0" y2="195.6" stroke="#1d1d1f" stroke-width="1.4" stroke-linecap="round"/>
<line x1="340.8" y1="213.8" x2="385.8" y2="196.4" stroke="#1d1d1f" stroke-width="1.4" stroke-linecap="round"/>
<line x1="340.8" y1="225.3" x2="385.8" y2="207.8" stroke="#1d1d1f" stroke-width="1.4" stroke-linecap="round"/>
<line x1="387.7" y1="227.9" x2="391.5" y2="226.5" stroke="#1d1d1f" stroke-width="1.4" stroke-linecap="round"/>
<line x1="391.5" y1="226.5" x2="391.5" y2="113.3" stroke="#1d1d1f" stroke-width="1.4" stroke-linecap="round"/>
<line x1="225.8" y1="131.4" x2="225.8" y2="100.8" stroke="#1d1d1f" stroke-width="1.4" stroke-linecap="round"/>
<line x1="225.0" y1="131.7" x2="225.8" y2="131.4" stroke="#1d1d1f" stroke-width="1.4" stroke-linecap="round"/>
<line x1="171.3" y1="152.5" x2="329.5" y2="213.8" stroke="#1d1d1f" stroke-width="1.4" stroke-linecap="round"/>
<line x1="158.8" y1="65.3" x2="158.8" y2="63.0" stroke="#1d1d1f" stroke-width="1.4" stroke-linecap="round"/>
<line x1="158.8" y1="63.0" x2="218.2" y2="40.0" stroke="#1d1d1f" stroke-width="1.4" stroke-linecap="round"/>
<line x1="396.4" y1="111.4" x2="396.4" y2="109.0" stroke="#1d1d1f" stroke-width="1.4" stroke-linecap="round"/>
<line x1="218.2" y1="40.0" x2="396.4" y2="109.0" stroke="#1d1d1f" stroke-width="1.4" stroke-linecap="round"/>
<line x1="337.0" y1="134.4" x2="337.0" y2="132.0" stroke="#1d1d1f" stroke-width="1.4" stroke-linecap="round"/>
<line x1="158.8" y1="63.0" x2="337.0" y2="132.0" stroke="#1d1d1f" stroke-width="1.4" stroke-linecap="round"/>
<line x1="337.0" y1="132.0" x2="396.4" y2="109.0" stroke="#1d1d1f" stroke-width="1.4" stroke-linecap="round"/>
<line x1="225.8" y1="131.4" x2="329.5" y2="171.6" stroke="#1d1d1f" stroke-width="1.4" stroke-linecap="round"/>
<line x1="340.8" y1="176.0" x2="380.2" y2="191.3" stroke="#1d1d1f" stroke-width="1.4" stroke-linecap="round"/>
<line x1="158.8" y1="180.5" x2="87.6" y2="180.5" stroke="#9a9aa0" stroke-width="0.9" stroke-dasharray="1 3" stroke-linecap="round"/>
<line x1="158.8" y1="63.0" x2="87.6" y2="63.0" stroke="#9a9aa0" stroke-width="0.9" stroke-dasharray="1 3" stroke-linecap="round"/>
<line x1="158.8" y1="180.5" x2="158.8" y2="234.7" stroke="#9a9aa0" stroke-width="0.9" stroke-dasharray="1 3" stroke-linecap="round"/>
<line x1="337.0" y1="249.5" x2="337.0" y2="303.7" stroke="#9a9aa0" stroke-width="0.9" stroke-dasharray="1 3" stroke-linecap="round"/>
<line x1="337.0" y1="249.5" x2="337.0" y2="303.7" stroke="#9a9aa0" stroke-width="0.9" stroke-dasharray="1 3" stroke-linecap="round"/>
<line x1="396.4" y1="226.5" x2="396.4" y2="280.7" stroke="#9a9aa0" stroke-width="0.9" stroke-dasharray="1 3" stroke-linecap="round"/>
<line x1="87.6" y1="180.5" x2="87.6" y2="63.0" stroke="#9a9aa0" stroke-width="1.1" stroke-dasharray="1 3" stroke-linecap="round"/>
<line x1="158.8" y1="234.7" x2="337.0" y2="303.7" stroke="#9a9aa0" stroke-width="1.1" stroke-dasharray="1 3" stroke-linecap="round"/>
<line x1="337.0" y1="303.7" x2="396.4" y2="280.7" stroke="#9a9aa0" stroke-width="1.1" stroke-dasharray="1 3" stroke-linecap="round"/>
<text x="75.6" y="121.7" font-size="15" font-weight="600" fill="#1d1d1f" text-anchor="middle" dominant-baseline="middle" transform="rotate(-90 75.6 121.7)">910 mm</text>
<text x="233.9" y="285.2" font-size="15" font-weight="600" fill="#1d1d1f" text-anchor="middle" dominant-baseline="middle">1800 mm</text>
<text x="380.7" y="308.2" font-size="15" font-weight="600" fill="#1d1d1f" text-anchor="middle" dominant-baseline="middle">600 mm</text>
<text x="242.0" y="394" font-size="17" font-weight="700" fill="#1d1d1f" text-anchor="middle">Garage workbench</text>
<text x="242.0" y="416" font-size="13" fill="#6b6b70" text-anchor="middle">1800 x 600 mm top - 910 mm high - 2x4 frame, 18 mm ply top + shelf</text>
</svg>