  0
SECTION
  2
HEADER
  9
$ACADVER
  1
AC1027
  9
$ACADMAINTVER
 70
105
  9
$DWGCODEPAGE
  3
ANSI_1252
  9
$LASTSAVEDBY
  1
ezdxf
  9
$REQUIREDVERSIONS
160
0
  9
$INSBASE
 10
0.0
 20
0.0
 30
0.0
  9
$EXTMIN
 10
1e+20
 20
1e+20
 30
1e+20
  9
$EXTMAX
 10
-1e+20
 20
-1e+20
 30
-1e+20
  9
$LIMMIN
 10
0.0
 20
0.0
  9
$LIMMAX
 10
420.0
 20
297.0
  9
$ORTHOMODE
 70
0
  9
$REGENMODE
 70
1
  9
$FILLMODE
 70
1
  9
$QTEXTMODE
 70
0
  9
$MIRRTEXT
 70
1
  9
$LTSCALE
 40
1.0
  9
$ATTMODE
 70
1
  9
$TEXTSIZE
 40
2.5
  9
$TRACEWID
 40
1.0
  9
$TEXTSTYLE
  7
Standard
  9
$CLAYER
  8
0
  9
$CELTYPE
  6
ByLayer
  9
$CECOLOR
 62
256
  9
$CELTSCALE
 40
1.0
  9
$DISPSILH
 70
0
  9
$DIMSCALE
 40
1.0
  9
$DIMASZ
 40
2.5
  9
$DIMEXO
 40
0.625
  9
$DIMDLI
 40
3.75
  9
$DIMRND
 40
0.0
  9
$DIMDLE
 40
0.0
  9
$DIMEXE
 40
1.25
  9
$DIMTP
 40
0.0
  9
$DIMTM
 40
0.0
  9
$DIMTXT
 40
2.5
  9
$DIMCEN
 40
2.5
  9
$DIMTSZ
 40
0.0
  9
$DIMTOL
 70
0
  9
$DIMLIM
 70
0
  9
$DIMTIH
 70
0
  9
$DIMTOH
 70
0
  9
$DIMSE1
 70
0
  9
$DIMSE2
 70
0
  9
$DIMTAD
 70
1
  9
$DIMZIN
 70
8
  9
$DIMBLK
  1

  9
$DIMASO
 70
1
  9
$DIMSHO
 70
1
  9
$DIMPOST
  1

  9
$DIMAPOST
  1

  9
$DIMALT
 70
0
  9
$DIMALTD
 70
3
  9
$DIMALTF
 40
0.03937007874
  9
$DIMLFAC
 40
1.0
  9
$DIMTOFL
 70
1
  9
$DIMTVP
 40
0.0
  9
$DIMTIX
 70
0
  9
$DIMSOXD
 70
0
  9
$DIMSAH
 70
0
  9
$DIMBLK1
  1

  9
$DIMBLK2
  1

  9
$DIMSTYLE
  2
ISO-25
  9
$DIMCLRD
 70
0
  9
$DIMCLRE
 70
0
  9
$DIMCLRT
 70
0
  9
$DIMTFAC
 40
1.0
  9
$DIMGAP
 40
0.625
  9
$DIMJUST
 70
0
  9
$DIMSD1
 70
0
  9
$DIMSD2
 70
0
  9
$DIMTOLJ
 70
0
  9
$DIMTZIN
 70
8
  9
$DIMALTZ
 70
0
  9
$DIMALTTZ
 70
0
  9
$DIMUPT
 70
0
  9
$DIMDEC
 70
2
  9
$DIMTDEC
 70
2
  9
$DIMALTU
 70
2
  9
$DIMALTTD
 70
3
  9
$DIMTXSTY
  7
Standard
  9
$DIMAUNIT
 70
0
  9
$DIMADEC
 70
0
  9
$DIMALTRND
 40
0.0
  9
$DIMAZIN
 70
0
  9
$DIMDSEP
 70
44
  9
$DIMATFIT
 70
3
  9
$DIMFRAC
 70
0
  9
$DIMLDRBLK
  1

  9
$DIMLUNIT
 70
2
  9
$DIMLWD
 70
-2
  9
$DIMLWE
 70
-2
  9
$DIMTMOVE
 70
0
  9
$DIMFXL
 40
1.0
  9
$DIMFXLON
 70
0
  9
$DIMJOGANG
 40
0.785398163397
  9
$DIMTFILL
 70
0
  9
$DIMTFILLCLR
 70
0
  9
$DIMARCSYM
 70
0
  9
$DIMLTYPE
  6

  9
$DIMLTEX1
  6

  9
$DIMLTEX2
  6

  9
$DIMTXTDIRECTION
 70
0
  9
$LUNITS
 70
2
  9
$LUPREC
 70
4
  9
$SKETCHINC
 40
1.0
  9
$FILLETRAD
 40
10.0
  9
$AUNITS
 70
0
  9
$AUPREC
 70
2
  9
$MENU
  1
.
  9
$ELEVATION
 40
0.0
  9
$PELEVATION
 40
0.0
  9
$THICKNESS
 40
0.0
  9
$LIMCHECK
 70
0
  9
$CHAMFERA
 40
0.0
  9
$CHAMFERB
 40
0.0
  9
$CHAMFERC
 40
0.0
  9
$CHAMFERD
 40
0.0
  9
$SKPOLY
 70
0
  9
$TDCREATE
 40
2461199.889074074
  9
$TDUCREATE
 40
2458532.153996898
  9
$TDUPDATE
 40
2461199.889074074
  9
$TDUUPDATE
 40
2458532.1544311
  9
$TDINDWG
 40
0.0
  9
$TDUSRTIMER
 40
0.0
  9
$USRTIMER
 70
1
  9
$ANGBASE
 50
0.0
  9
$ANGDIR
 70
0
  9
$PDMODE
 70
0
  9
$PDSIZE
 40
0.0
  9
$PLINEWID
 40
0.0
  9
$SPLFRAME
 70
0
  9
$SPLINETYPE
 70
6
  9
$SPLINESEGS
 70
8
  9
$HANDSEED
  5
1BF
  9
$SURFTAB1
 70
6
  9
$SURFTAB2
 70
6
  9
$SURFTYPE
 70
6
  9
$SURFU
 70
6
  9
$SURFV
 70
6
  9
$UCSBASE
  2

  9
$UCSNAME
  2

  9
$UCSORG
 10
0.0
 20
0.0
 30
0.0
  9
$UCSXDIR
 10
1.0
 20
0.0
 30
0.0
  9
$UCSYDIR
 10
0.0
 20
1.0
 30
0.0
  9
$UCSORTHOREF
  2

  9
$UCSORTHOVIEW
 70
0
  9
$UCSORGTOP
 10
0.0
 20
0.0
 30
0.0
  9
$UCSORGBOTTOM
 10
0.0
 20
0.0
 30
0.0
  9
$UCSORGLEFT
 10
0.0
 20
0.0
 30
0.0
  9
$UCSORGRIGHT
 10
0.0
 20
0.0
 30
0.0
  9
$UCSORGFRONT
 10
0.0
 20
0.0
 30
0.0
  9
$UCSORGBACK
 10
0.0
 20
0.0
 30
0.0
  9
$PUCSBASE
  2

  9
$PUCSNAME
  2

  9
$PUCSORG
 10
0.0
 20
0.0
 30
0.0
  9
$PUCSXDIR
 10
1.0
 20
0.0
 30
0.0
  9
$PUCSYDIR
 10
0.0
 20
1.0
 30
0.0
  9
$PUCSORTHOREF
  2

  9
$PUCSORTHOVIEW
 70
0
  9
$PUCSORGTOP
 10
0.0
 20
0.0
 30
0.0
  9
$PUCSORGBOTTOM
 10
0.0
 20
0.0
 30
0.0
  9
$PUCSORGLEFT
 10
0.0
 20
0.0
 30
0.0
  9
$PUCSORGRIGHT
 10
0.0
 20
0.0
 30
0.0
  9
$PUCSORGFRONT
 10
0.0
 20
0.0
 30
0.0
  9
$PUCSORGBACK
 10
0.0
 20
0.0
 30
0.0
  9
$USERI1
 70
0
  9
$USERI2
 70
0
  9
$USERI3
 70
0
  9
$USERI4
 70
0
  9
$USERI5
 70
0
  9
$USERR1
 40
0.0
  9
$USERR2
 40
0.0
  9
$USERR3
 40
0.0
  9
$USERR4
 40
0.0
  9
$USERR5
 40
0.0
  9
$WORLDVIEW
 70
1
  9
$SHADEDGE
 70
3
  9
$SHADEDIF
 70
70
  9
$TILEMODE
 70
1
  9
$MAXACTVP
 70
64
  9
$PINSBASE
 10
0.0
 20
0.0
 30
0.0
  9
$PLIMCHECK
 70
0
  9
$PEXTMIN
 10
1e+20
 20
1e+20
 30
1e+20
  9
$PEXTMAX
 10
-1e+20
 20
-1e+20
 30
-1e+20
  9
$PLIMMIN
 10
0.0
 20
0.0
  9
$PLIMMAX
 10
420.0
 20
297.0
  9
$UNITMODE
 70
0
  9
$VISRETAIN
 70
1
  9
$PLINEGEN
 70
0
  9
$PSLTSCALE
 70
1
  9
$TREEDEPTH
 70
3020
  9
$CMLSTYLE
  2
Standard
  9
$CMLJUST
 70
0
  9
$CMLSCALE
 40
20.0
  9
$PROXYGRAPHICS
 70
1
  9
$MEASUREMENT
 70
1
  9
$CELWEIGHT
370
-1
  9
$ENDCAPS
280
0
  9
$JOINSTYLE
280
0
  9
$LWDISPLAY
290
0
  9
$INSUNITS
 70
4
  9
$HYPERLINKBASE
  1

  9
$STYLESHEET
  1

  9
$XEDIT
290
1
  9
$CEPSNTYPE
380
0
  9
$PSTYLEMODE
290
1
  9
$FINGERPRINTGUID
  2
{10F953DC-F7D1-44D9-A335-8079707A8A36}
  9
$VERSIONGUID
  2
{69013136-40AB-42EE-BA74-666DFD64EFA3}
  9
$EXTNAMES
290
1
  9
$PSVPSCALE
 40
0.0
  9
$OLESTARTUP
290
0
  9
$SORTENTS
280
127
  9
$INDEXCTL
280
0
  9
$HIDETEXT
280
1
  9
$XCLIPFRAME
280
1
  9
$HALOGAP
280
0
  9
$OBSCOLOR
 70
257
  9
$OBSLTYPE
280
0
  9
$INTERSECTIONDISPLAY
280
0
  9
$INTERSECTIONCOLOR
 70
257
  9
$DIMASSOC
280
2
  9
$PROJECTNAME
  1

  9
$CAMERADISPLAY
290
0
  9
$LENSLENGTH
 40
50.0
  9
$CAMERAHEIGHT
 40
0.0
  9
$STEPSPERSEC
 40
24.0
  9
$STEPSIZE
 40
100.0
  9
$3DDWFPREC
 40
2.0
  9
$PSOLWIDTH
 40
0.005
  9
$PSOLHEIGHT
 40
0.08
  9
$LOFTANG1
 40
1.570796326795
  9
$LOFTANG2
 40
1.570796326795
  9
$LOFTMAG1
 40
0.0
  9
$LOFTMAG2
 40
0.0
  9
$LOFTPARAM
 70
7
  9
$LOFTNORMALS
280
1
  9
$LATITUDE
 40
37.795
  9
$LONGITUDE
 40
-122.394
  9
$NORTHDIRECTION
 40
0.0
  9
$TIMEZONE
 70
-8000
  9
$LIGHTGLYPHDISPLAY
280
1
  9
$TILEMODELIGHTSYNCH
280
1
  9
$CMATERIAL
347
20
  9
$SOLIDHIST
280
0
  9
$SHOWHIST
280
1
  9
$DWFFRAME
280
2
  9
$DGNFRAME
280
2
  9
$REALWORLDSCALE
290
1
  9
$INTERFERECOLOR
 62
256
  9
$CSHADOW
280
0
  9
$SHADOWPLANELOCATION
 40
0.0
  0
ENDSEC
  0
SECTION
  2
CLASSES
  0
CLASS
  1
ACDBDICTIONARYWDFLT
  2
AcDbDictionaryWithDefault
  3
ObjectDBX Classes
 90
0
 91
0
280
0
281
0
  0
CLASS
  1
SUN
  2
AcDbSun
  3
SCENEOE
 90
1153
 91
0
280
0
281
0
  0
CLASS
  1
VISUALSTYLE
  2
AcDbVisualStyle
  3
ObjectDBX Classes
 90
4095
 91
0
280
0
281
0
  0
CLASS
  1
MATERIAL
  2
AcDbMaterial
  3
ObjectDBX Classes
 90
1153
 91
0
280
0
281
0
  0
CLASS
  1
SCALE
  2
AcDbScale
  3
ObjectDBX Classes
 90
1153
 91
0
280
0
281
0
  0
CLASS
  1
TABLESTYLE
  2
AcDbTableStyle
  3
ObjectDBX Classes
 90
4095
 91
0
280
0
281
0
  0
CLASS
  1
MLEADERSTYLE
  2
AcDbMLeaderStyle
  3
ACDB_MLEADERSTYLE_CLASS
 90
4095
 91
0
280
0
281
0
  0
CLASS
  1
DICTIONARYVAR
  2
AcDbDictionaryVar
  3
ObjectDBX Classes
 90
0
 91
0
280
0
281
0
  0
CLASS
  1
CELLSTYLEMAP
  2
AcDbCellStyleMap
  3
ObjectDBX Classes
 90
1152
 91
0
280
0
281
0
  0
CLASS
  1
MENTALRAYRENDERSETTINGS
  2
AcDbMentalRayRenderSettings
  3
SCENEOE
 90
1024
 91
0
280
0
281
0
  0
CLASS
  1
ACDBDETAILVIEWSTYLE
  2
AcDbDetailViewStyle
  3
ObjectDBX Classes
 90
1025
 91
0
280
0
281
0
  0
CLASS
  1
ACDBSECTIONVIEWSTYLE
  2
AcDbSectionViewStyle
  3
ObjectDBX Classes
 90
1025
 91
0
280
0
281
0
  0
CLASS
  1
RASTERVARIABLES
  2
AcDbRasterVariables
  3
ISM
 90
0
 91
0
280
0
281
0
  0
CLASS
  1
ACDBPLACEHOLDER
  2
AcDbPlaceHolder
  3
ObjectDBX Classes
 90
0
 91
0
280
0
281
0
  0
CLASS
  1
LAYOUT
  2
AcDbLayout
  3
ObjectDBX Classes
 90
0
 91
0
280
0
281
0
  0
ENDSEC
  0
SECTION
  2
TABLES
  0
TABLE
  2
VPORT
  5
8
330
0
100
AcDbSymbolTable
 70
1
  0
VPORT
  5
1BB
330
8
100
AcDbSymbolTableRecord
100
AcDbViewportTableRecord
  2
*Active
 70
0
 10
0.0
 20
0.0
 11
1.0
 21
1.0
 12
1380.0
 22
514.0
 13
0.0
 23
0.0
 14
0.5
 24
0.5
 15
0.5
 25
0.5
 16
0.0
 26
0.0
 36
1.0
 17
0.0
 27
0.0
 37
0.0
 40
1368.0
 41
1.34
 42
50.0
 43
0.0
 44
0.0
 50
0.0
 51
0.0
 71
0
 72
1000
 73
1
 74
3
 75
0
 76
0
 77
0
 78
0
281
0
 65
1
110
0.0
120
0.0
130
0.0
111
1.0
121
0.0
131
0.0
112
0.0
122
1.0
132
0.0
 79
0
146
0.0
  0
ENDTAB
  0
TABLE
  2
LTYPE
  5
2
330
0
100
AcDbSymbolTable
 70
3
  0
LTYPE
  5
24
330
2
100
AcDbSymbolTableRecord
100
AcDbLinetypeTableRecord
  2
ByBlock
 70
0
  3

 72
65
 73
0
 40
0.0
  0
LTYPE
  5
25
330
2
100
AcDbSymbolTableRecord
100
AcDbLinetypeTableRecord
  2
ByLayer
 70
0
  3

 72
65
 73
0
 40
0.0
  0
LTYPE
  5
26
330
2
100
AcDbSymbolTableRecord
100
AcDbLinetypeTableRecord
  2
Continuous
 70
0
  3

 72
65
 73
0
 40
0.0
  0
ENDTAB
  0
TABLE
  2
LAYER
  5
1
330
0
100
AcDbSymbolTable
 70
2
  0
LAYER
  5
27
330
1
100
AcDbSymbolTableRecord
100
AcDbLayerTableRecord
  2
0
 70
0
 62
7
  6
Continuous
370
25
390
13
347
21
  0
LAYER
  5
28
330
1
100
AcDbSymbolTableRecord
100
AcDbLayerTableRecord
  2
Defpoints
 70
0
 62
7
  6
Continuous
290
0
370
-3
390
13
347
21
  0
ENDTAB
  0
TABLE
  2
STYLE
  5
5
330
0
100
AcDbSymbolTable
 70
1
  0
STYLE
  5
29
330
5
100
AcDbSymbolTableRecord
100
AcDbTextStyleTableRecord
  2
Standard
 70
0
 40
0.0
 41
1.0
 50
0.0
 71
0
 42
2.5
  3
txt
  4

  0
ENDTAB
  0
TABLE
  2
VIEW
  5
7
330
0
100
AcDbSymbolTable
 70
0
  0
ENDTAB
  0
TABLE
  2
UCS
  5
6
330
0
100
AcDbSymbolTable
 70
0
  0
ENDTAB
  0
TABLE
  2
APPID
  5
3
330
0
100
AcDbSymbolTable
 70
3
  0
APPID
  5
2A
330
3
100
AcDbSymbolTableRecord
100
AcDbRegAppTableRecord
  2
ACAD
 70
0
  0
APPID
  5
1BC
330
3
100
AcDbSymbolTableRecord
100
AcDbRegAppTableRecord
  2
HATCHBACKGROUNDCOLOR
 70
0
  0
APPID
  5
1BD
330
3
100
AcDbSymbolTableRecord
100
AcDbRegAppTableRecord
  2
EZDXF
 70
0
  0
ENDTAB
  0
TABLE
  2
DIMSTYLE
  5
4
330
0
100
AcDbSymbolTable
 70
1
100
AcDbDimStyleTable
  0
DIMSTYLE
105
2B
330
4
100
AcDbSymbolTableRecord
100
AcDbDimStyleTableRecord
  2
Standard
 70
0
 40
1.0
 41
2.5
 42
0.625
 43
3.75
 44
1.25
 45
0.0
 46
0.0
 47
0.0
 48
0.0
 49
2.5
140
2.5
141
2.5
142
0.0
143
0.03937007874
144
1.0
145
0.0
146
1.0
147
0.625
148
0.0
 69
0
 70
0
 71
0
 72
0
 73
0
 74
0
 75
0
 76
0
 77
1
 78
8
 79
3
170
0
171
3
172
1
173
0
174
0
175
0
176
0
177
0
178
0
179
2
271
2
272
2
273
2
274
3
275
0
276
0
277
2
278
44
279
0
280
0
281
0
282
0
283
0
284
8
285
0
286
0
288
0
289
3
290
0
371
-2
372
-2
  0
ENDTAB
  0
TABLE
  2
BLOCK_RECORD
  5
9
330
0
100
AcDbSymbolTable
 70
2
  0
BLOCK_RECORD
  5
17
330
9
100
AcDbSymbolTableRecord
100
AcDbBlockTableRecord
  2
*Model_Space
340
1A
 70
0
280
1
281
0
  0
BLOCK_RECORD
  5
1B
330
9
100
AcDbSymbolTableRecord
100
AcDbBlockTableRecord
  2
*Paper_Space
340
1E
 70
0
280
1
281
0
  0
ENDTAB
  0
ENDSEC
  0
SECTION
  2
BLOCKS
  0
BLOCK
  5
18
330
17
100
AcDbEntity
  8
0
100
AcDbBlockBegin
  2
*Model_Space
 70
0
 10
0.0
 20
0.0
 30
0.0
  3
*Model_Space
  1

  0
ENDBLK
  5
19
330
17
100
AcDbEntity
  8
0
100
AcDbBlockEnd
  0
BLOCK
  5
1C
330
1B
100
AcDbEntity
  8
0
100
AcDbBlockBegin
  2
*Paper_Space
 70
0
 10
0.0
 20
0.0
 30
0.0
  3
*Paper_Space
  1

  0
ENDBLK
  5
1D
330
1B
100
AcDbEntity
  8
0
100
AcDbBlockEnd
  0
ENDSEC
  0
SECTION
  2
ENTITIES
  0
LINE
  5
2F
330
17
100
AcDbEntity
  8
0
100
AcDbLine
 10
12.000000000000114
 20
12.000000000000227
 30
0.0
 11
1812.0
 21
12.0
 31
0.0
  0
LINE
  5
30
330
17
100
AcDbEntity
  8
0
100
AcDbLine
 10
12.000000000000114
 20
56.90436710310668
 30
0.0
 11
12.000000000000114
 21
12.000000000000227
 31
0.0
  0
ARC
  5
31
330
17
100
AcDbEntity
  8
0
100
AcDbCircle
 10
14.092031021678395
 20
59.19203102167842
 30
0.0
 40
3.1
100
AcDbArc
 50
227.5575967124821
 51
315.00000000000045
  0
LINE
  5
32
330
17
100
AcDbEntity
  8
0
100
AcDbLine
 10
25.21593795664353
 20
57.000000000000114
 30
0.0
 11
16.2840620433567
 21
57.000000000000114
 31
0.0
  0
ARC
  5
33
330
17
100
AcDbEntity
  8
0
100
AcDbCircle
 10
27.407968978321833
 20
59.19203102167842
 30
0.0
 40
3.1
100
AcDbArc
 50
-135.00000000000045
 51
44.99999999999832
  0
LINE
  5
34
330
17
100
AcDbEntity
  8
0
100
AcDbLine
 10
29.600000000000136
 20
112.61593795664339
 30
0.0
 11
29.600000000000136
 21
61.38406204335661
 31
0.0
  0
ARC
  5
35
330
17
100
AcDbEntity
  8
0
100
AcDbCircle
 10
27.407968978321833
 20
114.80796897832181
 30
0.0
 40
3.1
100
AcDbArc
 50
-45.00000000000175
 51
135.000000000001
  0
LINE
  5
36
330
17
100
AcDbEntity
  8
0
100
AcDbLine
 10
16.284062043356812
 20
117.00000000000011
 30
0.0
 11
25.215937956643415
 21
117.00000000000011
 31
0.0
  0
ARC
  5
37
330
17
100
AcDbEntity
  8
0
100
AcDbCircle
 10
14.092031021678395
 20
114.80796897832181
 30
0.0
 40
3.1
100
AcDbArc
 50
44.99999999999903
 51
132.44240328751866
  0
LINE
  5
38
330
17
100
AcDbEntity
  8
0
100
AcDbLine
 10
12.000000000000114
 20
131.90436710310667
 30
0.0
 11
12.000000000000114
 21
117.09563289689369
 31
0.0
  0
ARC
  5
39
330
17
100
AcDbEntity
  8
0
100
AcDbCircle
 10
14.092031021678395
 20
134.19203102167842
 30
0.0
 40
3.1
100
AcDbArc
 50
227.5575967124821
 51
315.00000000000045
  0
LINE
  5
3A
330
17
100
AcDbEntity
  8
0
100
AcDbLine
 10
25.21593795664353
 20
132.0000000000001
 30
0.0
 11
16.2840620433567
 21
132.0000000000001
 31
0.0
  0
ARC
  5
3B
330
17
100
AcDbEntity
  8
0
100
AcDbCircle
 10
27.407968978321833
 20
134.19203102167842
 30
0.0
 40
3.1
100
AcDbArc
 50
-135.00000000000045
 51
44.99999999999832
  0
LINE
  5
3C
330
17
100
AcDbEntity
  8
0
100
AcDbLine
 10
29.600000000000136
 20
187.6159379566434
 30
0.0
 11
29.600000000000136
 21
136.3840620433566
 31
0.0
  0
ARC
  5
3D
330
17
100
AcDbEntity
  8
0
100
AcDbCircle
 10
27.407968978321833
 20
189.8079689783218
 30
0.0
 40
3.1
100
AcDbArc
 50
-45.00000000000175
 51
135.000000000001
  0
LINE
  5
3E
330
17
100
AcDbEntity
  8
0
100
AcDbLine
 10
16.284062043356812
 20
192.0000000000001
 30
0.0
 11
25.215937956643415
 21
192.0000000000001
 31
0.0
  0
ARC
  5
3F
330
17
100
AcDbEntity
  8
0
100
AcDbCircle
 10
14.092031021678395
 20
189.8079689783218
 30
0.0
 40
3.1
100
AcDbArc
 50
44.99999999999903
 51
132.4424032875187
  0
LINE
  5
40
330
17
100
AcDbEntity
  8
0
100
AcDbLine
 10
12.000000000000114
 20
206.90436710310667
 30
0.0
 11
12.000000000000114
 21
192.09563289689368
 31
0.0
  0
ARC
  5
41
330
17
100
AcDbEntity
  8
0
100
AcDbCircle
 10
14.092031021678395
 20
209.19203102167842
 30
0.0
 40
3.1
100
AcDbArc
 50
227.5575967124821
 51
315.00000000000045
  0
LINE
  5
42
330
17
100
AcDbEntity
  8
0
100
AcDbLine
 10
25.21593795664353
 20
207.0000000000001
 30
0.0
 11
16.2840620433567
 21
207.0000000000001
 31
0.0
  0
ARC
  5
43
330
17
100
AcDbEntity
  8
0
100
AcDbCircle
 10
27.407968978321833
 20
209.19203102167842
 30
0.0
 40
3.1
100
AcDbArc
 50
-135.00000000000045
 51
44.99999999999832
  0
LINE
  5
44
330
17
100
AcDbEntity
  8
0
100
AcDbLine
 10
29.600000000000136
 20
262.6159379566434
 30
0.0
 11
29.600000000000136
 21
211.3840620433566
 31
0.0
  0
ARC
  5
45
330
17
100
AcDbEntity
  8
0
100
AcDbCircle
 10
27.407968978321833
 20
264.8079689783218
 30
0.0
 40
3.1
100
AcDbArc
 50
-45.00000000000175
 51
135.000000000001
  0
LINE
  5
46
330
17
100
AcDbEntity
  8
0
100
AcDbLine
 10
16.284062043356812
 20
267.0000000000001
 30
0.0
 11
25.215937956643415
 21
267.0000000000001
 31
0.0
  0
ARC
  5
47
330
17
100
AcDbEntity
  8
0
100
AcDbCircle
 10
14.092031021678395
 20
264.8079689783218
 30
0.0
 40
3.1
100
AcDbArc
 50
44.99999999999903
 51
132.44240328751874
  0
LINE
  5
48
330
17
100
AcDbEntity
  8
0
100
AcDbLine
 10
12.000000000000114
 20
312.0000000000002
 30
0.0
 11
12.000000000000114
 21
267.0956328968937
 31
0.0
  0
LINE
  5
49
330
17
100
AcDbEntity
  8
0
100
AcDbLine
 10
1812.0
 20
312.0
 30
0.0
 11
12.000000000000114
 21
312.0000000000002
 31
0.0
  0
LINE
  5
4A
330
17
100
AcDbEntity
  8
0
100
AcDbLine
 10
1812.0
 20
267.09563289689345
 30
0.0
 11
1812.0
 21
312.0
 31
0.0
  0
ARC
  5
4B
330
17
100
AcDbEntity
  8
0
100
AcDbCircle
 10
1809.9079689783218
 20
264.8079689783217
 30
0.0
 40
3.1
100
AcDbArc
 50
47.55759671248124
 51
135.000000000001
  0
LINE
  5
4C
330
17
100
AcDbEntity
  8
0
100
AcDbLine
 10
1798.7840620433567
 20
267.0
 30
0.0
 11
1807.7159379566433
 21
267.0
 31
0.0
  0
ARC
  5
4D
330
17
100
AcDbEntity
  8
0
100
AcDbCircle
 10
1796.5920310216784
 20
264.8079689783217
 30
0.0
 40
3.1
100
AcDbArc
 50
44.99999999999903
 51
225.00000000000176
  0
LINE
  5
4E
330
17
100
AcDbEntity
  8
0
100
AcDbLine
 10
1794.4
 20
211.3840620433565
 30
0.0
 11
1794.4
 21
262.6159379566433
 31
0.0
  0
ARC
  5
4F
330
17
100
AcDbEntity
  8
0
100
AcDbCircle
 10
1796.5920310216784
 20
209.1920310216783
 30
0.0
 40
3.1
100
AcDbArc
 50
135.00000000000168
 51
315.00000000000045
  0
LINE
  5
50
330
17
100
AcDbEntity
  8
0
100
AcDbLine
 10
1807.7159379566435
 20
207.0
 30
0.0
 11
1798.7840620433567
 21
207.0
 31
0.0
  0
ARC
  5
51
330
17
100
AcDbEntity
  8
0
100
AcDbCircle
 10
1809.9079689783218
 20
209.1920310216783
 30
0.0
 40
3.1
100
AcDbArc
 50
-135.00000000000045
 51
-47.55759671248212
  0
LINE
  5
52
330
17
100
AcDbEntity
  8
0
100
AcDbLine
 10
1812.0
 20
192.09563289689348
 30
0.0
 11
1812.0
 21
206.90436710310647
 31
0.0
  0
ARC
  5
53
330
17
100
AcDbEntity
  8
0
100
AcDbCircle
 10
1809.9079689783218
 20
189.8079689783217
 30
0.0
 40
3.1
100
AcDbArc
 50
47.55759671248128
 51
135.000000000001
  0
LINE
  5
54
330
17
100
AcDbEntity
  8
0
100
AcDbLine
 10
1798.7840620433567
 20
192.0
 30
0.0
 11
1807.7159379566433
 21
192.0
 31
0.0
  0
ARC
  5
55
330
17
100
AcDbEntity
  8
0
100
AcDbCircle
 10
1796.5920310216784
 20
189.8079689783217
 30
0.0
 40
3.1
100
AcDbArc
 50
44.99999999999903
 51
225.00000000000176
  0
LINE
  5
56
330
17
100
AcDbEntity
  8
0
100
AcDbLine
 10
1794.4
 20
136.3840620433565
 30
0.0
 11
1794.4
 21
187.61593795664328
 31
0.0
  0
ARC
  5
57
330
17
100
AcDbEntity
  8
0
100
AcDbCircle
 10
1796.5920310216784
 20
134.1920310216783
 30
0.0
 40
3.1
100
AcDbArc
 50
135.00000000000168
 51
315.00000000000045
  0
LINE
  5
58
330
17
100
AcDbEntity
  8
0
100
AcDbLine
 10
1807.7159379566435
 20
132.0
 30
0.0
 11
1798.7840620433567
 21
132.0
 31
0.0
  0
ARC
  5
59
330
17
100
AcDbEntity
  8
0
100
AcDbCircle
 10
1809.9079689783218
 20
134.1920310216783
 30
0.0
 40
3.1
100
AcDbArc
 50
-135.00000000000045
 51
-47.55759671248212
  0
LINE
  5
5A
330
17
100
AcDbEntity
  8
0
100
AcDbLine
 10
1812.0
 20
117.09563289689348
 30
0.0
 11
1812.0
 21
131.90436710310647
 31
0.0
  0
ARC
  5
5B
330
17
100
AcDbEntity
  8
0
100
AcDbCircle
 10
1809.9079689783218
 20
114.8079689783217
 30
0.0
 40
3.1
100
AcDbArc
 50
47.55759671248124
 51
135.000000000001
  0
LINE
  5
5C
330
17
100
AcDbEntity
  8
0
100
AcDbLine
 10
1798.7840620433567
 20
117.0
 30
0.0
 11
1807.7159379566433
 21
117.0
 31
0.0
  0
ARC
  5
5D
330
17
100
AcDbEntity
  8
0
100
AcDbCircle
 10
1796.5920310216784
 20
114.8079689783217
 30
0.0
 40
3.1
100
AcDbArc
 50
44.99999999999903
 51
225.00000000000176
  0
LINE
  5
5E
330
17
100
AcDbEntity
  8
0
100
AcDbLine
 10
1794.4
 20
61.384062043356494
 30
0.0
 11
1794.4
 21
112.61593795664328
 31
0.0
  0
ARC
  5
5F
330
17
100
AcDbEntity
  8
0
100
AcDbCircle
 10
1796.5920310216784
 20
59.192031021678304
 30
0.0
 40
3.1
100
AcDbArc
 50
135.00000000000168
 51
315.00000000000045
  0
LINE
  5
60
330
17
100
AcDbEntity
  8
0
100
AcDbLine
 10
1807.7159379566435
 20
57.0
 30
0.0
 11
1798.7840620433567
 21
57.0
 31
0.0
  0
ARC
  5
61
330
17
100
AcDbEntity
  8
0
100
AcDbCircle
 10
1809.9079689783218
 20
59.192031021678304
 30
0.0
 40
3.1
100
AcDbArc
 50
-135.00000000000045
 51
-47.55759671248212
  0
LINE
  5
62
330
17
100
AcDbEntity
  8
0
100
AcDbLine
 10
1812.0
 20
12.0
 30
0.0
 11
1812.0
 21
56.90436710310648
 31
0.0
  0
ARC
  5
63
330
17
100
AcDbEntity
  8
0
100
AcDbCircle
 10
1364.2829689783218
 20
59.19203102167836
 30
0.0
 40
3.1
100
AcDbArc
 50
-135.00000000000045
 51
44.99999999999832
  0
LINE
  5
64
330
17
100
AcDbEntity
  8
0
100
AcDbLine
 10
1362.0909379566435
 20
57.00000000000006
 30
0.0
 11
1353.1590620433567
 21
57.00000000000006
 31
0.0
  0
LINE
  5
65
330
17
100
AcDbEntity
  8
0
100
AcDbLine
 10
1366.4750000000001
 20
112.61593795664339
 30
0.0
 11
1366.4750000000001
 21
61.38406204335655
 31
0.0
  0
ARC
  5
66
330
17
100
AcDbEntity
  8
0
100
AcDbCircle
 10
1350.9670310216784
 20
59.19203102167836
 30
0.0
 40
3.1
100
AcDbArc
 50
135.00000000000168
 51
315.00000000000045
  0
ARC
  5
67
330
17
100
AcDbEntity
  8
0
100
AcDbCircle
 10
1364.2829689783218
 20
114.80796897832175
 30
0.0
 40
3.1
100
AcDbArc
 50
-45.00000000000175
 51
135.000000000001
  0
LINE
  5
68
330
17
100
AcDbEntity
  8
0
100
AcDbLine
 10
1348.775
 20
61.38406204335655
 30
0.0
 11
1348.775
 21
112.61593795664339
 31
0.0
  0
LINE
  5
69
330
17
100
AcDbEntity
  8
0
100
AcDbLine
 10
1353.1590620433567
 20
117.00000000000006
 30
0.0
 11
1362.0909379566433
 21
117.00000000000006
 31
0.0
  0
ARC
  5
6A
330
17
100
AcDbEntity
  8
0
100
AcDbCircle
 10
1350.9670310216784
 20
114.80796897832175
 30
0.0
 40
3.1
100
AcDbArc
 50
44.99999999999903
 51
225.00000000000176
  0
ARC
  5
6B
330
17
100
AcDbEntity
  8
0
100
AcDbCircle
 10
1364.2829689783218
 20
134.19203102167836
 30
0.0
 40
3.1
100
AcDbArc
 50
-135.00000000000045
 51
44.99999999999832
  0
LINE
  5
6C
330
17
100
AcDbEntity
  8
0
100
AcDbLine
 10
1362.0909379566435
 20
132.00000000000006
 30
0.0
 11
1353.1590620433567
 21
132.00000000000006
 31
0.0
  0
LINE
  5
6D
330
17
100
AcDbEntity
  8
0
100
AcDbLine
 10
1366.4750000000001
 20
187.6159379566434
 30
0.0
 11
1366.4750000000001
 21
136.38406204335655
 31
0.0
  0
ARC
  5
6E
330
17
100
AcDbEntity
  8
0
100
AcDbCircle
 10
1350.9670310216784
 20
134.19203102167836
 30
0.0
 40
3.1
100
AcDbArc
 50
135.00000000000168
 51
315.00000000000045
  0
ARC
  5
6F
330
17
100
AcDbEntity
  8
0
100
AcDbCircle
 10
1364.2829689783218
 20
189.80796897832175
 30
0.0
 40
3.1
100
AcDbArc
 50
-45.00000000000175
 51
135.000000000001
  0
LINE
  5
70
330
17
100
AcDbEntity
  8
0
100
AcDbLine
 10
1348.775
 20
136.38406204335655
 30
0.0
 11
1348.775
 21
187.6159379566434
 31
0.0
  0
LINE
  5
71
330
17
100
AcDbEntity
  8
0
100
AcDbLine
 10
1353.1590620433567
 20
192.00000000000006
 30
0.0
 11
1362.0909379566435
 21
192.00000000000006
 31
0.0
  0
ARC
  5
72
330
17
100
AcDbEntity
  8
0
100
AcDbCircle
 10
1350.9670310216784
 20
189.80796897832175
 30
0.0
 40
3.1
100
AcDbArc
 50
44.99999999999903
 51
225.00000000000176
  0
ARC
  5
73
330
17
100
AcDbEntity
  8
0
100
AcDbCircle
 10
1364.2829689783218
 20
209.19203102167842
 30
0.0
 40
3.1
100
AcDbArc
 50
-135.00000000000045
 51
44.99999999999832
  0
LINE
  5
74
330
17
100
AcDbEntity
  8
0
100
AcDbLine
 10
1362.0909379566435
 20
207.0000000000001
 30
0.0
 11
1353.1590620433567
 21
207.0000000000001
 31
0.0
  0
LINE
  5
75
330
17
100
AcDbEntity
  8
0
100
AcDbLine
 10
1366.4750000000001
 20
262.6159379566434
 30
0.0
 11
1366.4750000000001
 21
211.3840620433566
 31
0.0
  0
ARC
  5
76
330
17
100
AcDbEntity
  8
0
100
AcDbCircle
 10
1350.9670310216784
 20
209.19203102167842
 30
0.0
 40
3.1
100
AcDbArc
 50
135.00000000000168
 51
315.00000000000045
  0
ARC
  5
77
330
17
100
AcDbEntity
  8
0
100
AcDbCircle
 10
1364.2829689783218
 20
264.8079689783218
 30
0.0
 40
3.1
100
AcDbArc
 50
-45.00000000000175
 51
135.000000000001
  0
LINE
  5
78
330
17
100
AcDbEntity
  8
0
100
AcDbLine
 10
1348.775
 20
211.3840620433566
 30
0.0
 11
1348.775
 21
262.6159379566434
 31
0.0
  0
LINE
  5
79
330
17
100
AcDbEntity
  8
0
100
AcDbLine
 10
1353.1590620433567
 20
267.0000000000001
 30
0.0
 11
1362.0909379566435
 21
267.0000000000001
 31
0.0
  0
ARC
  5
7A
330
17
100
AcDbEntity
  8
0
100
AcDbCircle
 10
1350.9670310216784
 20
264.8079689783218
 30
0.0
 40
3.1
100
AcDbArc
 50
44.99999999999903
 51
225.00000000000176
  0
ARC
  5
7B
330
17
100
AcDbEntity
  8
0
100
AcDbCircle
 10
918.6579689783218
 20
59.19203102167842
 30
0.0
 40
3.1
100
AcDbArc
 50
-135.00000000000045
 51
44.99999999999832
  0
LINE
  5
7C
330
17
100
AcDbEntity
  8
0
100
AcDbLine
 10
916.4659379566435
 20
57.000000000000114
 30
0.0
 11
907.5340620433567
 21
57.000000000000114
 31
0.0
  0
LINE
  5
7D
330
17
100
AcDbEntity
  8
0
100
AcDbLine
 10
920.8500000000001
 20
112.61593795664344
 30
0.0
 11
920.8500000000001
 21
61.38406204335662
 31
0.0
  0
ARC
  5
7E
330
17
100
AcDbEntity
  8
0
100
AcDbCircle
 10
905.3420310216784
 20
59.19203102167842
 30
0.0
 40
3.1
100
AcDbArc
 50
135.00000000000168
 51
315.00000000000045
  0
ARC
  5
7F
330
17
100
AcDbEntity
  8
0
100
AcDbCircle
 10
918.6579689783218
 20
114.80796897832181
 30
0.0
 40
3.1
100
AcDbArc
 50
-45.00000000000175
 51
135.000000000001
  0
LINE
  5
80
330
17
100
AcDbEntity
  8
0
100
AcDbLine
 10
903.1500000000001
 20
61.38406204335662
 30
0.0
 11
903.1500000000001
 21
112.61593795664344
 31
0.0
  0
LINE
  5
81
330
17
100
AcDbEntity
  8
0
100
AcDbLine
 10
907.5340620433567
 20
117.00000000000011
 30
0.0
 11
916.4659379566434
 21
117.00000000000011
 31
0.0
  0
ARC
  5
82
330
17
100
AcDbEntity
  8
0
100
AcDbCircle
 10
905.3420310216784
 20
114.80796897832181
 30
0.0
 40
3.1
100
AcDbArc
 50
44.99999999999903
 51
225.00000000000176
  0
ARC
  5
83
330
17
100
AcDbEntity
  8
0
100
AcDbCircle
 10
473.03296897832183
 20
59.19203102167842
 30
0.0
 40
3.1
100
AcDbArc
 50
-135.00000000000045
 51
44.99999999999832
  0
LINE
  5
84
330
17
100
AcDbEntity
  8
0
100
AcDbLine
 10
470.8409379566435
 20
57.000000000000114
 30
0.0
 11
461.90906204335676
 21
57.000000000000114
 31
0.0
  0
LINE
  5
85
330
17
100
AcDbEntity
  8
0
100
AcDbLine
 10
475.22500000000014
 20
112.61593795664345
 30
0.0
 11
475.22500000000014
 21
61.38406204335661
 31
0.0
  0
ARC
  5
86
330
17
100
AcDbEntity
  8
0
100
AcDbCircle
 10
459.7170310216784
 20
59.19203102167842
 30
0.0
 40
3.1
100
AcDbArc
 50
135.00000000000168
 51
315.00000000000045
  0
ARC
  5
87
330
17
100
AcDbEntity
  8
0
100
AcDbCircle
 10
473.03296897832183
 20
114.80796897832181
 30
0.0
 40
3.1
100
AcDbArc
 50
-45.00000000000175
 51
135.000000000001
  0
LINE
  5
88
330
17
100
AcDbEntity
  8
0
100
AcDbLine
 10
457.5250000000001
 20
61.38406204335661
 30
0.0
 11
457.5250000000001
 21
112.61593795664345
 31
0.0
  0
LINE
  5
89
330
17
100
AcDbEntity
  8
0
100
AcDbLine
 10
461.90906204335676
 20
117.00000000000011
 30
0.0
 11
470.8409379566435
 21
117.00000000000011
 31
0.0
  0
ARC
  5
8A
330
17
100
AcDbEntity
  8
0
100
AcDbCircle
 10
459.7170310216784
 20
114.80796897832181
 30
0.0
 40
3.1
100
AcDbArc
 50
44.99999999999903
 51
225.00000000000176
  0
ARC
  5
8B
330
17
100
AcDbEntity
  8
0
100
AcDbCircle
 10
918.6579689783218
 20
134.19203102167842
 30
0.0
 40
3.1
100
AcDbArc
 50
-135.00000000000045
 51
44.99999999999832
  0
LINE
  5
8C
330
17
100
AcDbEntity
  8
0
100
AcDbLine
 10
916.4659379566435
 20
132.0000000000001
 30
0.0
 11
907.5340620433567
 21
132.0000000000001
 31
0.0
  0
LINE
  5
8D
330
17
100
AcDbEntity
  8
0
100
AcDbLine
 10
920.8500000000001
 20
187.61593795664345
 30
0.0
 11
920.8500000000001
 21
136.3840620433566
 31
0.0
  0
ARC
  5
8E
330
17
100
AcDbEntity
  8
0
100
AcDbCircle
 10
905.3420310216784
 20
134.19203102167842
 30
0.0
 40
3.1
100
AcDbArc
 50
135.00000000000168
 51
315.00000000000045
  0
ARC
  5
8F
330
17
100
AcDbEntity
  8
0
100
AcDbCircle
 10
918.6579689783218
 20
189.8079689783218
 30
0.0
 40
3.1
100
AcDbArc
 50
-45.00000000000175
 51
135.000000000001
  0
LINE
  5
90
330
17
100
AcDbEntity
  8
0
100
AcDbLine
 10
903.1500000000001
 20
136.3840620433566
 30
0.0
 11
903.1500000000001
 21
187.61593795664345
 31
0.0
  0
LINE
  5
91
330
17
100
AcDbEntity
  8
0
100
AcDbLine
 10
907.5340620433568
 20
192.0000000000001
 30
0.0
 11
916.4659379566434
 21
192.0000000000001
 31
0.0
  0
ARC
  5
92
330
17
100
AcDbEntity
  8
0
100
AcDbCircle
 10
905.3420310216784
 20
189.8079689783218
 30
0.0
 40
3.1
100
AcDbArc
 50
44.99999999999903
 51
225.00000000000176
  0
ARC
  5
93
330
17
100
AcDbEntity
  8
0
100
AcDbCircle
 10
918.6579689783218
 20
209.19203102167842
 30
0.0
 40
3.1
100
AcDbArc
 50
-135.00000000000045
 51
44.99999999999832
  0
LINE
  5
94
330
17
100
AcDbEntity
  8
0
100
AcDbLine
 10
916.4659379566435
 20
207.0000000000001
 30
0.0
 11
907.5340620433567
 21
207.0000000000001
 31
0.0
  0
LINE
  5
95
330
17
100
AcDbEntity
  8
0
100
AcDbLine
 10
920.8500000000001
 20
262.61593795664345
 30
0.0
 11
920.8500000000001
 21
211.3840620433566
 31
0.0
  0
ARC
  5
96
330
17
100
AcDbEntity
  8
0
100
AcDbCircle
 10
905.3420310216784
 20
209.19203102167842
 30
0.0
 40
3.1
100
AcDbArc
 50
135.00000000000168
 51
315.00000000000045
  0
ARC
  5
97
330
17
100
AcDbEntity
  8
0
100
AcDbCircle
 10
918.6579689783218
 20
264.8079689783218
 30
0.0
 40
3.1
100
AcDbArc
 50
-45.00000000000175
 51
135.000000000001
  0
LINE
  5
98
330
17
100
AcDbEntity
  8
0
100
AcDbLine
 10
903.1500000000001
 20
211.3840620433566
 30
0.0
 11
903.1500000000001
 21
262.61593795664345
 31
0.0
  0
LINE
  5
99
330
17
100
AcDbEntity
  8
0
100
AcDbLine
 10
907.5340620433568
 20
267.0000000000001
 30
0.0
 11
916.4659379566435
 21
267.0000000000001
 31
0.0
  0
ARC
  5
9A
330
17
100
AcDbEntity
  8
0
100
AcDbCircle
 10
905.3420310216784
 20
264.8079689783218
 30
0.0
 40
3.1
100
AcDbArc
 50
44.99999999999903
 51
225.00000000000176
  0
ARC
  5
9B
330
17
100
AcDbEntity
  8
0
100
AcDbCircle
 10
473.03296897832183
 20
134.19203102167847
 30
0.0
 40
3.1
100
AcDbArc
 50
-135.00000000000045
 51
44.99999999999832
  0
LINE
  5
9C
330
17
100
AcDbEntity
  8
0
100
AcDbLine
 10
470.8409379566435
 20
132.00000000000017
 30
0.0
 11
461.90906204335676
 21
132.00000000000017
 31
0.0
  0
LINE
  5
9D
330
17
100
AcDbEntity
  8
0
100
AcDbLine
 10
475.22500000000014
 20
187.6159379566435
 30
0.0
 11
475.22500000000014
 21
136.38406204335666
 31
0.0
  0
ARC
  5
9E
330
17
100
AcDbEntity
  8
0
100
AcDbCircle
 10
459.7170310216784
 20
134.19203102167847
 30
0.0
 40
3.1
100
AcDbArc
 50
135.00000000000168
 51
315.00000000000045
  0
ARC
  5
9F
330
17
100
AcDbEntity
  8
0
100
AcDbCircle
 10
473.03296897832183
 20
189.80796897832187
 30
0.0
 40
3.1
100
AcDbArc
 50
-45.00000000000175
 51
135.000000000001
  0
LINE
  5
A0
330
17
100
AcDbEntity
  8
0
100
AcDbLine
 10
457.5250000000001
 20
136.38406204335666
 30
0.0
 11
457.5250000000001
 21
187.6159379566435
 31
0.0
  0
LINE
  5
A1
330
17
100
AcDbEntity
  8
0
100
AcDbLine
 10
461.90906204335676
 20
192.00000000000017
 30
0.0
 11
470.8409379566435
 21
192.00000000000017
 31
0.0
  0
ARC
  5
A2
330
17
100
AcDbEntity
  8
0
100
AcDbCircle
 10
459.7170310216784
 20
189.80796897832187
 30
0.0
 40
3.1
100
AcDbArc
 50
44.99999999999903
 51
225.00000000000176
  0
ARC
  5
A3
330
17
100
AcDbEntity
  8
0
100
AcDbCircle
 10
473.03296897832183
 20
209.19203102167847
 30
0.0
 40
3.1
100
AcDbArc
 50
-135.00000000000045
 51
44.99999999999832
  0
LINE
  5
A4
330
17
100
AcDbEntity
  8
0
100
AcDbLine
 10
470.84093795664353
 20
207.00000000000017
 30
0.0
 11
461.9090620433567
 21
207.00000000000017
 31
0.0
  0
LINE
  5
A5
330
17
100
AcDbEntity
  8
0
100
AcDbLine
 10
475.22500000000014
 20
262.6159379566435
 30
0.0
 11
475.22500000000014
 21
211.38406204335666
 31
0.0
  0
ARC
  5
A6
330
17
100
AcDbEntity
  8
0
100
AcDbCircle
 10
459.7170310216784
 20
209.19203102167847
 30
0.0
 40
3.1
100
AcDbArc
 50
135.00000000000168
 51
315.00000000000045
  0
ARC
  5
A7
330
17
100
AcDbEntity
  8
0
100
AcDbCircle
 10
473.03296897832183
 20
264.80796897832187
 30
0.0
 40
3.1
100
AcDbArc
 50
-45.00000000000175
 51
135.000000000001
  0
LINE
  5
A8
330
17
100
AcDbEntity
  8
0
100
AcDbLine
 10
457.5250000000001
 20
211.38406204335666
 30
0.0
 11
457.5250000000001
 21
262.6159379566435
 31
0.0
  0
LINE
  5
A9
330
17
100
AcDbEntity
  8
0
100
AcDbLine
 10
461.9090620433568
 20
267.00000000000017
 30
0.0
 11
470.8409379566434
 21
267.00000000000017
 31
0.0
  0
ARC
  5
AA
330
17
100
AcDbEntity
  8
0
100
AcDbCircle
 10
459.7170310216784
 20
264.80796897832187
 30
0.0
 40
3.1
100
AcDbArc
 50
44.99999999999903
 51
225.00000000000176
  0
LINE
  5
AB
330
17
100
AcDbEntity
  8
0
100
AcDbLine
 10
12.000000000000114
 20
324.00000000000045
 30
0.0
 11
1812.0
 21
324.0000000000002
 31
0.0
  0
LINE
  5
AC
330
17
100
AcDbEntity
  8
0
100
AcDbLine
 10
12.000000000000114
 20
368.9043671031069
 30
0.0
 11
12.000000000000114
 21
324.00000000000045
 31
0.0
  0
ARC
  5
AD
330
17
100
AcDbEntity
  8
0
100
AcDbCircle
 10
14.092031021678395
 20
371.1920310216789
 30
0.0
 40
3.1
100
AcDbArc
 50
227.5575967124821
 51
315.00000000000045
  0
LINE
  5
AE
330
17
100
AcDbEntity
  8
0
100
AcDbLine
 10
25.21593795664353
 20
369.00000000000057
 30
0.0
 11
16.2840620433567
 21
369.00000000000057
 31
0.0
  0
ARC
  5
AF
330
17
100
AcDbEntity
  8
0
100
AcDbCircle
 10
27.407968978321833
 20
371.1920310216789
 30
0.0
 40
3.1
100
AcDbArc
 50
-135.00000000000045
 51
44.99999999999832
  0
LINE
  5
B0
330
17
100
AcDbEntity
  8
0
100
AcDbLine
 10
29.600000000000136
 20
424.61593795664385
 30
0.0
 11
29.600000000000136
 21
373.38406204335706
 31
0.0
  0
ARC
  5
B1
330
17
100
AcDbEntity
  8
0
100
AcDbCircle
 10
27.407968978321833
 20
426.80796897832226
 30
0.0
 40
3.1
100
AcDbArc
 50
-45.00000000000175
 51
135.000000000001
  0
LINE
  5
B2
330
17
100
AcDbEntity
  8
0
100
AcDbLine
 10
16.284062043356812
 20
429.00000000000057
 30
0.0
 11
25.215937956643415
 21
429.00000000000057
 31
0.0
  0
ARC
  5
B3
330
17
100
AcDbEntity
  8
0
100
AcDbCircle
 10
14.092031021678395
 20
426.80796897832226
 30
0.0
 40
3.1
100
AcDbArc
 50
44.99999999999903
 51
132.44240328751866
  0
LINE
  5
B4
330
17
100
AcDbEntity
  8
0
100
AcDbLine
 10
12.000000000000114
 20
443.9043671031069
 30
0.0
 11
12.000000000000114
 21
429.0956328968939
 31
0.0
  0
ARC
  5
B5
330
17
100
AcDbEntity
  8
0
100
AcDbCircle
 10
14.092031021678395
 20
446.1920310216789
 30
0.0
 40
3.1
100
AcDbArc
 50
227.5575967124821
 51
315.00000000000045
  0
LINE
  5
B6
330
17
100
AcDbEntity
  8
0
100
AcDbLine
 10
25.21593795664353
 20
444.00000000000057
 30
0.0
 11
16.2840620433567
 21
444.00000000000057
 31
0.0
  0
ARC
  5
B7
330
17
100
AcDbEntity
  8
0
100
AcDbCircle
 10
27.407968978321833
 20
446.1920310216789
 30
0.0
 40
3.1
100
AcDbArc
 50
-135.00000000000045
 51
44.99999999999832
  0
LINE
  5
B8
330
17
100
AcDbEntity
  8
0
100
AcDbLine
 10
29.600000000000136
 20
499.61593795664385
 30
0.0
 11
29.600000000000136
 21
448.38406204335706
 31
0.0
  0
ARC
  5
B9
330
17
100
AcDbEntity
  8
0
100
AcDbCircle
 10
27.407968978321833
 20
501.80796897832226
 30
0.0
 40
3.1
100
AcDbArc
 50
-45.00000000000175
 51
135.000000000001
  0
LINE
  5
BA
330
17
100
AcDbEntity
  8
0
100
AcDbLine
 10
16.284062043356812
 20
504.00000000000057
 30
0.0
 11
25.215937956643415
 21
504.00000000000057
 31
0.0
  0
ARC
  5
BB
330
17
100
AcDbEntity
  8
0
100
AcDbCircle
 10
14.092031021678395
 20
501.80796897832226
 30
0.0
 40
3.1
100
AcDbArc
 50
44.99999999999903
 51
132.4424032875187
  0
LINE
  5
BC
330
17
100
AcDbEntity
  8
0
100
AcDbLine
 10
12.000000000000114
 20
518.9043671031069
 30
0.0
 11
12.000000000000114
 21
504.0956328968939
 31
0.0
  0
ARC
  5
BD
330
17
100
AcDbEntity
  8
0
100
AcDbCircle
 10
14.092031021678395
 20
521.1920310216789
 30
0.0
 40
3.1
100
AcDbArc
 50
227.5575967124821
 51
315.00000000000045
  0
LINE
  5
BE
330
17
100
AcDbEntity
  8
0
100
AcDbLine
 10
25.21593795664353
 20
519.0000000000006
 30
0.0
 11
16.2840620433567
 21
519.0000000000006
 31
0.0
  0
ARC
  5
BF
330
17
100
AcDbEntity
  8
0
100
AcDbCircle
 10
27.407968978321833
 20
521.1920310216789
 30
0.0
 40
3.1
100
AcDbArc
 50
-135.00000000000045
 51
44.99999999999832
  0
LINE
  5
C0
330
17
100
AcDbEntity
  8
0
100
AcDbLine
 10
29.600000000000136
 20
574.6159379566438
 30
0.0
 11
29.600000000000136
 21
523.3840620433571
 31
0.0
  0
ARC
  5
C1
330
17
100
AcDbEntity
  8
0
100
AcDbCircle
 10
27.407968978321833
 20
576.8079689783223
 30
0.0
 40
3.1
100
AcDbArc
 50
-45.00000000000175
 51
135.000000000001
  0
LINE
  5
C2
330
17
100
AcDbEntity
  8
0
100
AcDbLine
 10
16.284062043356812
 20
579.0000000000006
 30
0.0
 11
25.215937956643415
 21
579.0000000000006
 31
0.0
  0
ARC
  5
C3
330
17
100
AcDbEntity
  8
0
100
AcDbCircle
 10
14.092031021678395
 20
576.8079689783223
 30
0.0
 40
3.1
100
AcDbArc
 50
44.99999999999903
 51
132.44240328751874
  0
LINE
  5
C4
330
17
100
AcDbEntity
  8
0
100
AcDbLine
 10
12.000000000000114
 20
624.0000000000005
 30
0.0
 11
12.000000000000114
 21
579.0956328968939
 31
0.0
  0
LINE
  5
C5
330
17
100
AcDbEntity
  8
0
100
AcDbLine
 10
1812.0
 20
624.0000000000002
 30
0.0
 11
12.000000000000114
 21
624.0000000000005
 31
0.0
  0
LINE
  5
C6
330
17
100
AcDbEntity
  8
0
100
AcDbLine
 10
1812.0
 20
579.0956328968937
 30
0.0
 11
1812.0
 21
624.0000000000002
 31
0.0
  0
ARC
  5
C7
330
17
100
AcDbEntity
  8
0
100
AcDbCircle
 10
1809.9079689783218
 20
576.8079689783219
 30
0.0
 40
3.1
100
AcDbArc
 50
47.55759671248124
 51
135.000000000001
  0
LINE
  5
C8
330
17
100
AcDbEntity
  8
0
100
AcDbLine
 10
1798.7840620433567
 20
579.0000000000002
 30
0.0
 11
1807.7159379566433
 21
579.0000000000002
 31
0.0
  0
ARC
  5
C9
330
17
100
AcDbEntity
  8
0
100
AcDbCircle
 10
1796.5920310216784
 20
576.8079689783219
 30
0.0
 40
3.1
100
AcDbArc
 50
44.99999999999903
 51
225.00000000000176
  0
LINE
  5
CA
330
17
100
AcDbEntity
  8
0
100
AcDbLine
 10
1794.4
 20
523.3840620433567
 30
0.0
 11
1794.4
 21
574.6159379566435
 31
0.0
  0
ARC
  5
CB
330
17
100
AcDbEntity
  8
0
100
AcDbCircle
 10
1796.5920310216784
 20
521.1920310216785
 30
0.0
 40
3.1
100
AcDbArc
 50
135.00000000000168
 51
315.00000000000045
  0
LINE
  5
CC
330
17
100
AcDbEntity
  8
0
100
AcDbLine
 10
1807.7159379566435
 20
519.0000000000002
 30
0.0
 11
1798.7840620433567
 21
519.0000000000002
 31
0.0
  0
ARC
  5
CD
330
17
100
AcDbEntity
  8
0
100
AcDbCircle
 10
1809.9079689783218
 20
521.1920310216785
 30
0.0
 40
3.1
100
AcDbArc
 50
-135.00000000000045
 51
-47.55759671248212
  0
LINE
  5
CE
330
17
100
AcDbEntity
  8
0
100
AcDbLine
 10
1812.0
 20
504.09563289689373
 30
0.0
 11
1812.0
 21
518.9043671031067
 31
0.0
  0
ARC
  5
CF
330
17
100
AcDbEntity
  8
0
100
AcDbCircle
 10
1809.9079689783218
 20
501.8079689783219
 30
0.0
 40
3.1
100
AcDbArc
 50
47.55759671248128
 51
135.000000000001
  0
LINE
  5
D0
330
17
100
AcDbEntity
  8
0
100
AcDbLine
 10
1798.7840620433567
 20
504.0000000000002
 30
0.0
 11
1807.7159379566433
 21
504.0000000000002
 31
0.0
  0
ARC
  5
D1
330
17
100
AcDbEntity
  8
0
100
AcDbCircle
 10
1796.5920310216784
 20
501.8079689783219
 30
0.0
 40
3.1
100
AcDbArc
 50
44.99999999999903
 51
225.00000000000176
  0
LINE
  5
D2
330
17
100
AcDbEntity
  8
0
100
AcDbLine
 10
1794.4
 20
448.3840620433567
 30
0.0
 11
1794.4
 21
499.6159379566435
 31
0.0
  0
ARC
  5
D3
330
17
100
AcDbEntity
  8
0
100
AcDbCircle
 10
1796.5920310216784
 20
446.19203102167853
 30
0.0
 40
3.1
100
AcDbArc
 50
135.00000000000168
 51
315.00000000000045
  0
LINE
  5
D4
330
17
100
AcDbEntity
  8
0
100
AcDbLine
 10
1807.7159379566435
 20
444.0000000000002
 30
0.0
 11
1798.7840620433567
 21
444.0000000000002
 31
0.0
  0
ARC
  5
D5
330
17
100
AcDbEntity
  8
0
100
AcDbCircle
 10
1809.9079689783218
 20
446.19203102167853
 30
0.0
 40
3.1
100
AcDbArc
 50
-135.00000000000045
 51
-47.55759671248212
  0
LINE
  5
D6
330
17
100
AcDbEntity
  8
0
100
AcDbLine
 10
1812.0
 20
429.09563289689373
 30
0.0
 11
1812.0
 21
443.9043671031067
 31
0.0
  0
ARC
  5
D7
330
17
100
AcDbEntity
  8
0
100
AcDbCircle
 10
1809.9079689783218
 20
426.8079689783219
 30
0.0
 40
3.1
100
AcDbArc
 50
47.55759671248124
 51
135.000000000001
  0
LINE
  5
D8
330
17
100
AcDbEntity
  8
0
100
AcDbLine
 10
1798.7840620433567
 20
429.0000000000002
 30
0.0
 11
1807.7159379566433
 21
429.0000000000002
 31
0.0
  0
ARC
  5
D9
330
17
100
AcDbEntity
  8
0
100
AcDbCircle
 10
1796.5920310216784
 20
426.8079689783219
 30
0.0
 40
3.1
100
AcDbArc
 50
44.99999999999903
 51
225.00000000000176
  0
LINE
  5
DA
330
17
100
AcDbEntity
  8
0
100
AcDbLine
 10
1794.4
 20
373.3840620433567
 30
0.0
 11
1794.4
 21
424.6159379566435
 31
0.0
  0
ARC
  5
DB
330
17
100
AcDbEntity
  8
0
100
AcDbCircle
 10
1796.5920310216784
 20
371.19203102167853
 30
0.0
 40
3.1
100
AcDbArc
 50
135.00000000000168
 51
315.00000000000045
  0
LINE
  5
DC
330
17
100
AcDbEntity
  8
0
100
AcDbLine
 10
1807.7159379566435
 20
369.0000000000002
 30
0.0
 11
1798.7840620433567
 21
369.0000000000002
 31
0.0
  0
ARC
  5
DD
330
17
100
AcDbEntity
  8
0
100
AcDbCircle
 10
1809.9079689783218
 20
371.19203102167853
 30
0.0
 40
3.1
100
AcDbArc
 50
-135.00000000000045
 51
-47.55759671248212
  0
LINE
  5
DE
330
17
100
AcDbEntity
  8
0
100
AcDbLine
 10
1812.0
 20
324.0000000000002
 30
0.0
 11
1812.0
 21
368.9043671031067
 31
0.0
  0
ARC
  5
DF
330
17
100
AcDbEntity
  8
0
100
AcDbCircle
 10
1364.2829689783218
 20
371.1920310216786
 30
0.0
 40
3.1
100
AcDbArc
 50
-135.00000000000045
 51
44.99999999999832
  0
LINE
  5
E0
330
17
100
AcDbEntity
  8
0
100
AcDbLine
 10
1362.0909379566435
 20
369.0000000000003
 30
0.0
 11
1353.1590620433567
 21
369.0000000000003
 31
0.0
  0
LINE
  5
E1
330
17
100
AcDbEntity
  8
0
100
AcDbLine
 10
1366.4750000000001
 20
424.6159379566436
 30
0.0
 11
1366.4750000000001
 21
373.3840620433568
 31
0.0
  0
ARC
  5
E2
330
17
100
AcDbEntity
  8
0
100
AcDbCircle
 10
1350.9670310216784
 20
371.1920310216786
 30
0.0
 40
3.1
100
AcDbArc
 50
135.00000000000168
 51
315.00000000000045
  0
ARC
  5
E3
330
17
100
AcDbEntity
  8
0
100
AcDbCircle
 10
1364.2829689783218
 20
426.807968978322
 30
0.0
 40
3.1
100
AcDbArc
 50
-45.00000000000175
 51
135.000000000001
  0
LINE
  5
E4
330
17
100
AcDbEntity
  8
0
100
AcDbLine
 10
1348.775
 20
373.3840620433568
 30
0.0
 11
1348.775
 21
424.6159379566436
 31
0.0
  0
LINE
  5
E5
330
17
100
AcDbEntity
  8
0
100
AcDbLine
 10
1353.1590620433567
 20
429.0000000000003
 30
0.0
 11
1362.0909379566433
 21
429.0000000000003
 31
0.0
  0
ARC
  5
E6
330
17
100
AcDbEntity
  8
0
100
AcDbCircle
 10
1350.9670310216784
 20
426.807968978322
 30
0.0
 40
3.1
100
AcDbArc
 50
44.99999999999903
 51
225.00000000000176
  0
ARC
  5
E7
330
17
100
AcDbEntity
  8
0
100
AcDbCircle
 10
1364.2829689783218
 20
446.1920310216786
 30
0.0
 40
3.1
100
AcDbArc
 50
-135.00000000000045
 51
44.99999999999832
  0
LINE
  5
E8
330
17
100
AcDbEntity
  8
0
100
AcDbLine
 10
1362.0909379566435
 20
444.0000000000003
 30
0.0
 11
1353.1590620433567
 21
444.0000000000003
 31
0.0
  0
LINE
  5
E9
330
17
100
AcDbEntity
  8
0
100
AcDbLine
 10
1366.4750000000001
 20
499.6159379566436
 30
0.0
 11
1366.4750000000001
 21
448.3840620433568
 31
0.0
  0
ARC
  5
EA
330
17
100
AcDbEntity
  8
0
100
AcDbCircle
 10
1350.9670310216784
 20
446.1920310216786
 30
0.0
 40
3.1
100
AcDbArc
 50
135.00000000000168
 51
315.00000000000045
  0
ARC
  5
EB
330
17
100
AcDbEntity
  8
0
100
AcDbCircle
 10
1364.2829689783218
 20
501.807968978322
 30
0.0
 40
3.1
100
AcDbArc
 50
-45.00000000000175
 51
135.000000000001
  0
LINE
  5
EC
330
17
100
AcDbEntity
  8
0
100
AcDbLine
 10
1348.775
 20
448.3840620433568
 30
0.0
 11
1348.775
 21
499.6159379566436
 31
0.0
  0
LINE
  5
ED
330
17
100
AcDbEntity
  8
0
100
AcDbLine
 10
1353.1590620433567
 20
504.0000000000003
 30
0.0
 11
1362.0909379566435
 21
504.0000000000003
 31
0.0
  0
ARC
  5
EE
330
17
100
AcDbEntity
  8
0
100
AcDbCircle
 10
1350.9670310216784
 20
501.807968978322
 30
0.0
 40
3.1
100
AcDbArc
 50
44.99999999999903
 51
225.00000000000176
  0
ARC
  5
EF
330
17
100
AcDbEntity
  8
0
100
AcDbCircle
 10
1364.2829689783218
 20
521.1920310216786
 30
0.0
 40
3.1
100
AcDbArc
 50
-135.00000000000045
 51
44.99999999999832
  0
LINE
  5
F0
330
17
100
AcDbEntity
  8
0
100
AcDbLine
 10
1362.0909379566435
 20
519.0000000000003
 30
0.0
 11
1353.1590620433567
 21
519.0000000000003
 31
0.0
  0
LINE
  5
F1
330
17
100
AcDbEntity
  8
0
100
AcDbLine
 10
1366.4750000000001
 20
574.6159379566436
 30
0.0
 11
1366.4750000000001
 21
523.3840620433568
 31
0.0
  0
ARC
  5
F2
330
17
100
AcDbEntity
  8
0
100
AcDbCircle
 10
1350.9670310216784
 20
521.1920310216786
 30
0.0
 40
3.1
100
AcDbArc
 50
135.00000000000168
 51
315.00000000000045
  0
ARC
  5
F3
330
17
100
AcDbEntity
  8
0
100
AcDbCircle
 10
1364.2829689783218
 20
576.807968978322
 30
0.0
 40
3.1
100
AcDbArc
 50
-45.00000000000175
 51
135.000000000001
  0
LINE
  5
F4
330
17
100
AcDbEntity
  8
0
100
AcDbLine
 10
1348.775
 20
523.3840620433568
 30
0.0
 11
1348.775
 21
574.6159379566436
 31
0.0
  0
LINE
  5
F5
330
17
100
AcDbEntity
  8
0
100
AcDbLine
 10
1353.1590620433567
 20
579.0000000000003
 30
0.0
 11
1362.0909379566435
 21
579.0000000000003
 31
0.0
  0
ARC
  5
F6
330
17
100
AcDbEntity
  8
0
100
AcDbCircle
 10
1350.9670310216784
 20
576.807968978322
 30
0.0
 40
3.1
100
AcDbArc
 50
44.99999999999903
 51
225.00000000000176
  0
ARC
  5
F7
330
17
100
AcDbEntity
  8
0
100
AcDbCircle
 10
918.6579689783218
 20
371.19203102167864
 30
0.0
 40
3.1
100
AcDbArc
 50
-135.00000000000045
 51
44.99999999999832
  0
LINE
  5
F8
330
17
100
AcDbEntity
  8
0
100
AcDbLine
 10
916.4659379566435
 20
369.00000000000034
 30
0.0
 11
907.5340620433567
 21
369.00000000000034
 31
0.0
  0
LINE
  5
F9
330
17
100
AcDbEntity
  8
0
100
AcDbLine
 10
920.8500000000001
 20
424.6159379566437
 30
0.0
 11
920.8500000000001
 21
373.38406204335683
 31
0.0
  0
ARC
  5
FA
330
17
100
AcDbEntity
  8
0
100
AcDbCircle
 10
905.3420310216784
 20
371.19203102167864
 30
0.0
 40
3.1
100
AcDbArc
 50
135.00000000000168
 51
315.00000000000045
  0
ARC
  5
FB
330
17
100
AcDbEntity
  8
0
100
AcDbCircle
 10
918.6579689783218
 20
426.80796897832204
 30
0.0
 40
3.1
100
AcDbArc
 50
-45.00000000000175
 51
135.000000000001
  0
LINE
  5
FC
330
17
100
AcDbEntity
  8
0
100
AcDbLine
 10
903.1500000000001
 20
373.38406204335683
 30
0.0
 11
903.1500000000001
 21
424.6159379566437
 31
0.0
  0
LINE
  5
FD
330
17
100
AcDbEntity
  8
0
100
AcDbLine
 10
907.5340620433567
 20
429.00000000000034
 30
0.0
 11
916.4659379566434
 21
429.00000000000034
 31
0.0
  0
ARC
  5
FE
330
17
100
AcDbEntity
  8
0
100
AcDbCircle
 10
905.3420310216784
 20
426.80796897832204
 30
0.0
 40
3.1
100
AcDbArc
 50
44.99999999999903
 51
225.00000000000176
  0
ARC
  5
FF
330
17
100
AcDbEntity
  8
0
100
AcDbCircle
 10
473.03296897832183
 20
371.19203102167864
 30
0.0
 40
3.1
100
AcDbArc
 50
-135.00000000000045
 51
44.99999999999832
  0
LINE
  5
100
330
17
100
AcDbEntity
  8
0
100
AcDbLine
 10
470.8409379566435
 20
369.00000000000034
 30
0.0
 11
461.90906204335676
 21
369.00000000000034
 31
0.0
  0
LINE
  5
101
330
17
100
AcDbEntity
  8
0
100
AcDbLine
 10
475.22500000000014
 20
424.6159379566437
 30
0.0
 11
475.22500000000014
 21
373.38406204335683
 31
0.0
  0
ARC
  5
102
330
17
100
AcDbEntity
  8
0
100
AcDbCircle
 10
459.7170310216784
 20
371.19203102167864
 30
0.0
 40
3.1
100
AcDbArc
 50
135.00000000000168
 51
315.00000000000045
  0
ARC
  5
103
330
17
100
AcDbEntity
  8
0
100
AcDbCircle
 10
473.03296897832183
 20
426.80796897832204
 30
0.0
 40
3.1
100
AcDbArc
 50
-45.00000000000175
 51
135.000000000001
  0
LINE
  5
104
330
17
100
AcDbEntity
  8
0
100
AcDbLine
 10
457.5250000000001
 20
373.38406204335683
 30
0.0
 11
457.5250000000001
 21
424.6159379566437
 31
0.0
  0
LINE
  5
105
330
17
100
AcDbEntity
  8
0
100
AcDbLine
 10
461.90906204335676
 20
429.00000000000034
 30
0.0
 11
470.8409379566435
 21
429.00000000000034
 31
0.0
  0
ARC
  5
106
330
17
100
AcDbEntity
  8
0
100
AcDbCircle
 10
459.7170310216784
 20
426.80796897832204
 30
0.0
 40
3.1
100
AcDbArc
 50
44.99999999999903
 51
225.00000000000176
  0
ARC
  5
107
330
17
100
AcDbEntity
  8
0
100
AcDbCircle
 10
918.6579689783218
 20
446.19203102167864
 30
0.0
 40
3.1
100
AcDbArc
 50
-135.00000000000045
 51
44.99999999999832
  0
LINE
  5
108
330
17
100
AcDbEntity
  8
0
100
AcDbLine
 10
916.4659379566435
 20
444.00000000000034
 30
0.0
 11
907.5340620433567
 21
444.00000000000034
 31
0.0
  0
LINE
  5
109
330
17
100
AcDbEntity
  8
0
100
AcDbLine
 10
920.8500000000001
 20
499.6159379566437
 30
0.0
 11
920.8500000000001
 21
448.38406204335683
 31
0.0
  0
ARC
  5
10A
330
17
100
AcDbEntity
  8
0
100
AcDbCircle
 10
905.3420310216784
 20
446.19203102167864
 30
0.0
 40
3.1
100
AcDbArc
 50
135.00000000000168
 51
315.00000000000045
  0
ARC
  5
10B
330
17
100
AcDbEntity
  8
0
100
AcDbCircle
 10
918.6579689783218
 20
501.80796897832204
 30
0.0
 40
3.1
100
AcDbArc
 50
-45.00000000000175
 51
135.000000000001
  0
LINE
  5
10C
330
17
100
AcDbEntity
  8
0
100
AcDbLine
 10
903.1500000000001
 20
448.38406204335683
 30
0.0
 11
903.1500000000001
 21
499.6159379566437
 31
0.0
  0
LINE
  5
10D
330
17
100
AcDbEntity
  8
0
100
AcDbLine
 10
907.5340620433568
 20
504.00000000000034
 30
0.0
 11
916.4659379566434
 21
504.00000000000034
 31
0.0
  0
ARC
  5
10E
330
17
100
AcDbEntity
  8
0
100
AcDbCircle
 10
905.3420310216784
 20
501.80796897832204
 30
0.0
 40
3.1
100
AcDbArc
 50
44.99999999999903
 51
225.00000000000176
  0
ARC
  5
10F
330
17
100
AcDbEntity
  8
0
100
AcDbCircle
 10
918.6579689783218
 20
521.1920310216786
 30
0.0
 40
3.1
100
AcDbArc
 50
-135.00000000000045
 51
44.99999999999832
  0
LINE
  5
110
330
17
100
AcDbEntity
  8
0
100
AcDbLine
 10
916.4659379566435
 20
519.0000000000003
 30
0.0
 11
907.5340620433567
 21
519.0000000000003
 31
0.0
  0
LINE
  5
111
330
17
100
AcDbEntity
  8
0
100
AcDbLine
 10
920.8500000000001
 20
574.6159379566436
 30
0.0
 11
920.8500000000001
 21
523.3840620433568
 31
0.0
  0
ARC
  5
112
330
17
100
AcDbEntity
  8
0
100
AcDbCircle
 10
905.3420310216784
 20
521.1920310216786
 30
0.0
 40
3.1
100
AcDbArc
 50
135.00000000000168
 51
315.00000000000045
  0
ARC
  5
113
330
17
100
AcDbEntity
  8
0
100
AcDbCircle
 10
918.6579689783218
 20
576.807968978322
 30
0.0
 40
3.1
100
AcDbArc
 50
-45.00000000000175
 51
135.000000000001
  0
LINE
  5
114
330
17
100
AcDbEntity
  8
0
100
AcDbLine
 10
903.1500000000001
 20
523.3840620433568
 30
0.0
 11
903.1500000000001
 21
574.6159379566436
 31
0.0
  0
LINE
  5
115
330
17
100
AcDbEntity
  8
0
100
AcDbLine
 10
907.5340620433568
 20
579.0000000000003
 30
0.0
 11
916.4659379566435
 21
579.0000000000003
 31
0.0
  0
ARC
  5
116
330
17
100
AcDbEntity
  8
0
100
AcDbCircle
 10
905.3420310216784
 20
576.807968978322
 30
0.0
 40
3.1
100
AcDbArc
 50
44.99999999999903
 51
225.00000000000176
  0
ARC
  5
117
330
17
100
AcDbEntity
  8
0
100
AcDbCircle
 10
473.03296897832183
 20
446.1920310216787
 30
0.0
 40
3.1
100
AcDbArc
 50
-135.00000000000045
 51
44.99999999999832
  0
LINE
  5
118
330
17
100
AcDbEntity
  8
0
100
AcDbLine
 10
470.8409379566435
 20
444.0000000000004
 30
0.0
 11
461.90906204335676
 21
444.0000000000004
 31
0.0
  0
LINE
  5
119
330
17
100
AcDbEntity
  8
0
100
AcDbLine
 10
475.22500000000014
 20
499.61593795664373
 30
0.0
 11
475.22500000000014
 21
448.3840620433569
 31
0.0
  0
ARC
  5
11A
330
17
100
AcDbEntity
  8
0
100
AcDbCircle
 10
459.7170310216784
 20
446.1920310216787
 30
0.0
 40
3.1
100
AcDbArc
 50
135.00000000000168
 51
315.00000000000045
  0
ARC
  5
11B
330
17
100
AcDbEntity
  8
0
100
AcDbCircle
 10
473.03296897832183
 20
501.8079689783221
 30
0.0
 40
3.1
100
AcDbArc
 50
-45.00000000000175
 51
135.000000000001
  0
LINE
  5
11C
330
17
100
AcDbEntity
  8
0
100
AcDbLine
 10
457.5250000000001
 20
448.3840620433569
 30
0.0
 11
457.5250000000001
 21
499.61593795664373
 31
0.0
  0
LINE
  5
11D
330
17
100
AcDbEntity
  8
0
100
AcDbLine
 10
461.90906204335676
 20
504.0000000000004
 30
0.0
 11
470.8409379566435
 21
504.0000000000004
 31
0.0
  0
ARC
  5
11E
330
17
100
AcDbEntity
  8
0
100
AcDbCircle
 10
459.7170310216784
 20
501.8079689783221
 30
0.0
 40
3.1
100
AcDbArc
 50
44.99999999999903
 51
225.00000000000176
  0
ARC
  5
11F
330
17
100
AcDbEntity
  8
0
100
AcDbCircle
 10
473.03296897832183
 20
521.1920310216788
 30
0.0
 40
3.1
100
AcDbArc
 50
-135.00000000000045
 51
44.99999999999832
  0
LINE
  5
120
330
17
100
AcDbEntity
  8
0
100
AcDbLine
 10
470.84093795664353
 20
519.0000000000005
 30
0.0
 11
461.9090620433567
 21
519.0000000000005
 31
0.0
  0
LINE
  5
121
330
17
100
AcDbEntity
  8
0
100
AcDbLine
 10
475.22500000000014
 20
574.6159379566437
 30
0.0
 11
475.22500000000014
 21
523.3840620433568
 31
0.0
  0
ARC
  5
122
330
17
100
AcDbEntity
  8
0
100
AcDbCircle
 10
459.7170310216784
 20
521.1920310216788
 30
0.0
 40
3.1
100
AcDbArc
 50
135.00000000000168
 51
315.00000000000045
  0
ARC
  5
123
330
17
100
AcDbEntity
  8
0
100
AcDbCircle
 10
473.03296897832183
 20
576.8079689783222
 30
0.0
 40
3.1
100
AcDbArc
 50
-45.00000000000175
 51
135.000000000001
  0
LINE
  5
124
330
17
100
AcDbEntity
  8
0
100
AcDbLine
 10
457.5250000000001
 20
523.3840620433568
 30
0.0
 11
457.5250000000001
 21
574.6159379566437
 31
0.0
  0
LINE
  5
125
330
17
100
AcDbEntity
  8
0
100
AcDbLine
 10
461.9090620433568
 20
579.0000000000005
 30
0.0
 11
470.8409379566434
 21
579.0000000000005
 31
0.0
  0
ARC
  5
126
330
17
100
AcDbEntity
  8
0
100
AcDbCircle
 10
459.7170310216784
 20
576.8079689783222
 30
0.0
 40
3.1
100
AcDbArc
 50
44.99999999999903
 51
225.00000000000176
  0
LINE
  5
127
330
17
100
AcDbEntity
  8
0
100
AcDbLine
 10
29.5
 20
636.0000000000005
 30
0.0
 11
794.5
 21
636.0000000000005
 31
0.0
  0
LINE
  5
128
330
17
100
AcDbEntity
  8
0
100
AcDbLine
 10
794.5
 20
636.0000000000005
 30
0.0
 11
794.5
 21
681.1000000000004
 31
0.0
  0
LINE
  5
129
330
17
100
AcDbEntity
  8
0
100
AcDbLine
 10
794.5
 20
681.1000000000004
 30
0.0
 11
812.0
 21
681.1000000000004
 31
0.0
  0
LINE
  5
12A
330
17
100
AcDbEntity
  8
0
100
AcDbLine
 10
812.0
 20
681.1000000000004
 30
0.0
 11
812.0
 21
740.9000000000003
 31
0.0
  0
LINE
  5
12B
330
17
100
AcDbEntity
  8
0
100
AcDbLine
 10
812.0
 20
740.9000000000003
 30
0.0
 11
794.5
 21
740.9000000000003
 31
0.0
  0
LINE
  5
12C
330
17
100
AcDbEntity
  8
0
100
AcDbLine
 10
794.5
 20
740.9000000000004
 30
0.0
 11
794.5
 21
756.1000000000004
 31
0.0
  0
LINE
  5
12D
330
17
100
AcDbEntity
  8
0
100
AcDbLine
 10
794.5
 20
756.1000000000004
 30
0.0
 11
812.0
 21
756.1000000000004
 31
0.0
  0
LINE
  5
12E
330
17
100
AcDbEntity
  8
0
100
AcDbLine
 10
812.0
 20
756.1000000000004
 30
0.0
 11
812.0
 21
815.9000000000003
 31
0.0
  0
LINE
  5
12F
330
17
100
AcDbEntity
  8
0
100
AcDbLine
 10
812.0
 20
815.9000000000003
 30
0.0
 11
794.5
 21
815.9000000000003
 31
0.0
  0
LINE
  5
130
330
17
100
AcDbEntity
  8
0
100
AcDbLine
 10
794.5
 20
815.9000000000004
 30
0.0
 11
794.5
 21
831.1000000000004
 31
0.0
  0
LINE
  5
131
330
17
100
AcDbEntity
  8
0
100
AcDbLine
 10
794.5
 20
831.1000000000004
 30
0.0
 11
812.0
 21
831.1000000000004
 31
0.0
  0
LINE
  5
132
330
17
100
AcDbEntity
  8
0
100
AcDbLine
 10
812.0
 20
831.1000000000004
 30
0.0
 11
812.0
 21
890.9000000000003
 31
0.0
  0
LINE
  5
133
330
17
100
AcDbEntity
  8
0
100
AcDbLine
 10
812.0
 20
890.9000000000003
 30
0.0
 11
794.5
 21
890.9000000000003
 31
0.0
  0
LINE
  5
134
330
17
100
AcDbEntity
  8
0
100
AcDbLine
 10
794.5
 20
890.9000000000004
 30
0.0
 11
794.5
 21
936.0000000000005
 31
0.0
  0
LINE
  5
135
330
17
100
AcDbEntity
  8
0
100
AcDbLine
 10
794.5
 20
936.0000000000005
 30
0.0
 11
29.5
 21
936.0000000000005
 31
0.0
  0
LINE
  5
136
330
17
100
AcDbEntity
  8
0
100
AcDbLine
 10
29.5
 20
936.0000000000005
 30
0.0
 11
29.5
 21
890.9000000000005
 31
0.0
  0
LINE
  5
137
330
17
100
AcDbEntity
  8
0
100
AcDbLine
 10
29.5
 20
890.9000000000005
 30
0.0
 11
12.0
 21
890.9000000000005
 31
0.0
  0
LINE
  5
138
330
17
100
AcDbEntity
  8
0
100
AcDbLine
 10
12.0
 20
890.9000000000005
 30
0.0
 11
12.0
 21
831.1000000000006
 31
0.0
  0
LINE
  5
139
330
17
100
AcDbEntity
  8
0
100
AcDbLine
 10
12.0
 20
831.1000000000006
 30
0.0
 11
29.5
 21
831.1000000000006
 31
0.0
  0
LINE
  5
13A
330
17
100
AcDbEntity
  8
0
100
AcDbLine
 10
29.5
 20
831.1000000000005
 30
0.0
 11
29.5
 21
815.9000000000005
 31
0.0
  0
LINE
  5
13B
330
17
100
AcDbEntity
  8
0
100
AcDbLine
 10
29.5
 20
815.9000000000005
 30
0.0
 11
12.0
 21
815.9000000000005
 31
0.0
  0
LINE
  5
13C
330
17
100
AcDbEntity
  8
0
100
AcDbLine
 10
12.0
 20
815.9000000000005
 30
0.0
 11
12.0
 21
756.1000000000006
 31
0.0
  0
LINE
  5
13D
330
17
100
AcDbEntity
  8
0
100
AcDbLine
 10
12.0
 20
756.1000000000006
 30
0.0
 11
29.5
 21
756.1000000000006
 31
0.0
  0
LINE
  5
13E
330
17
100
AcDbEntity
  8
0
100
AcDbLine
 10
29.5
 20
756.1000000000005
 30
0.0
 11
29.5
 21
740.9000000000005
 31
0.0
  0
LINE
  5
13F
330
17
100
AcDbEntity
  8
0
100
AcDbLine
 10
29.5
 20
740.9000000000005
 30
0.0
 11
12.0
 21
740.9000000000005
 31
0.0
  0
LINE
  5
140
330
17
100
AcDbEntity
  8
0
100
AcDbLine
 10
12.0
 20
740.9000000000005
 30
0.0
 11
12.0
 21
681.1000000000006
 31
0.0
  0
LINE
  5
141
330
17
100
AcDbEntity
  8
0
100
AcDbLine
 10
12.0
 20
681.1000000000006
 30
0.0
 11
29.5
 21
681.1000000000006
 31
0.0
  0
LINE
  5
142
330
17
100
AcDbEntity
  8
0
100
AcDbLine
 10
29.5
 20
681.1000000000005
 30
0.0
 11
29.5
 21
636.0000000000005
 31
0.0
  0
LINE
  5
143
330
17
100
AcDbEntity
  8
0
100
AcDbLine
 10
841.5
 20
636.0000000000005
 30
0.0
 11
1606.5
 21
636.0000000000005
 31
0.0
  0
LINE
  5
144
330
17
100
AcDbEntity
  8
0
100
AcDbLine
 10
1606.5
 20
636.0000000000005
 30
0.0
 11
1606.5
 21
681.1000000000004
 31
0.0
  0
LINE
  5
145
330
17
100
AcDbEntity
  8
0
100
AcDbLine
 10
1606.5
 20
681.1000000000004
 30
0.0
 11
1624.0
 21
681.1000000000004
 31
0.0
  0
LINE
  5
146
330
17
100
AcDbEntity
  8
0
100
AcDbLine
 10
1624.0
 20
681.1000000000004
 30
0.0
 11
1624.0
 21
740.9000000000003
 31
0.0
  0
LINE
  5
147
330
17
100
AcDbEntity
  8
0
100
AcDbLine
 10
1624.0
 20
740.9000000000003
 30
0.0
 11
1606.5
 21
740.9000000000003
 31
0.0
  0
LINE
  5
148
330
17
100
AcDbEntity
  8
0
100
AcDbLine
 10
1606.5
 20
740.9000000000004
 30
0.0
 11
1606.5
 21
756.1000000000004
 31
0.0
  0
LINE
  5
149
330
17
100
AcDbEntity
  8
0
100
AcDbLine
 10
1606.5
 20
756.1000000000004
 30
0.0
 11
1624.0
 21
756.1000000000004
 31
0.0
  0
LINE
  5
14A
330
17
100
AcDbEntity
  8
0
100
AcDbLine
 10
1624.0
 20
756.1000000000004
 30
0.0
 11
1624.0
 21
815.9000000000003
 31
0.0
  0
LINE
  5
14B
330
17
100
AcDbEntity
  8
0
100
AcDbLine
 10
1624.0
 20
815.9000000000003
 30
0.0
 11
1606.5
 21
815.9000000000003
 31
0.0
  0
LINE
  5
14C
330
17
100
AcDbEntity
  8
0
100
AcDbLine
 10
1606.5
 20
815.9000000000004
 30
0.0
 11
1606.5
 21
831.1000000000004
 31
0.0
  0
LINE
  5
14D
330
17
100
AcDbEntity
  8
0
100
AcDbLine
 10
1606.5
 20
831.1000000000004
 30
0.0
 11
1624.0
 21
831.1000000000004
 31
0.0
  0
LINE
  5
14E
330
17
100
AcDbEntity
  8
0
100
AcDbLine
 10
1624.0
 20
831.1000000000004
 30
0.0
 11
1624.0
 21
890.9000000000003
 31
0.0
  0
LINE
  5
14F
330
17
100
AcDbEntity
  8
0
100
AcDbLine
 10
1624.0
 20
890.9000000000003
 30
0.0
 11
1606.5
 21
890.9000000000003
 31
0.0
  0
LINE
  5
150
330
17
100
AcDbEntity
  8
0
100
AcDbLine
 10
1606.5
 20
890.9000000000004
 30
0.0
 11
1606.5
 21
936.0000000000005
 31
0.0
  0
LINE
  5
151
330
17
100
AcDbEntity
  8
0
100
AcDbLine
 10
1606.5
 20
936.0000000000005
 30
0.0
 11
841.5
 21
936.0000000000005
 31
0.0
  0
LINE
  5
152
330
17
100
AcDbEntity
  8
0
100
AcDbLine
 10
841.5
 20
936.0000000000005
 30
0.0
 11
841.5
 21
890.9000000000005
 31
0.0
  0
LINE
  5
153
330
17
100
AcDbEntity
  8
0
100
AcDbLine
 10
841.5
 20
890.9000000000005
 30
0.0
 11
824.0
 21
890.9000000000005
 31
0.0
  0
LINE
  5
154
330
17
100
AcDbEntity
  8
0
100
AcDbLine
 10
824.0
 20
890.9000000000005
 30
0.0
 11
824.0
 21
831.1000000000006
 31
0.0
  0
LINE
  5
155
330
17
100
AcDbEntity
  8
0
100
AcDbLine
 10
824.0
 20
831.1000000000006
 30
0.0
 11
841.5
 21
831.1000000000006
 31
0.0
  0
LINE
  5
156
330
17
100
AcDbEntity
  8
0
100
AcDbLine
 10
841.5
 20
831.1000000000005
 30
0.0
 11
841.5
 21
815.9000000000005
 31
0.0
  0
LINE
  5
157
330
17
100
AcDbEntity
  8
0
100
AcDbLine
 10
841.5
 20
815.9000000000005
 30
0.0
 11
824.0
 21
815.9000000000005
 31
0.0
  0
LINE
  5
158
330
17
100
AcDbEntity
  8
0
100
AcDbLine
 10
824.0
 20
815.9000000000005
 30
0.0
 11
824.0
 21
756.1000000000006
 31
0.0
  0
LINE
  5
159
330
17
100
AcDbEntity
  8
0
100
AcDbLine
 10
824.0
 20
756.1000000000006
 30
0.0
 11
841.5
 21
756.1000000000006
 31
0.0
  0
LINE
  5
15A
330
17
100
AcDbEntity
  8
0
100
AcDbLine
 10
841.5
 20
756.1000000000005
 30
0.0
 11
841.5
 21
740.9000000000005
 31
0.0
  0
LINE
  5
15B
330
17
100
AcDbEntity
  8
0
100
AcDbLine
 10
841.5
 20
740.9000000000005
 30
0.0
 11
824.0
 21
740.9000000000005
 31
0.0
  0
LINE
  5
15C
330
17
100
AcDbEntity
  8
0
100
AcDbLine
 10
824.0
 20
740.9000000000005
 30
0.0
 11
824.0
 21
681.1000000000006
 31
0.0
  0
LINE
  5
15D
330
17
100
AcDbEntity
  8
0
100
AcDbLine
 10
824.0
 20
681.1000000000006
 30
0.0
 11
841.5
 21
681.1000000000006
 31
0.0
  0
LINE
  5
15E
330
17
100
AcDbEntity
  8
0
100
AcDbLine
 10
841.5
 20
681.1000000000005
 30
0.0
 11
841.5
 21
636.0000000000005
 31
0.0
  0
LINE
  5
15F
330
17
100
AcDbEntity
  8
0
100
AcDbLine
 10
1824.0000000000002
 20
794.5
 30
0.0
 11
1824.0000000000002
 21
29.5
 31
0.0
  0
LINE
  5
160
330
17
100
AcDbEntity
  8
0
100
AcDbLine
 10
1824.0000000000002
 20
29.5
 30
0.0
 11
1869.1000000000001
 21
29.5
 31
0.0
  0
LINE
  5
161
330
17
100
AcDbEntity
  8
0
100
AcDbLine
 10
1869.1000000000001
 20
29.5
 30
0.0
 11
1869.1000000000001
 21
12.0
 31
0.0
  0
LINE
  5
162
330
17
100
AcDbEntity
  8
0
100
AcDbLine
 10
1869.1000000000001
 20
12.0
 30
0.0
 11
1928.9000000000003
 21
12.0
 31
0.0
  0
LINE
  5
163
330
17
100
AcDbEntity
  8
0
100
AcDbLine
 10
1928.9000000000003
 20
12.0
 30
0.0
 11
1928.9000000000003
 21
29.5
 31
0.0
  0
LINE
  5
164
330
17
100
AcDbEntity
  8
0
100
AcDbLine
 10
1928.9000000000003
 20
29.5
 30
0.0
 11
1944.1000000000001
 21
29.5
 31
0.0
  0
LINE
  5
165
330
17
100
AcDbEntity
  8
0
100
AcDbLine
 10
1944.1000000000001
 20
29.5
 30
0.0
 11
1944.1000000000001
 21
12.0
 31
0.0
  0
LINE
  5
166
330
17
100
AcDbEntity
  8
0
100
AcDbLine
 10
1944.1000000000001
 20
12.0
 30
0.0
 11
2003.9000000000003
 21
12.0
 31
0.0
  0
LINE
  5
167
330
17
100
AcDbEntity
  8
0
100
AcDbLine
 10
2003.9000000000003
 20
12.0
 30
0.0
 11
2003.9000000000003
 21
29.5
 31
0.0
  0
LINE
  5
168
330
17
100
AcDbEntity
  8
0
100
AcDbLine
 10
2003.9000000000003
 20
29.5
 30
0.0
 11
2019.1000000000001
 21
29.5
 31
0.0
  0
LINE
  5
169
330
17
100
AcDbEntity
  8
0
100
AcDbLine
 10
2019.1
 20
29.5
 30
0.0
 11
2019.1
 21
12.0
 31
0.0
  0
LINE
  5
16A
330
17
100
AcDbEntity
  8
0
100
AcDbLine
 10
2019.1
 20
12.0
 30
0.0
 11
2078.9
 21
12.0
 31
0.0
  0
LINE
  5
16B
330
17
100
AcDbEntity
  8
0
100
AcDbLine
 10
2078.9
 20
12.0
 30
0.0
 11
2078.9
 21
29.5
 31
0.0
  0
LINE
  5
16C
330
17
100
AcDbEntity
  8
0
100
AcDbLine
 10
2078.9
 20
29.5
 30
0.0
 11
2124.0
 21
29.5
 31
0.0
  0
LINE
  5
16D
330
17
100
AcDbEntity
  8
0
100
AcDbLine
 10
2124.0
 20
29.5
 30
0.0
 11
2124.0
 21
794.5
 31
0.0
  0
LINE
  5
16E
330
17
100
AcDbEntity
  8
0
100
AcDbLine
 10
2124.0
 20
794.5
 30
0.0
 11
2078.9
 21
794.5
 31
0.0
  0
LINE
  5
16F
330
17
100
AcDbEntity
  8
0
100
AcDbLine
 10
2078.9
 20
794.5
 30
0.0
 11
2078.9
 21
812.0
 31
0.0
  0
LINE
  5
170
330
17
100
AcDbEntity
  8
0
100
AcDbLine
 10
2078.9
 20
812.0
 30
0.0
 11
2019.1
 21
812.0
 31
0.0
  0
LINE
  5
171
330
17
100
AcDbEntity
  8
0
100
AcDbLine
 10
2019.1
 20
812.0
 30
0.0
 11
2019.1
 21
794.5
 31
0.0
  0
LINE
  5
172
330
17
100
AcDbEntity
  8
0
100
AcDbLine
 10
2019.1000000000001
 20
794.5
 30
0.0
 11
2003.9000000000003
 21
794.5
 31
0.0
  0
LINE
  5
173
330
17
100
AcDbEntity
  8
0
100
AcDbLine
 10
2003.9000000000003
 20
794.5
 30
0.0
 11
2003.9000000000003
 21
812.0
 31
0.0
  0
LINE
  5
174
330
17
100
AcDbEntity
  8
0
100
AcDbLine
 10
2003.9000000000003
 20
812.0
 30
0.0
 11
1944.1000000000001
 21
812.0
 31
0.0
  0
LINE
  5
175
330
17
100
AcDbEntity
  8
0
100
AcDbLine
 10
1944.1000000000001
 20
812.0
 30
0.0
 11
1944.1000000000001
 21
794.5
 31
0.0
  0
LINE
  5
176
330
17
100
AcDbEntity
  8
0
100
AcDbLine
 10
1944.1000000000001
 20
794.5
 30
0.0
 11
1928.9000000000003
 21
794.5
 31
0.0
  0
LINE
  5
177
330
17
100
AcDbEntity
  8
0
100
AcDbLine
 10
1928.9000000000003
 20
794.5
 30
0.0
 11
1928.9000000000003
 21
812.0
 31
0.0
  0
LINE
  5
178
330
17
100
AcDbEntity
  8
0
100
AcDbLine
 10
1928.9000000000003
 20
812.0
 30
0.0
 11
1869.1000000000001
 21
812.0
 31
0.0
  0
LINE
  5
179
330
17
100
AcDbEntity
  8
0
100
AcDbLine
 10
1869.1000000000001
 20
812.0
 30
0.0
 11
1869.1000000000001
 21
794.5
 31
0.0
  0
LINE
  5
17A
330
17
100
AcDbEntity
  8
0
100
AcDbLine
 10
1869.1000000000001
 20
794.5
 30
0.0
 11
1824.0000000000002
 21
794.5
 31
0.0
  0
LINE
  5
17B
330
17
100
AcDbEntity
  8
0
100
AcDbLine
 10
2136.0
 20
794.5
 30
0.0
 11
2136.0
 21
29.5
 31
0.0
  0
LINE
  5
17C
330
17
100
AcDbEntity
  8
0
100
AcDbLine
 10
2136.0
 20
29.5
 30
0.0
 11
2181.1
 21
29.5
 31
0.0
  0
LINE
  5
17D
330
17
100
AcDbEntity
  8
0
100
AcDbLine
 10
2181.1
 20
29.5
 30
0.0
 11
2181.1
 21
12.0
 31
0.0
  0
LINE
  5
17E
330
17
100
AcDbEntity
  8
0
100
AcDbLine
 10
2181.1
 20
12.0
 30
0.0
 11
2240.9
 21
12.0
 31
0.0
  0
LINE
  5
17F
330
17
100
AcDbEntity
  8
0
100
AcDbLine
 10
2240.9
 20
12.0
 30
0.0
 11
2240.9
 21
29.5
 31
0.0
  0
LINE
  5
180
330
17
100
AcDbEntity
  8
0
100
AcDbLine
 10
2240.9
 20
29.5
 30
0.0
 11
2256.1
 21
29.5
 31
0.0
  0
LINE
  5
181
330
17
100
AcDbEntity
  8
0
100
AcDbLine
 10
2256.1
 20
29.5
 30
0.0
 11
2256.1
 21
12.0
 31
0.0
  0
LINE
  5
182
330
17
100
AcDbEntity
  8
0
100
AcDbLine
 10
2256.1
 20
12.0
 30
0.0
 11
2315.9
 21
12.0
 31
0.0
  0
LINE
  5
183
330
17
100
AcDbEntity
  8
0
100
AcDbLine
 10
2315.9
 20
12.0
 30
0.0
 11
2315.9
 21
29.5
 31
0.0
  0
LINE
  5
184
330
17
100
AcDbEntity
  8
0
100
AcDbLine
 10
2315.9
 20
29.5
 30
0.0
 11
2331.1
 21
29.5
 31
0.0
  0
LINE
  5
185
330
17
100
AcDbEntity
  8
0
100
AcDbLine
 10
2331.1
 20
29.5
 30
0.0
 11
2331.1
 21
12.0
 31
0.0
  0
LINE
  5
186
330
17
100
AcDbEntity
  8
0
100
AcDbLine
 10
2331.1
 20
12.0
 30
0.0
 11
2390.9
 21
12.0
 31
0.0
  0
LINE
  5
187
330
17
100
AcDbEntity
  8
0
100
AcDbLine
 10
2390.9
 20
12.0
 30
0.0
 11
2390.9
 21
29.5
 31
0.0
  0
LINE
  5
188
330
17
100
AcDbEntity
  8
0
100
AcDbLine
 10
2390.9
 20
29.5
 30
0.0
 11
2436.0
 21
29.5
 31
0.0
  0
LINE
  5
189
330
17
100
AcDbEntity
  8
0
100
AcDbLine
 10
2436.0
 20
29.5
 30
0.0
 11
2436.0
 21
794.5
 31
0.0
  0
LINE
  5
18A
330
17
100
AcDbEntity
  8
0
100
AcDbLine
 10
2436.0
 20
794.5
 30
0.0
 11
2390.9
 21
794.5
 31
0.0
  0
LINE
  5
18B
330
17
100
AcDbEntity
  8
0
100
AcDbLine
 10
2390.9
 20
794.5
 30
0.0
 11
2390.9
 21
812.0
 31
0.0
  0
LINE
  5
18C
330
17
100
AcDbEntity
  8
0
100
AcDbLine
 10
2390.9
 20
812.0
 30
0.0
 11
2331.1
 21
812.0
 31
0.0
  0
LINE
  5
18D
330
17
100
AcDbEntity
  8
0
100
AcDbLine
 10
2331.1
 20
812.0
 30
0.0
 11
2331.1
 21
794.5
 31
0.0
  0
LINE
  5
18E
330
17
100
AcDbEntity
  8
0
100
AcDbLine
 10
2331.1
 20
794.5
 30
0.0
 11
2315.9
 21
794.5
 31
0.0
  0
LINE
  5
18F
330
17
100
AcDbEntity
  8
0
100
AcDbLine
 10
2315.9
 20
794.5
 30
0.0
 11
2315.9
 21
812.0
 31
0.0
  0
LINE
  5
190
330
17
100
AcDbEntity
  8
0
100
AcDbLine
 10
2315.9
 20
812.0
 30
0.0
 11
2256.1
 21
812.0
 31
0.0
  0
LINE
  5
191
330
17
100
AcDbEntity
  8
0
100
AcDbLine
 10
2256.1
 20
812.0
 30
0.0
 11
2256.1
 21
794.5
 31
0.0
  0
LINE
  5
192
330
17
100
AcDbEntity
  8
0
100
AcDbLine
 10
2256.1
 20
794.5
 30
0.0
 11
2240.9
 21
794.5
 31
0.0
  0
LINE
  5
193
330
17
100
AcDbEntity
  8
0
100
AcDbLine
 10
2240.9
 20
794.5
 30
0.0
 11
2240.9
 21
812.0
 31
0.0
  0
LINE
  5
194
330
17
100
AcDbEntity
  8
0
100
AcDbLine
 10
2240.9
 20
812.0
 30
0.0
 11
2181.1
 21
812.0
 31
0.0
  0
LINE
  5
195
330
17
100
AcDbEntity
  8
0
100
AcDbLine
 10
2181.1
 20
812.0
 30
0.0
 11
2181.1
 21
794.5
 31
0.0
  0
LINE
  5
196
330
17
100
AcDbEntity
  8
0
100
AcDbLine
 10
2181.1
 20
794.5
 30
0.0
 11
2136.0
 21
794.5
 31
0.0
  0
LINE
  5
197
330
17
100
AcDbEntity
  8
0
100
AcDbLine
 10
2448.0
 20
794.5
 30
0.0
 11
2448.0
 21
29.5
 31
0.0
  0
LINE
  5
198
330
17
100
AcDbEntity
  8
0
100
AcDbLine
 10
2448.0
 20
29.5
 30
0.0
 11
2493.1
 21
29.5
 31
0.0
  0
LINE
  5
199
330
17
100
AcDbEntity
  8
0
100
AcDbLine
 10
2493.1
 20
29.5
 30
0.0
 11
2493.1
 21
12.0
 31
0.0
  0
LINE
  5
19A
330
17
100
AcDbEntity
  8
0
100
AcDbLine
 10
2493.1
 20
12.0
 30
0.0
 11
2552.9
 21
12.0
 31
0.0
  0
LINE
  5
19B
330
17
100
AcDbEntity
  8
0
100
AcDbLine
 10
2552.9
 20
12.0
 30
0.0
 11
2552.9
 21
29.5
 31
0.0
  0
LINE
  5
19C
330
17
100
AcDbEntity
  8
0
100
AcDbLine
 10
2552.9
 20
29.5
 30
0.0
 11
2568.1
 21
29.5
 31
0.0
  0
LINE
  5
19D
330
17
100
AcDbEntity
  8
0
100
AcDbLine
 10
2568.1
 20
29.5
 30
0.0
 11
2568.1
 21
12.0
 31
0.0
  0
LINE
  5
19E
330
17
100
AcDbEntity
  8
0
100
AcDbLine
 10
2568.1
 20
12.0
 30
0.0
 11
2627.9
 21
12.0
 31
0.0
  0
LINE
  5
19F
330
17
100
AcDbEntity
  8
0
100
AcDbLine
 10
2627.9
 20
12.0
 30
0.0
 11
2627.9
 21
29.5
 31
0.0
  0
LINE
  5
1A0
330
17
100
AcDbEntity
  8
0
100
AcDbLine
 10
2627.9
 20
29.5
 30
0.0
 11
2643.1
 21
29.5
 31
0.0
  0
LINE
  5
1A1
330
17
100
AcDbEntity
  8
0
100
AcDbLine
 10
2643.1
 20
29.5
 30
0.0
 11
2643.1
 21
12.0
 31
0.0
  0
LINE
  5
1A2
330
17
100
AcDbEntity
  8
0
100
AcDbLine
 10
2643.1
 20
12.0
 30
0.0
 11
2702.9
 21
12.0
 31
0.0
  0
LINE
  5
1A3
330
17
100
AcDbEntity
  8
0
100
AcDbLine
 10
2702.9
 20
12.0
 30
0.0
 11
2702.9
 21
29.5
 31
0.0
  0
LINE
  5
1A4
330
17
100
AcDbEntity
  8
0
100
AcDbLine
 10
2702.9
 20
29.5
 30
0.0
 11
2748.0
 21
29.5
 31
0.0
  0
LINE
  5
1A5
330
17
100
AcDbEntity
  8
0
100
AcDbLine
 10
2748.0
 20
29.5
 30
0.0
 11
2748.0
 21
794.5
 31
0.0
  0
LINE
  5
1A6
330
17
100
AcDbEntity
  8
0
100
AcDbLine
 10
2748.0
 20
794.5
 30
0.0
 11
2702.9
 21
794.5
 31
0.0
  0
LINE
  5
1A7
330
17
100
AcDbEntity
  8
0
100
AcDbLine
 10
2702.9
 20
794.5
 30
0.0
 11
2702.9
 21
812.0
 31
0.0
  0
LINE
  5
1A8
330
17
100
AcDbEntity
  8
0
100
AcDbLine
 10
2702.9
 20
812.0
 30
0.0
 11
2643.1
 21
812.0
 31
0.0
  0
LINE
  5
1A9
330
17
100
AcDbEntity
  8
0
100
AcDbLine
 10
2643.1
 20
812.0
 30
0.0
 11
2643.1
 21
794.5
 31
0.0
  0
LINE
  5
1AA
330
17
100
AcDbEntity
  8
0
100
AcDbLine
 10
2643.1
 20
794.5
 30
0.0
 11
2627.9
 21
794.5
 31
0.0
  0
LINE
  5
1AB
330
17
100
AcDbEntity
  8
0
100
AcDbLine
 10
2627.9
 20
794.5
 30
0.0
 11
2627.9
 21
812.0
 31
0.0
  0
LINE
  5
1AC
330
17
100
AcDbEntity
  8
0
100
AcDbLine
 10
2627.9
 20
812.0
 30
0.0
 11
2568.1
 21
812.0
 31
0.0
  0
LINE
  5
1AD
330
17
100
AcDbEntity
  8
0
100
AcDbLine
 10
2568.1
 20
812.0
 30
0.0
 11
2568.1
 21
794.5
 31
0.0
  0
LINE
  5
1AE
330
17
100
AcDbEntity
  8
0
100
AcDbLine
 10
2568.1
 20
794.5
 30
0.0
 11
2552.9
 21
794.5
 31
0.0
  0
LINE
  5
1AF
330
17
100
AcDbEntity
  8
0
100
AcDbLine
 10
2552.9
 20
794.5
 30
0.0
 11
2552.9
 21
812.0
 31
0.0
  0
LINE
  5
1B0
330
17
100
AcDbEntity
  8
0
100
AcDbLine
 10
2552.9
 20
812.0
 30
0.0
 11
2493.1
 21
812.0
 31
0.0
  0
LINE
  5
1B1
330
17
100
AcDbEntity
  8
0
100
AcDbLine
 10
2493.1
 20
812.0
 30
0.0
 11
2493.1
 21
794.5
 31
0.0
  0
LINE
  5
1B2
330
17
100
AcDbEntity
  8
0
100
AcDbLine
 10
2493.1
 20
794.5
 30
0.0
 11
2448.0
 21
794.5
 31
0.0
  0
LINE
  5
1B3
330
17
100
AcDbEntity
  8
0
100
AcDbLine
 10
1824.0
 20
914.0
 30
0.0
 11
1824.0
 21
824.0
 31
0.0
  0
LINE
  5
1B4
330
17
100
AcDbEntity
  8
0
100
AcDbLine
 10
1824.0
 20
824.0
 30
0.0
 11
2589.0
 21
824.0
 31
0.0
  0
LINE
  5
1B5
330
17
100
AcDbEntity
  8
0
100
AcDbLine
 10
2589.0
 20
824.0
 30
0.0
 11
2589.0
 21
914.0
 31
0.0
  0
LINE
  5
1B6
330
17
100
AcDbEntity
  8
0
100
AcDbLine
 10
2589.0
 20
914.0
 30
0.0
 11
1824.0
 21
914.0
 31
0.0
  0
LINE
  5
1B7
330
17
100
AcDbEntity
  8
0
100
AcDbLine
 10
1824.0
 20
1016.0
 30
0.0
 11
1824.0
 21
926.0
 31
0.0
  0
LINE
  5
1B8
330
17
100
AcDbEntity
  8
0
100
AcDbLine
 10
1824.0
 20
926.0
 30
0.0
 11
2589.0
 21
926.0
 31
0.0
  0
LINE
  5
1B9
330
17
100
AcDbEntity
  8
0
100
AcDbLine
 10
2589.0
 20
926.0
 30
0.0
 11
2589.0
 21
1016.0
 31
0.0
  0
LINE
  5
1BA
330
17
100
AcDbEntity
  8
0
100
AcDbLine
 10
2589.0
 20
1016.0
 30
0.0
 11
1824.0
 21
1016.0
 31
0.0
  0
ENDSEC
  0
SECTION
  2
OBJECTS
  0
DICTIONARY
  5
A
330
0
100
AcDbDictionary
281
1
  3
ACAD_COLOR
350
B
  3
ACAD_GROUP
350
C
  3
ACAD_LAYOUT
350
D
  3
ACAD_MATERIAL
350
E
  3
ACAD_MLEADERSTYLE
350
F
  3
ACAD_MLINESTYLE
350
10
  3
ACAD_PLOTSETTINGS
350
11
  3
ACAD_PLOTSTYLENAME
350
12
  3
ACAD_SCALELIST
350
14
  3
ACAD_TABLESTYLE
350
15
  3
ACAD_VISUALSTYLE
350
16
  3
EZDXF_META
350
2D
  0
DICTIONARY
  5
B
330
A
100
AcDbDictionary
281
1
  0
DICTIONARY
  5
C
330
A
100
AcDbDictionary
281
1
  0
DICTIONARY
  5
D
330
A
100
AcDbDictionary
281
1
  3
Model
350
1A
  3
Layout1
350
1E
  0
DICTIONARY
  5
E
330
A
100
AcDbDictionary
281
1
  3
ByBlock
350
1F
  3
ByLayer
350
20
  3
Global
350
21
  0
DICTIONARY
  5
F
330
A
100
AcDbDictionary
281
1
  3
Standard
350
2C
  0
DICTIONARY
  5
10
330
A
100
AcDbDictionary
281
1
  3
Standard
350
22
  0
DICTIONARY
  5
11
330
A
100
AcDbDictionary
281
1
  0
ACDBDICTIONARYWDFLT
  5
12
330
A
100
AcDbDictionary
281
1
  3
Normal
350
13
100
AcDbDictionaryWithDefault
340
13
  0
ACDBPLACEHOLDER
  5
13
330
12
  0
DICTIONARY
  5
14
330
A
100
AcDbDictionary
281
1
  0
DICTIONARY
  5
15
330
A
100
AcDbDictionary
281
1
  0
DICTIONARY
  5
16
330
A
100
AcDbDictionary
281
1
  0
LAYOUT
  5
1A
330
D
100
AcDbPlotSettings
  1

  4
A3
  6

 40
7.5
 41
20.0
 42
7.5
 43
20.0
 44
420.0
 45
297.0
 46
0.0
 47
0.0
 48
0.0
 49
0.0
140
0.0
141
0.0
142
1.0
143
1.0
 70
1024
 72
1
 73
0
 74
5
  7

 75
16
 76
0
 77
2
 78
300
147
1.0
148
0.0
149
0.0
100
AcDbLayout
  1
Model
 70
1
 71
0
 10
0.0
 20
0.0
 11
420.0
 21
297.0
 12
0.0
 22
0.0
 32
0.0
 14
1e+20
 24
1e+20
 34
1e+20
 15
-1e+20
 25
-1e+20
 35
-1e+20
146
0.0
 13
0.0
 23
0.0
 33
0.0
 16
1.0
 26
0.0
 36
0.0
 17
0.0
 27
1.0
 37
0.0
 76
1
330
17
  0
LAYOUT
  5
1E
330
D
100
AcDbPlotSettings
  1

  4
A3
  6

 40
7.5
 41
20.0
 42
7.5
 43
20.0
 44
420.0
 45
297.0
 46
0.0
 47
0.0
 48
0.0
 49
0.0
140
0.0
141
0.0
142
1.0
143
1.0
 70
0
 72
1
 73
0
 74
5
  7

 75
16
 76
0
 77
2
 78
300
147
1.0
148
0.0
149
0.0
100
AcDbLayout
  1
Layout1
 70
1
 71
1
 10
0.0
 20
0.0
 11
420.0
 21
297.0
 12
0.0
 22
0.0
 32
0.0
 14
1e+20
 24
1e+20
 34
1e+20
 15
-1e+20
 25
-1e+20
 35
-1e+20
146
0.0
 13
0.0
 23
0.0
 33
0.0
 16
1.0
 26
0.0
 36
0.0
 17
0.0
 27
1.0
 37
0.0
 76
1
330
1B
  0
MATERIAL
  5
1F
102
{ACAD_REACTORS
330
E
102
}
330
E
100
AcDbMaterial
  1
ByBlock
  2

 70
0
 40
1.0
 71
1
 41
1.0
 91
-1023410177
 42
1.0
 72
1
  3

 73
1
 74
1
 75
1
 44
0.5
 73
0
 45
1.0
 46
1.0
 77
1
  4

 78
1
 79
1
170
1
 48
1.0
171
1
  6

172
1
173
1
174
1
140
1.0
141
1.0
175
1
  7

176
1
177
1
178
1
143
1.0
179
1
  8

270
1
271
1
272
1
145
1.0
146
1.0
273
1
  9

274
1
275
1
276
1
 42
1.0
 72
1
  3

 73
1
 74
1
 75
1
 94
63
  0
MATERIAL
  5
20
102
{ACAD_REACTORS
330
E
102
}
330
E
100
AcDbMaterial
  1
ByLayer
  2

 70
0
 40
1.0
 71
1
 41
1.0
 91
-1023410177
 42
1.0
 72
1
  3

 73
1
 74
1
 75
1
 44
0.5
 73
0
 45
1.0
 46
1.0
 77
1
  4

 78
1
 79
1
170
1
 48
1.0
171
1
  6

172
1
173
1
174
1
140
1.0
141
1.0
175
1
  7

176
1
177
1
178
1
143
1.0
179
1
  8

270
1
271
1
272
1
145
1.0
146
1.0
273
1
  9

274
1
275
1
276
1
 42
1.0
 72
1
  3

 73
1
 74
1
 75
1
 94
63
  0
MATERIAL
  5
21
102
{ACAD_REACTORS
330
E
102
}
330
E
100
AcDbMaterial
  1
Global
  2

 70
0
 40
1.0
 71
1
 41
1.0
 91
-1023410177
 42
1.0
 72
1
  3

 73
1
 74
1
 75
1
 44
0.5
 73
0
 45
1.0
 46
1.0
 77
1
  4

 78
1
 79
1
170
1
 48
1.0
171
1
  6

172
1
173
1
174
1
140
1.0
141
1.0
175
1
  7

176
1
177
1
178
1
143
1.0
179
1
  8

270
1
271
1
272
1
145
1.0
146
1.0
273
1
  9

274
1
275
1
276
1
 42
1.0
 72
1
  3

 73
1
 74
1
 75
1
 94
63
  0
MLINESTYLE
  5
22
102
{ACAD_REACTORS
330
10
102
}
330
10
100
AcDbMlineStyle
  2
Standard
 70
0
  3

 62
256
 51
90.0
 52
90.0
 71
2
 49
0.5
 62
256
  6
BYLAYER
 49
-0.5
 62
256
  6
BYLAYER
  0
MLEADERSTYLE
  5
2C
102
{ACAD_REACTORS
330
F
102
}
330
F
100
AcDbMLeaderStyle
179
2
170
2
171
1
172
0
 90
2
 40
0.0
 41
0.0
173
1
 91
-1056964608
 92
-2
290
1
 42
2.0
291
1
 43
8.0
  3
Standard
 44
4.0
300

342
29
174
1
175
1
176
0
178
1
 93
-1056964608
 45
4.0
292
0
297
0
 46
4.0
 94
-1056964608
 47
1.0
 49
1.0
140
1.0
294
1
141
0.0
177
0
142
1.0
295
0
296
0
143
3.75
271
0
272
9
273
9
  0
DICTIONARY
  5
2D
330
A
100
AcDbDictionary
280
1
281
1
  3
CREATED_BY_EZDXF
350
2E
  3
WRITTEN_BY_EZDXF
350
1BE
  0
DICTIONARYVAR
  5
2E
330
2D
100
DictionaryVariables
280
0
  1
1.4.4 @ 2026-06-08T04:20:16.746471+00:00
  0
DICTIONARYVAR
  5
1BE
330
2D
100
DictionaryVariables
280
0
  1
1.4.4 @ 2026-06-08T04:20:16.762878+00:00
  0
ENDSEC
  0
EOF
