<svg xmlns="http://www.w3.org/2000/svg" viewBox="0 0 378 539" width="378" height="539" font-family="ui-sans-serif,system-ui,sans-serif">
<rect width="378" height="539" fill="white"/>
<line x1="165.6" y1="58.9" x2="198.4" y2="43.5" stroke="#9a9aa0" stroke-width="0.8" stroke-dasharray="3 3" stroke-linecap="round"/>
<line x1="198.4" y1="43.5" x2="284.8" y2="84.0" stroke="#9a9aa0" stroke-width="0.8" stroke-dasharray="3 3" stroke-linecap="round"/>
<line x1="252.0" y1="99.4" x2="284.8" y2="84.0" stroke="#9a9aa0" stroke-width="0.8" stroke-dasharray="3 3" stroke-linecap="round"/>
<line x1="165.6" y1="110.0" x2="198.4" y2="94.6" stroke="#9a9aa0" stroke-width="0.8" stroke-dasharray="3 3" stroke-linecap="round"/>
<line x1="198.4" y1="125.4" x2="198.4" y2="94.6" stroke="#9a9aa0" stroke-width="0.8" stroke-dasharray="3 3" stroke-linecap="round"/>
<line x1="198.4" y1="74.2" x2="198.4" y2="43.5" stroke="#9a9aa0" stroke-width="0.8" stroke-dasharray="3 3" stroke-linecap="round"/>
<line x1="252.0" y1="167.1" x2="284.8" y2="182.5" stroke="#9a9aa0" stroke-width="0.8" stroke-dasharray="3 3" stroke-linecap="round"/>
<line x1="252.0" y1="197.8" x2="284.8" y2="182.5" stroke="#9a9aa0" stroke-width="0.8" stroke-dasharray="3 3" stroke-linecap="round"/>
<line x1="252.0" y1="150.5" x2="284.8" y2="135.1" stroke="#9a9aa0" stroke-width="0.8" stroke-dasharray="3 3" stroke-linecap="round"/>
<line x1="284.8" y1="182.5" x2="284.8" y2="135.1" stroke="#9a9aa0" stroke-width="0.8" stroke-dasharray="3 3" stroke-linecap="round"/>
<line x1="284.8" y1="132.6" x2="284.8" y2="84.0" stroke="#9a9aa0" stroke-width="0.8" stroke-dasharray="3 3" stroke-linecap="round"/>
<line x1="252.0" y1="148.0" x2="284.8" y2="132.6" stroke="#9a9aa0" stroke-width="0.8" stroke-dasharray="3 3" stroke-linecap="round"/>
<line x1="165.6" y1="159.9" x2="198.4" y2="144.5" stroke="#9a9aa0" stroke-width="0.8" stroke-dasharray="3 3" stroke-linecap="round"/>
<line x1="198.4" y1="175.3" x2="198.4" y2="144.5" stroke="#9a9aa0" stroke-width="0.8" stroke-dasharray="3 3" stroke-linecap="round"/>
<line x1="252.0" y1="217.0" x2="284.8" y2="232.3" stroke="#9a9aa0" stroke-width="0.8" stroke-dasharray="3 3" stroke-linecap="round"/>
<line x1="252.0" y1="247.7" x2="284.8" y2="232.3" stroke="#9a9aa0" stroke-width="0.8" stroke-dasharray="3 3" stroke-linecap="round"/>
<line x1="252.0" y1="200.4" x2="284.8" y2="185.0" stroke="#9a9aa0" stroke-width="0.8" stroke-dasharray="3 3" stroke-linecap="round"/>
<line x1="284.8" y1="232.3" x2="284.8" y2="185.0" stroke="#9a9aa0" stroke-width="0.8" stroke-dasharray="3 3" stroke-linecap="round"/>
<line x1="198.4" y1="144.5" x2="284.8" y2="185.0" stroke="#9a9aa0" stroke-width="0.8" stroke-dasharray="3 3" stroke-linecap="round"/>
<line x1="165.6" y1="209.8" x2="198.4" y2="194.4" stroke="#9a9aa0" stroke-width="0.8" stroke-dasharray="3 3" stroke-linecap="round"/>
<line x1="198.4" y1="225.1" x2="198.4" y2="194.4" stroke="#9a9aa0" stroke-width="0.8" stroke-dasharray="3 3" stroke-linecap="round"/>
<line x1="252.0" y1="266.8" x2="284.8" y2="282.2" stroke="#9a9aa0" stroke-width="0.8" stroke-dasharray="3 3" stroke-linecap="round"/>
<line x1="252.0" y1="297.6" x2="284.8" y2="282.2" stroke="#9a9aa0" stroke-width="0.8" stroke-dasharray="3 3" stroke-linecap="round"/>
<line x1="252.0" y1="250.2" x2="284.8" y2="234.9" stroke="#9a9aa0" stroke-width="0.8" stroke-dasharray="3 3" stroke-linecap="round"/>
<line x1="284.8" y1="282.2" x2="284.8" y2="234.9" stroke="#9a9aa0" stroke-width="0.8" stroke-dasharray="3 3" stroke-linecap="round"/>
<line x1="198.4" y1="194.4" x2="284.8" y2="234.9" stroke="#9a9aa0" stroke-width="0.8" stroke-dasharray="3 3" stroke-linecap="round"/>
<line x1="165.6" y1="259.6" x2="198.4" y2="244.2" stroke="#9a9aa0" stroke-width="0.8" stroke-dasharray="3 3" stroke-linecap="round"/>
<line x1="198.4" y1="275.0" x2="198.4" y2="244.2" stroke="#9a9aa0" stroke-width="0.8" stroke-dasharray="3 3" stroke-linecap="round"/>
<line x1="252.0" y1="318.0" x2="284.8" y2="333.3" stroke="#9a9aa0" stroke-width="0.8" stroke-dasharray="3 3" stroke-linecap="round"/>
<line x1="252.0" y1="348.7" x2="284.8" y2="333.3" stroke="#9a9aa0" stroke-width="0.8" stroke-dasharray="3 3" stroke-linecap="round"/>
<line x1="252.0" y1="300.1" x2="284.8" y2="284.7" stroke="#9a9aa0" stroke-width="0.8" stroke-dasharray="3 3" stroke-linecap="round"/>
<line x1="284.8" y1="333.3" x2="284.8" y2="284.7" stroke="#9a9aa0" stroke-width="0.8" stroke-dasharray="3 3" stroke-linecap="round"/>
<line x1="198.4" y1="244.2" x2="284.8" y2="284.7" stroke="#9a9aa0" stroke-width="0.8" stroke-dasharray="3 3" stroke-linecap="round"/>
<line x1="286.9" y1="336.8" x2="196.4" y2="294.4" stroke="#9a9aa0" stroke-width="0.8" stroke-dasharray="3 3" stroke-linecap="round"/>
<line x1="163.5" y1="309.8" x2="196.4" y2="294.4" stroke="#9a9aa0" stroke-width="0.8" stroke-dasharray="3 3" stroke-linecap="round"/>
<line x1="196.4" y1="294.4" x2="196.4" y2="40.0" stroke="#9a9aa0" stroke-width="0.8" stroke-dasharray="3 3" stroke-linecap="round"/>
<line x1="252.0" y1="117.2" x2="284.8" y2="132.6" stroke="#9a9aa0" stroke-width="0.8" stroke-dasharray="3 3" stroke-linecap="round"/>
<line x1="198.4" y1="94.6" x2="284.8" y2="135.1" stroke="#9a9aa0" stroke-width="0.8" stroke-dasharray="3 3" stroke-linecap="round"/>
<line x1="165.6" y1="58.9" x2="252.0" y2="99.4" stroke="#1d1d1f" stroke-width="1.5" stroke-linecap="round"/>
<line x1="165.6" y1="107.5" x2="165.6" y2="58.9" stroke="#1d1d1f" stroke-width="1.5" stroke-linecap="round"/>
<line x1="165.6" y1="107.5" x2="252.0" y2="148.0" stroke="#1d1d1f" stroke-width="1.5" stroke-linecap="round"/>
<line x1="252.0" y1="148.0" x2="252.0" y2="99.4" stroke="#1d1d1f" stroke-width="1.5" stroke-linecap="round"/>
<line x1="165.6" y1="157.3" x2="165.6" y2="110.0" stroke="#1d1d1f" stroke-width="1.5" stroke-linecap="round"/>
<line x1="165.6" y1="157.3" x2="252.0" y2="197.8" stroke="#1d1d1f" stroke-width="1.5" stroke-linecap="round"/>
<line x1="252.0" y1="197.8" x2="252.0" y2="150.5" stroke="#1d1d1f" stroke-width="1.5" stroke-linecap="round"/>
<line x1="165.6" y1="110.0" x2="252.0" y2="150.5" stroke="#1d1d1f" stroke-width="1.5" stroke-linecap="round"/>
<line x1="165.6" y1="207.2" x2="165.6" y2="159.9" stroke="#1d1d1f" stroke-width="1.5" stroke-linecap="round"/>
<line x1="165.6" y1="207.2" x2="252.0" y2="247.7" stroke="#1d1d1f" stroke-width="1.5" stroke-linecap="round"/>
<line x1="252.0" y1="247.7" x2="252.0" y2="200.4" stroke="#1d1d1f" stroke-width="1.5" stroke-linecap="round"/>
<line x1="165.6" y1="159.9" x2="252.0" y2="200.4" stroke="#1d1d1f" stroke-width="1.5" stroke-linecap="round"/>
<line x1="165.6" y1="257.1" x2="165.6" y2="209.8" stroke="#1d1d1f" stroke-width="1.5" stroke-linecap="round"/>
<line x1="165.6" y1="257.1" x2="252.0" y2="297.6" stroke="#1d1d1f" stroke-width="1.5" stroke-linecap="round"/>
<line x1="252.0" y1="297.6" x2="252.0" y2="250.2" stroke="#1d1d1f" stroke-width="1.5" stroke-linecap="round"/>
<line x1="165.6" y1="209.8" x2="252.0" y2="250.2" stroke="#1d1d1f" stroke-width="1.5" stroke-linecap="round"/>
<line x1="165.6" y1="308.2" x2="165.6" y2="259.6" stroke="#1d1d1f" stroke-width="1.5" stroke-linecap="round"/>
<line x1="165.6" y1="308.2" x2="252.0" y2="348.7" stroke="#1d1d1f" stroke-width="1.5" stroke-linecap="round"/>
<line x1="252.0" y1="348.7" x2="252.0" y2="300.1" stroke="#1d1d1f" stroke-width="1.5" stroke-linecap="round"/>
<line x1="165.6" y1="259.6" x2="252.0" y2="300.1" stroke="#1d1d1f" stroke-width="1.5" stroke-linecap="round"/>
<line x1="254.1" y1="97.8" x2="163.5" y2="55.4" stroke="#1d1d1f" stroke-width="1.5" stroke-linecap="round"/>
<line x1="254.1" y1="352.2" x2="254.1" y2="97.8" stroke="#1d1d1f" stroke-width="1.5" stroke-linecap="round"/>
<line x1="163.5" y1="309.8" x2="254.1" y2="352.2" stroke="#1d1d1f" stroke-width="1.5" stroke-linecap="round"/>
<line x1="163.5" y1="309.8" x2="163.5" y2="55.4" stroke="#1d1d1f" stroke-width="1.5" stroke-linecap="round"/>
<line x1="198.4" y1="142.0" x2="198.4" y2="125.4" stroke="#1d1d1f" stroke-width="1.5" stroke-linecap="round"/>
<line x1="165.6" y1="157.3" x2="198.4" y2="142.0" stroke="#1d1d1f" stroke-width="1.5" stroke-linecap="round"/>
<line x1="198.4" y1="92.1" x2="198.4" y2="74.2" stroke="#1d1d1f" stroke-width="1.5" stroke-linecap="round"/>
<line x1="165.6" y1="107.5" x2="198.4" y2="92.1" stroke="#1d1d1f" stroke-width="1.5" stroke-linecap="round"/>
<line x1="198.4" y1="142.0" x2="252.0" y2="167.1" stroke="#1d1d1f" stroke-width="1.5" stroke-linecap="round"/>
<line x1="198.4" y1="191.8" x2="198.4" y2="175.3" stroke="#1d1d1f" stroke-width="1.5" stroke-linecap="round"/>
<line x1="165.6" y1="207.2" x2="198.4" y2="191.8" stroke="#1d1d1f" stroke-width="1.5" stroke-linecap="round"/>
<line x1="198.4" y1="191.8" x2="252.0" y2="217.0" stroke="#1d1d1f" stroke-width="1.5" stroke-linecap="round"/>
<line x1="198.4" y1="241.7" x2="198.4" y2="225.1" stroke="#1d1d1f" stroke-width="1.5" stroke-linecap="round"/>
<line x1="165.6" y1="257.1" x2="198.4" y2="241.7" stroke="#1d1d1f" stroke-width="1.5" stroke-linecap="round"/>
<line x1="198.4" y1="241.7" x2="252.0" y2="266.8" stroke="#1d1d1f" stroke-width="1.5" stroke-linecap="round"/>
<line x1="198.4" y1="292.8" x2="198.4" y2="275.0" stroke="#1d1d1f" stroke-width="1.5" stroke-linecap="round"/>
<line x1="165.6" y1="308.2" x2="198.4" y2="292.8" stroke="#1d1d1f" stroke-width="1.5" stroke-linecap="round"/>
<line x1="198.4" y1="292.8" x2="252.0" y2="318.0" stroke="#1d1d1f" stroke-width="1.5" stroke-linecap="round"/>
<line x1="163.5" y1="55.4" x2="196.4" y2="40.0" stroke="#1d1d1f" stroke-width="1.5" stroke-linecap="round"/>
<line x1="254.1" y1="97.8" x2="286.9" y2="82.4" stroke="#1d1d1f" stroke-width="1.5" stroke-linecap="round"/>
<line x1="286.9" y1="82.4" x2="196.4" y2="40.0" stroke="#1d1d1f" stroke-width="1.5" stroke-linecap="round"/>
<line x1="286.9" y1="336.8" x2="286.9" y2="82.4" stroke="#1d1d1f" stroke-width="1.5" stroke-linecap="round"/>
<line x1="254.1" y1="352.2" x2="286.9" y2="336.8" stroke="#1d1d1f" stroke-width="1.5" stroke-linecap="round"/>
<line x1="198.4" y1="92.1" x2="252.0" y2="117.2" stroke="#1d1d1f" stroke-width="1.5" stroke-linecap="round"/>
<line x1="163.5" y1="309.8" x2="91.1" y2="309.8" stroke="#9a9aa0" stroke-width="0.9" stroke-dasharray="1 3" stroke-linecap="round"/>
<line x1="163.5" y1="55.4" x2="91.1" y2="55.4" stroke="#9a9aa0" stroke-width="0.9" stroke-dasharray="1 3" stroke-linecap="round"/>
<line x1="163.5" y1="309.8" x2="163.5" y2="360.7" stroke="#9a9aa0" stroke-width="0.9" stroke-dasharray="1 3" stroke-linecap="round"/>
<line x1="254.1" y1="352.2" x2="254.1" y2="403.1" stroke="#9a9aa0" stroke-width="0.9" stroke-dasharray="1 3" stroke-linecap="round"/>
<line x1="254.1" y1="352.2" x2="254.1" y2="403.1" stroke="#9a9aa0" stroke-width="0.9" stroke-dasharray="1 3" stroke-linecap="round"/>
<line x1="286.9" y1="336.8" x2="286.9" y2="387.7" stroke="#9a9aa0" stroke-width="0.9" stroke-dasharray="1 3" stroke-linecap="round"/>
<line x1="91.1" y1="309.8" x2="91.1" y2="55.4" stroke="#9a9aa0" stroke-width="1.1" stroke-dasharray="1 3" stroke-linecap="round"/>
<line x1="163.5" y1="360.7" x2="254.1" y2="403.1" stroke="#9a9aa0" stroke-width="1.1" stroke-dasharray="1 3" stroke-linecap="round"/>
<line x1="254.1" y1="403.1" x2="286.9" y2="387.7" stroke="#9a9aa0" stroke-width="1.1" stroke-dasharray="1 3" stroke-linecap="round"/>
<text x="79.1" y="182.6" font-size="15" font-weight="600" fill="#1d1d1f" text-anchor="middle" dominant-baseline="middle" transform="rotate(-90 79.1 182.6)">1800 mm</text>
<text x="194.8" y="397.9" font-size="15" font-weight="600" fill="#1d1d1f" text-anchor="middle" dominant-baseline="middle">800 mm</text>
<text x="284.5" y="411.4" font-size="15" font-weight="600" fill="#1d1d1f" text-anchor="middle" dominant-baseline="middle">290 mm</text>
<text x="189.0" y="489" font-size="17" font-weight="700" fill="#1d1d1f" text-anchor="middle">Freestanding bookshelf</text>
<text x="189.0" y="511" font-size="13" fill="#6b6b70" text-anchor="middle">4 shelves · 18 mm plywood · nests on one 8×4 sheet</text>
</svg>