<svg xmlns="http://www.w3.org/2000/svg" viewBox="0 0 514 603" width="514" height="603" font-family="ui-sans-serif,-apple-system,system-ui,sans-serif">
<rect width="514" height="603" fill="white"/>
<line x1="236.9" y1="79.4" x2="270.8" y2="63.5" stroke="#b8b8be" stroke-width="0.8" stroke-dasharray="3 3"/>
<line x1="270.8" y1="63.5" x2="357.3" y2="104.0" stroke="#b8b8be" stroke-width="0.8" stroke-dasharray="3 3"/>
<line x1="323.3" y1="119.9" x2="357.3" y2="104.0" stroke="#b8b8be" stroke-width="0.8" stroke-dasharray="3 3"/>
<line x1="236.9" y1="130.5" x2="270.8" y2="114.6" stroke="#b8b8be" stroke-width="0.8" stroke-dasharray="3 3"/>
<line x1="270.8" y1="146.4" x2="270.8" y2="114.6" stroke="#b8b8be" stroke-width="0.8" stroke-dasharray="3 3"/>
<line x1="270.8" y1="95.3" x2="270.8" y2="63.5" stroke="#b8b8be" stroke-width="0.8" stroke-dasharray="3 3"/>
<line x1="323.3" y1="186.6" x2="357.3" y2="202.5" stroke="#b8b8be" stroke-width="0.8" stroke-dasharray="3 3"/>
<line x1="323.3" y1="218.4" x2="357.3" y2="202.5" stroke="#b8b8be" stroke-width="0.8" stroke-dasharray="3 3"/>
<line x1="323.3" y1="171.0" x2="357.3" y2="155.1" stroke="#b8b8be" stroke-width="0.8" stroke-dasharray="3 3"/>
<line x1="357.3" y1="202.5" x2="357.3" y2="155.1" stroke="#b8b8be" stroke-width="0.8" stroke-dasharray="3 3"/>
<line x1="357.3" y1="152.6" x2="357.3" y2="104.0" stroke="#b8b8be" stroke-width="0.8" stroke-dasharray="3 3"/>
<line x1="323.3" y1="168.5" x2="357.3" y2="152.6" stroke="#b8b8be" stroke-width="0.8" stroke-dasharray="3 3"/>
<line x1="236.9" y1="180.4" x2="270.8" y2="164.5" stroke="#b8b8be" stroke-width="0.8" stroke-dasharray="3 3"/>
<line x1="270.8" y1="196.3" x2="270.8" y2="164.5" stroke="#b8b8be" stroke-width="0.8" stroke-dasharray="3 3"/>
<line x1="323.3" y1="236.4" x2="357.3" y2="252.3" stroke="#b8b8be" stroke-width="0.8" stroke-dasharray="3 3"/>
<line x1="323.3" y1="268.2" x2="357.3" y2="252.3" stroke="#b8b8be" stroke-width="0.8" stroke-dasharray="3 3"/>
<line x1="323.3" y1="220.9" x2="357.3" y2="205.0" stroke="#b8b8be" stroke-width="0.8" stroke-dasharray="3 3"/>
<line x1="357.3" y1="252.3" x2="357.3" y2="205.0" stroke="#b8b8be" stroke-width="0.8" stroke-dasharray="3 3"/>
<line x1="270.8" y1="164.5" x2="357.3" y2="205.0" stroke="#b8b8be" stroke-width="0.8" stroke-dasharray="3 3"/>
<line x1="236.9" y1="230.3" x2="270.8" y2="214.4" stroke="#b8b8be" stroke-width="0.8" stroke-dasharray="3 3"/>
<line x1="270.8" y1="246.2" x2="270.8" y2="214.4" stroke="#b8b8be" stroke-width="0.8" stroke-dasharray="3 3"/>
<line x1="323.3" y1="286.3" x2="357.3" y2="302.2" stroke="#b8b8be" stroke-width="0.8" stroke-dasharray="3 3"/>
<line x1="323.3" y1="318.1" x2="357.3" y2="302.2" stroke="#b8b8be" stroke-width="0.8" stroke-dasharray="3 3"/>
<line x1="323.3" y1="270.8" x2="357.3" y2="254.9" stroke="#b8b8be" stroke-width="0.8" stroke-dasharray="3 3"/>
<line x1="357.3" y1="302.2" x2="357.3" y2="254.9" stroke="#b8b8be" stroke-width="0.8" stroke-dasharray="3 3"/>
<line x1="270.8" y1="214.4" x2="357.3" y2="254.9" stroke="#b8b8be" stroke-width="0.8" stroke-dasharray="3 3"/>
<line x1="236.9" y1="280.1" x2="270.8" y2="264.2" stroke="#b8b8be" stroke-width="0.8" stroke-dasharray="3 3"/>
<line x1="270.8" y1="296.1" x2="270.8" y2="264.2" stroke="#b8b8be" stroke-width="0.8" stroke-dasharray="3 3"/>
<line x1="323.3" y1="337.4" x2="357.3" y2="353.3" stroke="#b8b8be" stroke-width="0.8" stroke-dasharray="3 3"/>
<line x1="323.3" y1="369.2" x2="357.3" y2="353.3" stroke="#b8b8be" stroke-width="0.8" stroke-dasharray="3 3"/>
<line x1="323.3" y1="320.6" x2="357.3" y2="304.7" stroke="#b8b8be" stroke-width="0.8" stroke-dasharray="3 3"/>
<line x1="357.3" y1="353.3" x2="357.3" y2="304.7" stroke="#b8b8be" stroke-width="0.8" stroke-dasharray="3 3"/>
<line x1="270.8" y1="264.2" x2="357.3" y2="304.7" stroke="#b8b8be" stroke-width="0.8" stroke-dasharray="3 3"/>
<line x1="359.3" y1="356.8" x2="268.8" y2="314.4" stroke="#b8b8be" stroke-width="0.8" stroke-dasharray="3 3"/>
<line x1="234.9" y1="330.3" x2="268.8" y2="314.4" stroke="#b8b8be" stroke-width="0.8" stroke-dasharray="3 3"/>
<line x1="268.8" y1="314.4" x2="268.8" y2="60.0" stroke="#b8b8be" stroke-width="0.8" stroke-dasharray="3 3"/>
<line x1="323.3" y1="136.7" x2="357.3" y2="152.6" stroke="#b8b8be" stroke-width="0.8" stroke-dasharray="3 3"/>
<line x1="270.8" y1="114.6" x2="357.3" y2="155.1" stroke="#b8b8be" stroke-width="0.8" stroke-dasharray="3 3"/>
<line x1="236.9" y1="79.4" x2="323.3" y2="119.9" stroke="#1d1d1f" stroke-width="1.5" stroke-linecap="round"/>
<line x1="236.9" y1="128.0" x2="236.9" y2="79.4" stroke="#1d1d1f" stroke-width="1.5" stroke-linecap="round"/>
<line x1="236.9" y1="128.0" x2="323.3" y2="168.5" stroke="#1d1d1f" stroke-width="1.5" stroke-linecap="round"/>
<line x1="323.3" y1="168.5" x2="323.3" y2="119.9" stroke="#1d1d1f" stroke-width="1.5" stroke-linecap="round"/>
<line x1="236.9" y1="177.9" x2="236.9" y2="130.5" stroke="#1d1d1f" stroke-width="1.5" stroke-linecap="round"/>
<line x1="236.9" y1="177.9" x2="323.3" y2="218.4" stroke="#1d1d1f" stroke-width="1.5" stroke-linecap="round"/>
<line x1="323.3" y1="218.4" x2="323.3" y2="171.0" stroke="#1d1d1f" stroke-width="1.5" stroke-linecap="round"/>
<line x1="236.9" y1="130.5" x2="323.3" y2="171.0" stroke="#1d1d1f" stroke-width="1.5" stroke-linecap="round"/>
<line x1="236.9" y1="227.7" x2="236.9" y2="180.4" stroke="#1d1d1f" stroke-width="1.5" stroke-linecap="round"/>
<line x1="236.9" y1="227.7" x2="323.3" y2="268.2" stroke="#1d1d1f" stroke-width="1.5" stroke-linecap="round"/>
<line x1="323.3" y1="268.2" x2="323.3" y2="220.9" stroke="#1d1d1f" stroke-width="1.5" stroke-linecap="round"/>
<line x1="236.9" y1="180.4" x2="323.3" y2="220.9" stroke="#1d1d1f" stroke-width="1.5" stroke-linecap="round"/>
<line x1="236.9" y1="277.6" x2="236.9" y2="230.3" stroke="#1d1d1f" stroke-width="1.5" stroke-linecap="round"/>
<line x1="236.9" y1="277.6" x2="323.3" y2="318.1" stroke="#1d1d1f" stroke-width="1.5" stroke-linecap="round"/>
<line x1="323.3" y1="318.1" x2="323.3" y2="270.8" stroke="#1d1d1f" stroke-width="1.5" stroke-linecap="round"/>
<line x1="236.9" y1="230.3" x2="323.3" y2="270.8" stroke="#1d1d1f" stroke-width="1.5" stroke-linecap="round"/>
<line x1="236.9" y1="328.7" x2="236.9" y2="280.1" stroke="#1d1d1f" stroke-width="1.5" stroke-linecap="round"/>
<line x1="236.9" y1="328.7" x2="323.3" y2="369.2" stroke="#1d1d1f" stroke-width="1.5" stroke-linecap="round"/>
<line x1="323.3" y1="369.2" x2="323.3" y2="320.6" stroke="#1d1d1f" stroke-width="1.5" stroke-linecap="round"/>
<line x1="236.9" y1="280.1" x2="323.3" y2="320.6" stroke="#1d1d1f" stroke-width="1.5" stroke-linecap="round"/>
<line x1="325.4" y1="118.3" x2="234.9" y2="75.9" stroke="#1d1d1f" stroke-width="1.5" stroke-linecap="round"/>
<line x1="325.4" y1="372.7" x2="325.4" y2="118.3" stroke="#1d1d1f" stroke-width="1.5" stroke-linecap="round"/>
<line x1="234.9" y1="330.3" x2="325.4" y2="372.7" stroke="#1d1d1f" stroke-width="1.5" stroke-linecap="round"/>
<line x1="234.9" y1="330.3" x2="234.9" y2="75.9" stroke="#1d1d1f" stroke-width="1.5" stroke-linecap="round"/>
<line x1="270.8" y1="162.0" x2="270.8" y2="146.4" stroke="#1d1d1f" stroke-width="1.5" stroke-linecap="round"/>
<line x1="236.9" y1="177.9" x2="270.8" y2="162.0" stroke="#1d1d1f" stroke-width="1.5" stroke-linecap="round"/>
<line x1="270.8" y1="112.1" x2="270.8" y2="95.3" stroke="#1d1d1f" stroke-width="1.5" stroke-linecap="round"/>
<line x1="236.9" y1="128.0" x2="270.8" y2="112.1" stroke="#1d1d1f" stroke-width="1.5" stroke-linecap="round"/>
<line x1="270.8" y1="162.0" x2="323.3" y2="186.6" stroke="#1d1d1f" stroke-width="1.5" stroke-linecap="round"/>
<line x1="270.8" y1="211.8" x2="270.8" y2="196.3" stroke="#1d1d1f" stroke-width="1.5" stroke-linecap="round"/>
<line x1="236.9" y1="227.7" x2="270.8" y2="211.8" stroke="#1d1d1f" stroke-width="1.5" stroke-linecap="round"/>
<line x1="270.8" y1="211.8" x2="323.3" y2="236.4" stroke="#1d1d1f" stroke-width="1.5" stroke-linecap="round"/>
<line x1="270.8" y1="261.7" x2="270.8" y2="246.2" stroke="#1d1d1f" stroke-width="1.5" stroke-linecap="round"/>
<line x1="236.9" y1="277.6" x2="270.8" y2="261.7" stroke="#1d1d1f" stroke-width="1.5" stroke-linecap="round"/>
<line x1="270.8" y1="261.7" x2="323.3" y2="286.3" stroke="#1d1d1f" stroke-width="1.5" stroke-linecap="round"/>
<line x1="270.8" y1="312.8" x2="270.8" y2="296.1" stroke="#1d1d1f" stroke-width="1.5" stroke-linecap="round"/>
<line x1="236.9" y1="328.7" x2="270.8" y2="312.8" stroke="#1d1d1f" stroke-width="1.5" stroke-linecap="round"/>
<line x1="270.8" y1="312.8" x2="323.3" y2="337.4" stroke="#1d1d1f" stroke-width="1.5" stroke-linecap="round"/>
<line x1="234.9" y1="75.9" x2="268.8" y2="60.0" stroke="#1d1d1f" stroke-width="1.5" stroke-linecap="round"/>
<line x1="325.4" y1="118.3" x2="359.3" y2="102.4" stroke="#1d1d1f" stroke-width="1.5" stroke-linecap="round"/>
<line x1="359.3" y1="102.4" x2="268.8" y2="60.0" stroke="#1d1d1f" stroke-width="1.5" stroke-linecap="round"/>
<line x1="359.3" y1="356.8" x2="359.3" y2="102.4" stroke="#1d1d1f" stroke-width="1.5" stroke-linecap="round"/>
<line x1="325.4" y1="372.7" x2="359.3" y2="356.8" stroke="#1d1d1f" stroke-width="1.5" stroke-linecap="round"/>
<line x1="270.8" y1="112.1" x2="323.3" y2="136.7" stroke="#1d1d1f" stroke-width="1.5" stroke-linecap="round"/>
<line x1="110.0" y1="60.0" x2="110.0" y2="372.7" stroke="#b8b8be" stroke-width="1"/>
<line x1="105.0" y1="60.0" x2="115.0" y2="60.0" stroke="#b8b8be" stroke-width="1"/>
<line x1="105.0" y1="372.7" x2="115.0" y2="372.7" stroke="#b8b8be" stroke-width="1"/>
<text x="98.0" y="216.35" font-size="16" font-weight="600" fill="#1d1d1f" text-anchor="middle" transform="rotate(-90 98.0 216.35)">1800 mm</text>
<text x="120" y="533" font-size="18" font-weight="700" fill="#1d1d1f">Freestanding bookshelf</text>
<text x="120" y="557" font-size="13.5" fill="#6b6b70">4 shelves · 18 mm plywood · cuts from one 8×4 sheet</text>
</svg>