<svg xmlns="http://www.w3.org/2000/svg" viewBox="0 0 385 531" width="385" height="531" font-family="ui-sans-serif,-apple-system,system-ui,sans-serif">
<rect width="385" height="531" fill="white"/>
<line x1="126.3" y1="67.4" x2="160.3" y2="51.5" stroke="#b8b8be" stroke-width="0.8" stroke-dasharray="3 3"/>
<line x1="160.3" y1="51.5" x2="246.7" y2="92.0" stroke="#b8b8be" stroke-width="0.8" stroke-dasharray="3 3"/>
<line x1="212.7" y1="107.9" x2="246.7" y2="92.0" stroke="#b8b8be" stroke-width="0.8" stroke-dasharray="3 3"/>
<line x1="126.3" y1="118.5" x2="160.3" y2="102.6" stroke="#b8b8be" stroke-width="0.8" stroke-dasharray="3 3"/>
<line x1="160.3" y1="134.4" x2="160.3" y2="102.6" stroke="#b8b8be" stroke-width="0.8" stroke-dasharray="3 3"/>
<line x1="160.3" y1="83.3" x2="160.3" y2="51.5" stroke="#b8b8be" stroke-width="0.8" stroke-dasharray="3 3"/>
<line x1="212.7" y1="174.6" x2="246.7" y2="190.5" stroke="#b8b8be" stroke-width="0.8" stroke-dasharray="3 3"/>
<line x1="212.7" y1="206.4" x2="246.7" y2="190.5" stroke="#b8b8be" stroke-width="0.8" stroke-dasharray="3 3"/>
<line x1="212.7" y1="159.0" x2="246.7" y2="143.1" stroke="#b8b8be" stroke-width="0.8" stroke-dasharray="3 3"/>
<line x1="246.7" y1="190.5" x2="246.7" y2="143.1" stroke="#b8b8be" stroke-width="0.8" stroke-dasharray="3 3"/>
<line x1="246.7" y1="140.6" x2="246.7" y2="92.0" stroke="#b8b8be" stroke-width="0.8" stroke-dasharray="3 3"/>
<line x1="212.7" y1="156.5" x2="246.7" y2="140.6" stroke="#b8b8be" stroke-width="0.8" stroke-dasharray="3 3"/>
<line x1="126.3" y1="168.4" x2="160.3" y2="152.5" stroke="#b8b8be" stroke-width="0.8" stroke-dasharray="3 3"/>
<line x1="160.3" y1="184.3" x2="160.3" y2="152.5" stroke="#b8b8be" stroke-width="0.8" stroke-dasharray="3 3"/>
<line x1="212.7" y1="224.4" x2="246.7" y2="240.3" stroke="#b8b8be" stroke-width="0.8" stroke-dasharray="3 3"/>
<line x1="212.7" y1="256.2" x2="246.7" y2="240.3" stroke="#b8b8be" stroke-width="0.8" stroke-dasharray="3 3"/>
<line x1="212.7" y1="208.9" x2="246.7" y2="193.0" stroke="#b8b8be" stroke-width="0.8" stroke-dasharray="3 3"/>
<line x1="246.7" y1="240.3" x2="246.7" y2="193.0" stroke="#b8b8be" stroke-width="0.8" stroke-dasharray="3 3"/>
<line x1="160.3" y1="152.5" x2="246.7" y2="193.0" stroke="#b8b8be" stroke-width="0.8" stroke-dasharray="3 3"/>
<line x1="126.3" y1="218.3" x2="160.3" y2="202.4" stroke="#b8b8be" stroke-width="0.8" stroke-dasharray="3 3"/>
<line x1="160.3" y1="234.2" x2="160.3" y2="202.4" stroke="#b8b8be" stroke-width="0.8" stroke-dasharray="3 3"/>
<line x1="212.7" y1="274.3" x2="246.7" y2="290.2" stroke="#b8b8be" stroke-width="0.8" stroke-dasharray="3 3"/>
<line x1="212.7" y1="306.1" x2="246.7" y2="290.2" stroke="#b8b8be" stroke-width="0.8" stroke-dasharray="3 3"/>
<line x1="212.7" y1="258.8" x2="246.7" y2="242.9" stroke="#b8b8be" stroke-width="0.8" stroke-dasharray="3 3"/>
<line x1="246.7" y1="290.2" x2="246.7" y2="242.9" stroke="#b8b8be" stroke-width="0.8" stroke-dasharray="3 3"/>
<line x1="160.3" y1="202.4" x2="246.7" y2="242.9" stroke="#b8b8be" stroke-width="0.8" stroke-dasharray="3 3"/>
<line x1="126.3" y1="268.1" x2="160.3" y2="252.2" stroke="#b8b8be" stroke-width="0.8" stroke-dasharray="3 3"/>
<line x1="160.3" y1="284.1" x2="160.3" y2="252.2" stroke="#b8b8be" stroke-width="0.8" stroke-dasharray="3 3"/>
<line x1="212.7" y1="325.4" x2="246.7" y2="341.3" stroke="#b8b8be" stroke-width="0.8" stroke-dasharray="3 3"/>
<line x1="212.7" y1="357.2" x2="246.7" y2="341.3" stroke="#b8b8be" stroke-width="0.8" stroke-dasharray="3 3"/>
<line x1="212.7" y1="308.6" x2="246.7" y2="292.7" stroke="#b8b8be" stroke-width="0.8" stroke-dasharray="3 3"/>
<line x1="246.7" y1="341.3" x2="246.7" y2="292.7" stroke="#b8b8be" stroke-width="0.8" stroke-dasharray="3 3"/>
<line x1="160.3" y1="252.2" x2="246.7" y2="292.7" stroke="#b8b8be" stroke-width="0.8" stroke-dasharray="3 3"/>
<line x1="248.7" y1="344.8" x2="158.2" y2="302.4" stroke="#b8b8be" stroke-width="0.8" stroke-dasharray="3 3"/>
<line x1="124.3" y1="318.3" x2="158.2" y2="302.4" stroke="#b8b8be" stroke-width="0.8" stroke-dasharray="3 3"/>
<line x1="158.2" y1="302.4" x2="158.2" y2="48.0" stroke="#b8b8be" stroke-width="0.8" stroke-dasharray="3 3"/>
<line x1="212.7" y1="124.7" x2="246.7" y2="140.6" stroke="#b8b8be" stroke-width="0.8" stroke-dasharray="3 3"/>
<line x1="160.3" y1="102.6" x2="246.7" y2="143.1" stroke="#b8b8be" stroke-width="0.8" stroke-dasharray="3 3"/>
<line x1="126.3" y1="67.4" x2="212.7" y2="107.9" stroke="#1d1d1f" stroke-width="1.5" stroke-linecap="round"/>
<line x1="126.3" y1="116.0" x2="126.3" y2="67.4" stroke="#1d1d1f" stroke-width="1.5" stroke-linecap="round"/>
<line x1="126.3" y1="116.0" x2="212.7" y2="156.5" stroke="#1d1d1f" stroke-width="1.5" stroke-linecap="round"/>
<line x1="212.7" y1="156.5" x2="212.7" y2="107.9" stroke="#1d1d1f" stroke-width="1.5" stroke-linecap="round"/>
<line x1="126.3" y1="165.9" x2="126.3" y2="118.5" stroke="#1d1d1f" stroke-width="1.5" stroke-linecap="round"/>
<line x1="126.3" y1="165.9" x2="212.7" y2="206.4" stroke="#1d1d1f" stroke-width="1.5" stroke-linecap="round"/>
<line x1="212.7" y1="206.4" x2="212.7" y2="159.0" stroke="#1d1d1f" stroke-width="1.5" stroke-linecap="round"/>
<line x1="126.3" y1="118.5" x2="212.7" y2="159.0" stroke="#1d1d1f" stroke-width="1.5" stroke-linecap="round"/>
<line x1="126.3" y1="215.7" x2="126.3" y2="168.4" stroke="#1d1d1f" stroke-width="1.5" stroke-linecap="round"/>
<line x1="126.3" y1="215.7" x2="212.7" y2="256.2" stroke="#1d1d1f" stroke-width="1.5" stroke-linecap="round"/>
<line x1="212.7" y1="256.2" x2="212.7" y2="208.9" stroke="#1d1d1f" stroke-width="1.5" stroke-linecap="round"/>
<line x1="126.3" y1="168.4" x2="212.7" y2="208.9" stroke="#1d1d1f" stroke-width="1.5" stroke-linecap="round"/>
<line x1="126.3" y1="265.6" x2="126.3" y2="218.3" stroke="#1d1d1f" stroke-width="1.5" stroke-linecap="round"/>
<line x1="126.3" y1="265.6" x2="212.7" y2="306.1" stroke="#1d1d1f" stroke-width="1.5" stroke-linecap="round"/>
<line x1="212.7" y1="306.1" x2="212.7" y2="258.8" stroke="#1d1d1f" stroke-width="1.5" stroke-linecap="round"/>
<line x1="126.3" y1="218.3" x2="212.7" y2="258.8" stroke="#1d1d1f" stroke-width="1.5" stroke-linecap="round"/>
<line x1="126.3" y1="316.7" x2="126.3" y2="268.1" stroke="#1d1d1f" stroke-width="1.5" stroke-linecap="round"/>
<line x1="126.3" y1="316.7" x2="212.7" y2="357.2" stroke="#1d1d1f" stroke-width="1.5" stroke-linecap="round"/>
<line x1="212.7" y1="357.2" x2="212.7" y2="308.6" stroke="#1d1d1f" stroke-width="1.5" stroke-linecap="round"/>
<line x1="126.3" y1="268.1" x2="212.7" y2="308.6" stroke="#1d1d1f" stroke-width="1.5" stroke-linecap="round"/>
<line x1="214.8" y1="106.3" x2="124.3" y2="63.9" stroke="#1d1d1f" stroke-width="1.5" stroke-linecap="round"/>
<line x1="214.8" y1="360.7" x2="214.8" y2="106.3" stroke="#1d1d1f" stroke-width="1.5" stroke-linecap="round"/>
<line x1="124.3" y1="318.3" x2="214.8" y2="360.7" stroke="#1d1d1f" stroke-width="1.5" stroke-linecap="round"/>
<line x1="124.3" y1="318.3" x2="124.3" y2="63.9" stroke="#1d1d1f" stroke-width="1.5" stroke-linecap="round"/>
<line x1="160.3" y1="150.0" x2="160.3" y2="134.4" stroke="#1d1d1f" stroke-width="1.5" stroke-linecap="round"/>
<line x1="126.3" y1="165.9" x2="160.3" y2="150.0" stroke="#1d1d1f" stroke-width="1.5" stroke-linecap="round"/>
<line x1="160.3" y1="100.1" x2="160.3" y2="83.3" stroke="#1d1d1f" stroke-width="1.5" stroke-linecap="round"/>
<line x1="126.3" y1="116.0" x2="160.3" y2="100.1" stroke="#1d1d1f" stroke-width="1.5" stroke-linecap="round"/>
<line x1="160.3" y1="150.0" x2="212.7" y2="174.6" stroke="#1d1d1f" stroke-width="1.5" stroke-linecap="round"/>
<line x1="160.3" y1="199.8" x2="160.3" y2="184.3" stroke="#1d1d1f" stroke-width="1.5" stroke-linecap="round"/>
<line x1="126.3" y1="215.7" x2="160.3" y2="199.8" stroke="#1d1d1f" stroke-width="1.5" stroke-linecap="round"/>
<line x1="160.3" y1="199.8" x2="212.7" y2="224.4" stroke="#1d1d1f" stroke-width="1.5" stroke-linecap="round"/>
<line x1="160.3" y1="249.7" x2="160.3" y2="234.2" stroke="#1d1d1f" stroke-width="1.5" stroke-linecap="round"/>
<line x1="126.3" y1="265.6" x2="160.3" y2="249.7" stroke="#1d1d1f" stroke-width="1.5" stroke-linecap="round"/>
<line x1="160.3" y1="249.7" x2="212.7" y2="274.3" stroke="#1d1d1f" stroke-width="1.5" stroke-linecap="round"/>
<line x1="160.3" y1="300.8" x2="160.3" y2="284.1" stroke="#1d1d1f" stroke-width="1.5" stroke-linecap="round"/>
<line x1="126.3" y1="316.7" x2="160.3" y2="300.8" stroke="#1d1d1f" stroke-width="1.5" stroke-linecap="round"/>
<line x1="160.3" y1="300.8" x2="212.7" y2="325.4" stroke="#1d1d1f" stroke-width="1.5" stroke-linecap="round"/>
<line x1="124.3" y1="63.9" x2="158.2" y2="48.0" stroke="#1d1d1f" stroke-width="1.5" stroke-linecap="round"/>
<line x1="214.8" y1="106.3" x2="248.7" y2="90.4" stroke="#1d1d1f" stroke-width="1.5" stroke-linecap="round"/>
<line x1="248.7" y1="90.4" x2="158.2" y2="48.0" stroke="#1d1d1f" stroke-width="1.5" stroke-linecap="round"/>
<line x1="248.7" y1="344.8" x2="248.7" y2="90.4" stroke="#1d1d1f" stroke-width="1.5" stroke-linecap="round"/>
<line x1="214.8" y1="360.7" x2="248.7" y2="344.8" stroke="#1d1d1f" stroke-width="1.5" stroke-linecap="round"/>
<line x1="160.3" y1="100.1" x2="212.7" y2="124.7" stroke="#1d1d1f" stroke-width="1.5" stroke-linecap="round"/>
<line x1="98.3" y1="48.0" x2="98.3" y2="360.7" stroke="#b8b8be" stroke-width="1"/>
<line x1="94.3" y1="48.0" x2="102.3" y2="48.0" stroke="#b8b8be" stroke-width="1"/>
<line x1="94.3" y1="360.7" x2="102.3" y2="360.7" stroke="#b8b8be" stroke-width="1"/>
<text x="89.3" y="204.35" font-size="15" font-weight="600" fill="#1d1d1f" text-anchor="middle" transform="rotate(-90 89.3 204.35)">1800 mm</text>
<line x1="124.3" y1="318.3" x2="115.81491166385626" y2="336.4108607174766" stroke="#b8b8be" stroke-width="0.8"/>
<line x1="214.8" y1="360.7" x2="206.31491166385626" y2="378.8108607174766" stroke="#b8b8be" stroke-width="0.8"/>
<line x1="118.4" y1="331.0" x2="208.9" y2="373.4" stroke="#b8b8be" stroke-width="1"/>
<line x1="113.8" y1="328.9" x2="122.9" y2="333.1" stroke="#b8b8be" stroke-width="1"/>
<line x1="204.3" y1="371.3" x2="213.4" y2="375.5" stroke="#b8b8be" stroke-width="1"/>
<text x="156.8" y="366.7" font-size="15" font-weight="600" fill="#1d1d1f" text-anchor="middle" dominant-baseline="middle">800 mm</text>
<line x1="214.8" y1="360.7" x2="223.2927827651578" y2="378.8072538200534" stroke="#b8b8be" stroke-width="0.8"/>
<line x1="248.7" y1="344.8" x2="257.1927827651578" y2="362.9072538200534" stroke="#b8b8be" stroke-width="0.8"/>
<line x1="220.7" y1="373.4" x2="254.6" y2="357.5" stroke="#b8b8be" stroke-width="1"/>
<line x1="216.2" y1="375.5" x2="225.3" y2="371.3" stroke="#b8b8be" stroke-width="1"/>
<line x1="250.1" y1="359.6" x2="259.2" y2="355.4" stroke="#b8b8be" stroke-width="1"/>
<text x="244.5" y="379.9" font-size="15" font-weight="600" fill="#1d1d1f" text-anchor="middle" dominant-baseline="middle">300 mm</text>
<text x="192.5" y="473" font-size="17" font-weight="700" fill="#1d1d1f" text-anchor="middle">Freestanding bookshelf</text>
<text x="192.5" y="496" font-size="13" fill="#6b6b70" text-anchor="middle">4 shelves · 18 mm plywood · cuts from one 8×4 sheet</text>
</svg>