<svg xmlns="http://www.w3.org/2000/svg" viewBox="0 0 385 511" width="385" height="511" font-family="ui-sans-serif,-apple-system,system-ui,sans-serif">
<rect width="385" height="511" fill="white"/>
<line x1="134.3" y1="67.4" x2="168.3" y2="51.5" stroke="#b8b8be" stroke-width="0.8" stroke-dasharray="3 3"/>
<line x1="168.3" y1="51.5" x2="254.7" y2="92.0" stroke="#b8b8be" stroke-width="0.8" stroke-dasharray="3 3"/>
<line x1="220.7" y1="107.9" x2="254.7" y2="92.0" stroke="#b8b8be" stroke-width="0.8" stroke-dasharray="3 3"/>
<line x1="134.3" y1="118.5" x2="168.3" y2="102.6" stroke="#b8b8be" stroke-width="0.8" stroke-dasharray="3 3"/>
<line x1="168.3" y1="134.4" x2="168.3" y2="102.6" stroke="#b8b8be" stroke-width="0.8" stroke-dasharray="3 3"/>
<line x1="168.3" y1="83.3" x2="168.3" y2="51.5" stroke="#b8b8be" stroke-width="0.8" stroke-dasharray="3 3"/>
<line x1="220.7" y1="174.6" x2="254.7" y2="190.5" stroke="#b8b8be" stroke-width="0.8" stroke-dasharray="3 3"/>
<line x1="220.7" y1="206.4" x2="254.7" y2="190.5" stroke="#b8b8be" stroke-width="0.8" stroke-dasharray="3 3"/>
<line x1="220.7" y1="159.0" x2="254.7" y2="143.1" stroke="#b8b8be" stroke-width="0.8" stroke-dasharray="3 3"/>
<line x1="254.7" y1="190.5" x2="254.7" y2="143.1" stroke="#b8b8be" stroke-width="0.8" stroke-dasharray="3 3"/>
<line x1="254.7" y1="140.6" x2="254.7" y2="92.0" stroke="#b8b8be" stroke-width="0.8" stroke-dasharray="3 3"/>
<line x1="220.7" y1="156.5" x2="254.7" y2="140.6" stroke="#b8b8be" stroke-width="0.8" stroke-dasharray="3 3"/>
<line x1="134.3" y1="168.4" x2="168.3" y2="152.5" stroke="#b8b8be" stroke-width="0.8" stroke-dasharray="3 3"/>
<line x1="168.3" y1="184.3" x2="168.3" y2="152.5" stroke="#b8b8be" stroke-width="0.8" stroke-dasharray="3 3"/>
<line x1="220.7" y1="224.4" x2="254.7" y2="240.3" stroke="#b8b8be" stroke-width="0.8" stroke-dasharray="3 3"/>
<line x1="220.7" y1="256.2" x2="254.7" y2="240.3" stroke="#b8b8be" stroke-width="0.8" stroke-dasharray="3 3"/>
<line x1="220.7" y1="208.9" x2="254.7" y2="193.0" stroke="#b8b8be" stroke-width="0.8" stroke-dasharray="3 3"/>
<line x1="254.7" y1="240.3" x2="254.7" y2="193.0" stroke="#b8b8be" stroke-width="0.8" stroke-dasharray="3 3"/>
<line x1="168.3" y1="152.5" x2="254.7" y2="193.0" stroke="#b8b8be" stroke-width="0.8" stroke-dasharray="3 3"/>
<line x1="134.3" y1="218.3" x2="168.3" y2="202.4" stroke="#b8b8be" stroke-width="0.8" stroke-dasharray="3 3"/>
<line x1="168.3" y1="234.2" x2="168.3" y2="202.4" stroke="#b8b8be" stroke-width="0.8" stroke-dasharray="3 3"/>
<line x1="220.7" y1="274.3" x2="254.7" y2="290.2" stroke="#b8b8be" stroke-width="0.8" stroke-dasharray="3 3"/>
<line x1="220.7" y1="306.1" x2="254.7" y2="290.2" stroke="#b8b8be" stroke-width="0.8" stroke-dasharray="3 3"/>
<line x1="220.7" y1="258.8" x2="254.7" y2="242.9" stroke="#b8b8be" stroke-width="0.8" stroke-dasharray="3 3"/>
<line x1="254.7" y1="290.2" x2="254.7" y2="242.9" stroke="#b8b8be" stroke-width="0.8" stroke-dasharray="3 3"/>
<line x1="168.3" y1="202.4" x2="254.7" y2="242.9" stroke="#b8b8be" stroke-width="0.8" stroke-dasharray="3 3"/>
<line x1="134.3" y1="268.1" x2="168.3" y2="252.2" stroke="#b8b8be" stroke-width="0.8" stroke-dasharray="3 3"/>
<line x1="168.3" y1="284.1" x2="168.3" y2="252.2" stroke="#b8b8be" stroke-width="0.8" stroke-dasharray="3 3"/>
<line x1="220.7" y1="325.4" x2="254.7" y2="341.3" stroke="#b8b8be" stroke-width="0.8" stroke-dasharray="3 3"/>
<line x1="220.7" y1="357.2" x2="254.7" y2="341.3" stroke="#b8b8be" stroke-width="0.8" stroke-dasharray="3 3"/>
<line x1="220.7" y1="308.6" x2="254.7" y2="292.7" stroke="#b8b8be" stroke-width="0.8" stroke-dasharray="3 3"/>
<line x1="254.7" y1="341.3" x2="254.7" y2="292.7" stroke="#b8b8be" stroke-width="0.8" stroke-dasharray="3 3"/>
<line x1="168.3" y1="252.2" x2="254.7" y2="292.7" stroke="#b8b8be" stroke-width="0.8" stroke-dasharray="3 3"/>
<line x1="256.7" y1="344.8" x2="166.2" y2="302.4" stroke="#b8b8be" stroke-width="0.8" stroke-dasharray="3 3"/>
<line x1="132.3" y1="318.3" x2="166.2" y2="302.4" stroke="#b8b8be" stroke-width="0.8" stroke-dasharray="3 3"/>
<line x1="166.2" y1="302.4" x2="166.2" y2="48.0" stroke="#b8b8be" stroke-width="0.8" stroke-dasharray="3 3"/>
<line x1="220.7" y1="124.7" x2="254.7" y2="140.6" stroke="#b8b8be" stroke-width="0.8" stroke-dasharray="3 3"/>
<line x1="168.3" y1="102.6" x2="254.7" y2="143.1" stroke="#b8b8be" stroke-width="0.8" stroke-dasharray="3 3"/>
<line x1="134.3" y1="67.4" x2="220.7" y2="107.9" stroke="#1d1d1f" stroke-width="1.5" stroke-linecap="round"/>
<line x1="134.3" y1="116.0" x2="134.3" y2="67.4" stroke="#1d1d1f" stroke-width="1.5" stroke-linecap="round"/>
<line x1="134.3" y1="116.0" x2="220.7" y2="156.5" stroke="#1d1d1f" stroke-width="1.5" stroke-linecap="round"/>
<line x1="220.7" y1="156.5" x2="220.7" y2="107.9" stroke="#1d1d1f" stroke-width="1.5" stroke-linecap="round"/>
<line x1="134.3" y1="165.9" x2="134.3" y2="118.5" stroke="#1d1d1f" stroke-width="1.5" stroke-linecap="round"/>
<line x1="134.3" y1="165.9" x2="220.7" y2="206.4" stroke="#1d1d1f" stroke-width="1.5" stroke-linecap="round"/>
<line x1="220.7" y1="206.4" x2="220.7" y2="159.0" stroke="#1d1d1f" stroke-width="1.5" stroke-linecap="round"/>
<line x1="134.3" y1="118.5" x2="220.7" y2="159.0" stroke="#1d1d1f" stroke-width="1.5" stroke-linecap="round"/>
<line x1="134.3" y1="215.7" x2="134.3" y2="168.4" stroke="#1d1d1f" stroke-width="1.5" stroke-linecap="round"/>
<line x1="134.3" y1="215.7" x2="220.7" y2="256.2" stroke="#1d1d1f" stroke-width="1.5" stroke-linecap="round"/>
<line x1="220.7" y1="256.2" x2="220.7" y2="208.9" stroke="#1d1d1f" stroke-width="1.5" stroke-linecap="round"/>
<line x1="134.3" y1="168.4" x2="220.7" y2="208.9" stroke="#1d1d1f" stroke-width="1.5" stroke-linecap="round"/>
<line x1="134.3" y1="265.6" x2="134.3" y2="218.3" stroke="#1d1d1f" stroke-width="1.5" stroke-linecap="round"/>
<line x1="134.3" y1="265.6" x2="220.7" y2="306.1" stroke="#1d1d1f" stroke-width="1.5" stroke-linecap="round"/>
<line x1="220.7" y1="306.1" x2="220.7" y2="258.8" stroke="#1d1d1f" stroke-width="1.5" stroke-linecap="round"/>
<line x1="134.3" y1="218.3" x2="220.7" y2="258.8" stroke="#1d1d1f" stroke-width="1.5" stroke-linecap="round"/>
<line x1="134.3" y1="316.7" x2="134.3" y2="268.1" stroke="#1d1d1f" stroke-width="1.5" stroke-linecap="round"/>
<line x1="134.3" y1="316.7" x2="220.7" y2="357.2" stroke="#1d1d1f" stroke-width="1.5" stroke-linecap="round"/>
<line x1="220.7" y1="357.2" x2="220.7" y2="308.6" stroke="#1d1d1f" stroke-width="1.5" stroke-linecap="round"/>
<line x1="134.3" y1="268.1" x2="220.7" y2="308.6" stroke="#1d1d1f" stroke-width="1.5" stroke-linecap="round"/>
<line x1="222.8" y1="106.3" x2="132.3" y2="63.9" stroke="#1d1d1f" stroke-width="1.5" stroke-linecap="round"/>
<line x1="222.8" y1="360.7" x2="222.8" y2="106.3" stroke="#1d1d1f" stroke-width="1.5" stroke-linecap="round"/>
<line x1="132.3" y1="318.3" x2="222.8" y2="360.7" stroke="#1d1d1f" stroke-width="1.5" stroke-linecap="round"/>
<line x1="132.3" y1="318.3" x2="132.3" y2="63.9" stroke="#1d1d1f" stroke-width="1.5" stroke-linecap="round"/>
<line x1="168.3" y1="150.0" x2="168.3" y2="134.4" stroke="#1d1d1f" stroke-width="1.5" stroke-linecap="round"/>
<line x1="134.3" y1="165.9" x2="168.3" y2="150.0" stroke="#1d1d1f" stroke-width="1.5" stroke-linecap="round"/>
<line x1="168.3" y1="100.1" x2="168.3" y2="83.3" stroke="#1d1d1f" stroke-width="1.5" stroke-linecap="round"/>
<line x1="134.3" y1="116.0" x2="168.3" y2="100.1" stroke="#1d1d1f" stroke-width="1.5" stroke-linecap="round"/>
<line x1="168.3" y1="150.0" x2="220.7" y2="174.6" stroke="#1d1d1f" stroke-width="1.5" stroke-linecap="round"/>
<line x1="168.3" y1="199.8" x2="168.3" y2="184.3" stroke="#1d1d1f" stroke-width="1.5" stroke-linecap="round"/>
<line x1="134.3" y1="215.7" x2="168.3" y2="199.8" stroke="#1d1d1f" stroke-width="1.5" stroke-linecap="round"/>
<line x1="168.3" y1="199.8" x2="220.7" y2="224.4" stroke="#1d1d1f" stroke-width="1.5" stroke-linecap="round"/>
<line x1="168.3" y1="249.7" x2="168.3" y2="234.2" stroke="#1d1d1f" stroke-width="1.5" stroke-linecap="round"/>
<line x1="134.3" y1="265.6" x2="168.3" y2="249.7" stroke="#1d1d1f" stroke-width="1.5" stroke-linecap="round"/>
<line x1="168.3" y1="249.7" x2="220.7" y2="274.3" stroke="#1d1d1f" stroke-width="1.5" stroke-linecap="round"/>
<line x1="168.3" y1="300.8" x2="168.3" y2="284.1" stroke="#1d1d1f" stroke-width="1.5" stroke-linecap="round"/>
<line x1="134.3" y1="316.7" x2="168.3" y2="300.8" stroke="#1d1d1f" stroke-width="1.5" stroke-linecap="round"/>
<line x1="168.3" y1="300.8" x2="220.7" y2="325.4" stroke="#1d1d1f" stroke-width="1.5" stroke-linecap="round"/>
<line x1="132.3" y1="63.9" x2="166.2" y2="48.0" stroke="#1d1d1f" stroke-width="1.5" stroke-linecap="round"/>
<line x1="222.8" y1="106.3" x2="256.7" y2="90.4" stroke="#1d1d1f" stroke-width="1.5" stroke-linecap="round"/>
<line x1="256.7" y1="90.4" x2="166.2" y2="48.0" stroke="#1d1d1f" stroke-width="1.5" stroke-linecap="round"/>
<line x1="256.7" y1="344.8" x2="256.7" y2="90.4" stroke="#1d1d1f" stroke-width="1.5" stroke-linecap="round"/>
<line x1="222.8" y1="360.7" x2="256.7" y2="344.8" stroke="#1d1d1f" stroke-width="1.5" stroke-linecap="round"/>
<line x1="168.3" y1="100.1" x2="220.7" y2="124.7" stroke="#1d1d1f" stroke-width="1.5" stroke-linecap="round"/>
<line x1="106.30000000000001" y1="48.0" x2="106.30000000000001" y2="360.7" stroke="#b8b8be" stroke-width="1"/>
<line x1="102.30000000000001" y1="48.0" x2="110.30000000000001" y2="48.0" stroke="#b8b8be" stroke-width="1"/>
<line x1="102.30000000000001" y1="360.7" x2="110.30000000000001" y2="360.7" stroke="#b8b8be" stroke-width="1"/>
<text x="97.30000000000001" y="204.35" font-size="15" font-weight="600" fill="#1d1d1f" text-anchor="middle" transform="rotate(-90 97.30000000000001 204.35)">1800 mm</text>
<line x1="132.3" y1="336.3" x2="222.8" y2="378.7" stroke="#b8b8be" stroke-width="1"/>
<line x1="129.3" y1="333.3" x2="135.3" y2="339.3" stroke="#b8b8be" stroke-width="1"/>
<line x1="219.8" y1="375.7" x2="225.8" y2="381.7" stroke="#b8b8be" stroke-width="1"/>
<text x="169.55" y="373.5" font-size="15" font-weight="600" fill="#1d1d1f" text-anchor="end">800 mm</text>
<line x1="222.8" y1="378.7" x2="256.7" y2="362.8" stroke="#b8b8be" stroke-width="1"/>
<line x1="219.8" y1="375.7" x2="225.8" y2="381.7" stroke="#b8b8be" stroke-width="1"/>
<line x1="253.7" y1="359.8" x2="259.7" y2="365.8" stroke="#b8b8be" stroke-width="1"/>
<text x="247.75" y="386.75" font-size="15" font-weight="600" fill="#1d1d1f" text-anchor="start">300 mm</text>
<text x="192.5" y="453" font-size="17" font-weight="700" fill="#1d1d1f" text-anchor="middle">Freestanding bookshelf</text>
<text x="192.5" y="476" font-size="13" fill="#6b6b70" text-anchor="middle">4 shelves · 18 mm plywood · cuts from one 8×4 sheet</text>
</svg>