<svg xmlns="http://www.w3.org/2000/svg" viewBox="0 0 385 540" width="385" height="540" font-family="ui-sans-serif,-apple-system,system-ui,sans-serif">
<rect width="385" height="540" fill="white"/>
<line x1="168.5" y1="59.4" x2="202.5" y2="43.5" stroke="#9a9aa0" stroke-width="0.8" stroke-dasharray="3 3" stroke-linecap="round"/>
<line x1="202.5" y1="43.5" x2="288.9" y2="84.0" stroke="#9a9aa0" stroke-width="0.8" stroke-dasharray="3 3" stroke-linecap="round"/>
<line x1="255.0" y1="99.9" x2="288.9" y2="84.0" stroke="#9a9aa0" stroke-width="0.8" stroke-dasharray="3 3" stroke-linecap="round"/>
<line x1="168.5" y1="110.5" x2="202.5" y2="94.6" stroke="#9a9aa0" stroke-width="0.8" stroke-dasharray="3 3" stroke-linecap="round"/>
<line x1="202.5" y1="126.4" x2="202.5" y2="94.6" stroke="#9a9aa0" stroke-width="0.8" stroke-dasharray="3 3" stroke-linecap="round"/>
<line x1="202.5" y1="75.3" x2="202.5" y2="43.5" stroke="#9a9aa0" stroke-width="0.8" stroke-dasharray="3 3" stroke-linecap="round"/>
<line x1="255.0" y1="166.6" x2="288.9" y2="182.5" stroke="#9a9aa0" stroke-width="0.8" stroke-dasharray="3 3" stroke-linecap="round"/>
<line x1="255.0" y1="198.4" x2="288.9" y2="182.5" stroke="#9a9aa0" stroke-width="0.8" stroke-dasharray="3 3" stroke-linecap="round"/>
<line x1="255.0" y1="151.0" x2="288.9" y2="135.1" stroke="#9a9aa0" stroke-width="0.8" stroke-dasharray="3 3" stroke-linecap="round"/>
<line x1="288.9" y1="182.5" x2="288.9" y2="135.1" stroke="#9a9aa0" stroke-width="0.8" stroke-dasharray="3 3" stroke-linecap="round"/>
<line x1="288.9" y1="132.6" x2="288.9" y2="84.0" stroke="#9a9aa0" stroke-width="0.8" stroke-dasharray="3 3" stroke-linecap="round"/>
<line x1="255.0" y1="148.5" x2="288.9" y2="132.6" stroke="#9a9aa0" stroke-width="0.8" stroke-dasharray="3 3" stroke-linecap="round"/>
<line x1="168.5" y1="160.4" x2="202.5" y2="144.5" stroke="#9a9aa0" stroke-width="0.8" stroke-dasharray="3 3" stroke-linecap="round"/>
<line x1="202.5" y1="176.3" x2="202.5" y2="144.5" stroke="#9a9aa0" stroke-width="0.8" stroke-dasharray="3 3" stroke-linecap="round"/>
<line x1="255.0" y1="216.4" x2="288.9" y2="232.3" stroke="#9a9aa0" stroke-width="0.8" stroke-dasharray="3 3" stroke-linecap="round"/>
<line x1="255.0" y1="248.2" x2="288.9" y2="232.3" stroke="#9a9aa0" stroke-width="0.8" stroke-dasharray="3 3" stroke-linecap="round"/>
<line x1="255.0" y1="200.9" x2="288.9" y2="185.0" stroke="#9a9aa0" stroke-width="0.8" stroke-dasharray="3 3" stroke-linecap="round"/>
<line x1="288.9" y1="232.3" x2="288.9" y2="185.0" stroke="#9a9aa0" stroke-width="0.8" stroke-dasharray="3 3" stroke-linecap="round"/>
<line x1="202.5" y1="144.5" x2="288.9" y2="185.0" stroke="#9a9aa0" stroke-width="0.8" stroke-dasharray="3 3" stroke-linecap="round"/>
<line x1="168.5" y1="210.3" x2="202.5" y2="194.4" stroke="#9a9aa0" stroke-width="0.8" stroke-dasharray="3 3" stroke-linecap="round"/>
<line x1="202.5" y1="226.2" x2="202.5" y2="194.4" stroke="#9a9aa0" stroke-width="0.8" stroke-dasharray="3 3" stroke-linecap="round"/>
<line x1="255.0" y1="266.3" x2="288.9" y2="282.2" stroke="#9a9aa0" stroke-width="0.8" stroke-dasharray="3 3" stroke-linecap="round"/>
<line x1="255.0" y1="298.1" x2="288.9" y2="282.2" stroke="#9a9aa0" stroke-width="0.8" stroke-dasharray="3 3" stroke-linecap="round"/>
<line x1="255.0" y1="250.8" x2="288.9" y2="234.9" stroke="#9a9aa0" stroke-width="0.8" stroke-dasharray="3 3" stroke-linecap="round"/>
<line x1="288.9" y1="282.2" x2="288.9" y2="234.9" stroke="#9a9aa0" stroke-width="0.8" stroke-dasharray="3 3" stroke-linecap="round"/>
<line x1="202.5" y1="194.4" x2="288.9" y2="234.9" stroke="#9a9aa0" stroke-width="0.8" stroke-dasharray="3 3" stroke-linecap="round"/>
<line x1="168.5" y1="260.1" x2="202.5" y2="244.2" stroke="#9a9aa0" stroke-width="0.8" stroke-dasharray="3 3" stroke-linecap="round"/>
<line x1="202.5" y1="276.1" x2="202.5" y2="244.2" stroke="#9a9aa0" stroke-width="0.8" stroke-dasharray="3 3" stroke-linecap="round"/>
<line x1="255.0" y1="317.4" x2="288.9" y2="333.3" stroke="#9a9aa0" stroke-width="0.8" stroke-dasharray="3 3" stroke-linecap="round"/>
<line x1="255.0" y1="349.2" x2="288.9" y2="333.3" stroke="#9a9aa0" stroke-width="0.8" stroke-dasharray="3 3" stroke-linecap="round"/>
<line x1="255.0" y1="300.6" x2="288.9" y2="284.7" stroke="#9a9aa0" stroke-width="0.8" stroke-dasharray="3 3" stroke-linecap="round"/>
<line x1="288.9" y1="333.3" x2="288.9" y2="284.7" stroke="#9a9aa0" stroke-width="0.8" stroke-dasharray="3 3" stroke-linecap="round"/>
<line x1="202.5" y1="244.2" x2="288.9" y2="284.7" stroke="#9a9aa0" stroke-width="0.8" stroke-dasharray="3 3" stroke-linecap="round"/>
<line x1="290.9" y1="336.8" x2="200.4" y2="294.4" stroke="#9a9aa0" stroke-width="0.8" stroke-dasharray="3 3" stroke-linecap="round"/>
<line x1="166.5" y1="310.3" x2="200.4" y2="294.4" stroke="#9a9aa0" stroke-width="0.8" stroke-dasharray="3 3" stroke-linecap="round"/>
<line x1="200.4" y1="294.4" x2="200.4" y2="40.0" stroke="#9a9aa0" stroke-width="0.8" stroke-dasharray="3 3" stroke-linecap="round"/>
<line x1="255.0" y1="116.7" x2="288.9" y2="132.6" stroke="#9a9aa0" stroke-width="0.8" stroke-dasharray="3 3" stroke-linecap="round"/>
<line x1="202.5" y1="94.6" x2="288.9" y2="135.1" stroke="#9a9aa0" stroke-width="0.8" stroke-dasharray="3 3" stroke-linecap="round"/>
<line x1="168.5" y1="59.4" x2="255.0" y2="99.9" stroke="#1d1d1f" stroke-width="1.5" stroke-linecap="round"/>
<line x1="168.5" y1="108.0" x2="168.5" y2="59.4" stroke="#1d1d1f" stroke-width="1.5" stroke-linecap="round"/>
<line x1="168.5" y1="108.0" x2="255.0" y2="148.5" stroke="#1d1d1f" stroke-width="1.5" stroke-linecap="round"/>
<line x1="255.0" y1="148.5" x2="255.0" y2="99.9" stroke="#1d1d1f" stroke-width="1.5" stroke-linecap="round"/>
<line x1="168.5" y1="157.9" x2="168.5" y2="110.5" stroke="#1d1d1f" stroke-width="1.5" stroke-linecap="round"/>
<line x1="168.5" y1="157.9" x2="255.0" y2="198.4" stroke="#1d1d1f" stroke-width="1.5" stroke-linecap="round"/>
<line x1="255.0" y1="198.4" x2="255.0" y2="151.0" stroke="#1d1d1f" stroke-width="1.5" stroke-linecap="round"/>
<line x1="168.5" y1="110.5" x2="255.0" y2="151.0" stroke="#1d1d1f" stroke-width="1.5" stroke-linecap="round"/>
<line x1="168.5" y1="207.7" x2="168.5" y2="160.4" stroke="#1d1d1f" stroke-width="1.5" stroke-linecap="round"/>
<line x1="168.5" y1="207.7" x2="255.0" y2="248.2" stroke="#1d1d1f" stroke-width="1.5" stroke-linecap="round"/>
<line x1="255.0" y1="248.2" x2="255.0" y2="200.9" stroke="#1d1d1f" stroke-width="1.5" stroke-linecap="round"/>
<line x1="168.5" y1="160.4" x2="255.0" y2="200.9" stroke="#1d1d1f" stroke-width="1.5" stroke-linecap="round"/>
<line x1="168.5" y1="257.6" x2="168.5" y2="210.3" stroke="#1d1d1f" stroke-width="1.5" stroke-linecap="round"/>
<line x1="168.5" y1="257.6" x2="255.0" y2="298.1" stroke="#1d1d1f" stroke-width="1.5" stroke-linecap="round"/>
<line x1="255.0" y1="298.1" x2="255.0" y2="250.8" stroke="#1d1d1f" stroke-width="1.5" stroke-linecap="round"/>
<line x1="168.5" y1="210.3" x2="255.0" y2="250.8" stroke="#1d1d1f" stroke-width="1.5" stroke-linecap="round"/>
<line x1="168.5" y1="308.7" x2="168.5" y2="260.1" stroke="#1d1d1f" stroke-width="1.5" stroke-linecap="round"/>
<line x1="168.5" y1="308.7" x2="255.0" y2="349.2" stroke="#1d1d1f" stroke-width="1.5" stroke-linecap="round"/>
<line x1="255.0" y1="349.2" x2="255.0" y2="300.6" stroke="#1d1d1f" stroke-width="1.5" stroke-linecap="round"/>
<line x1="168.5" y1="260.1" x2="255.0" y2="300.6" stroke="#1d1d1f" stroke-width="1.5" stroke-linecap="round"/>
<line x1="257.0" y1="98.3" x2="166.5" y2="55.9" stroke="#1d1d1f" stroke-width="1.5" stroke-linecap="round"/>
<line x1="257.0" y1="352.7" x2="257.0" y2="98.3" stroke="#1d1d1f" stroke-width="1.5" stroke-linecap="round"/>
<line x1="166.5" y1="310.3" x2="257.0" y2="352.7" stroke="#1d1d1f" stroke-width="1.5" stroke-linecap="round"/>
<line x1="166.5" y1="310.3" x2="166.5" y2="55.9" stroke="#1d1d1f" stroke-width="1.5" stroke-linecap="round"/>
<line x1="202.5" y1="142.0" x2="202.5" y2="126.4" stroke="#1d1d1f" stroke-width="1.5" stroke-linecap="round"/>
<line x1="168.5" y1="157.9" x2="202.5" y2="142.0" stroke="#1d1d1f" stroke-width="1.5" stroke-linecap="round"/>
<line x1="202.5" y1="92.1" x2="202.5" y2="75.3" stroke="#1d1d1f" stroke-width="1.5" stroke-linecap="round"/>
<line x1="168.5" y1="108.0" x2="202.5" y2="92.1" stroke="#1d1d1f" stroke-width="1.5" stroke-linecap="round"/>
<line x1="202.5" y1="142.0" x2="255.0" y2="166.6" stroke="#1d1d1f" stroke-width="1.5" stroke-linecap="round"/>
<line x1="202.5" y1="191.8" x2="202.5" y2="176.3" stroke="#1d1d1f" stroke-width="1.5" stroke-linecap="round"/>
<line x1="168.5" y1="207.7" x2="202.5" y2="191.8" stroke="#1d1d1f" stroke-width="1.5" stroke-linecap="round"/>
<line x1="202.5" y1="191.8" x2="255.0" y2="216.4" stroke="#1d1d1f" stroke-width="1.5" stroke-linecap="round"/>
<line x1="202.5" y1="241.7" x2="202.5" y2="226.2" stroke="#1d1d1f" stroke-width="1.5" stroke-linecap="round"/>
<line x1="168.5" y1="257.6" x2="202.5" y2="241.7" stroke="#1d1d1f" stroke-width="1.5" stroke-linecap="round"/>
<line x1="202.5" y1="241.7" x2="255.0" y2="266.3" stroke="#1d1d1f" stroke-width="1.5" stroke-linecap="round"/>
<line x1="202.5" y1="292.8" x2="202.5" y2="276.1" stroke="#1d1d1f" stroke-width="1.5" stroke-linecap="round"/>
<line x1="168.5" y1="308.7" x2="202.5" y2="292.8" stroke="#1d1d1f" stroke-width="1.5" stroke-linecap="round"/>
<line x1="202.5" y1="292.8" x2="255.0" y2="317.4" stroke="#1d1d1f" stroke-width="1.5" stroke-linecap="round"/>
<line x1="166.5" y1="55.9" x2="200.4" y2="40.0" stroke="#1d1d1f" stroke-width="1.5" stroke-linecap="round"/>
<line x1="257.0" y1="98.3" x2="290.9" y2="82.4" stroke="#1d1d1f" stroke-width="1.5" stroke-linecap="round"/>
<line x1="290.9" y1="82.4" x2="200.4" y2="40.0" stroke="#1d1d1f" stroke-width="1.5" stroke-linecap="round"/>
<line x1="290.9" y1="336.8" x2="290.9" y2="82.4" stroke="#1d1d1f" stroke-width="1.5" stroke-linecap="round"/>
<line x1="257.0" y1="352.7" x2="290.9" y2="336.8" stroke="#1d1d1f" stroke-width="1.5" stroke-linecap="round"/>
<line x1="202.5" y1="92.1" x2="255.0" y2="116.7" stroke="#1d1d1f" stroke-width="1.5" stroke-linecap="round"/>
<line x1="166.5" y1="310.3" x2="94.1" y2="310.3" stroke="#9a9aa0" stroke-width="0.9" stroke-dasharray="1 3" stroke-linecap="round"/>
<line x1="166.5" y1="55.9" x2="94.1" y2="55.9" stroke="#9a9aa0" stroke-width="0.9" stroke-dasharray="1 3" stroke-linecap="round"/>
<line x1="166.5" y1="310.3" x2="166.5" y2="361.2" stroke="#9a9aa0" stroke-width="0.9" stroke-dasharray="1 3" stroke-linecap="round"/>
<line x1="257.0" y1="352.7" x2="257.0" y2="403.6" stroke="#9a9aa0" stroke-width="0.9" stroke-dasharray="1 3" stroke-linecap="round"/>
<line x1="257.0" y1="352.7" x2="257.0" y2="403.6" stroke="#9a9aa0" stroke-width="0.9" stroke-dasharray="1 3" stroke-linecap="round"/>
<line x1="290.9" y1="336.8" x2="290.9" y2="387.7" stroke="#9a9aa0" stroke-width="0.9" stroke-dasharray="1 3" stroke-linecap="round"/>
<line x1="94.1" y1="310.3" x2="94.1" y2="55.9" stroke="#9a9aa0" stroke-width="1.1" stroke-dasharray="1 3" stroke-linecap="round"/>
<line x1="166.5" y1="361.2" x2="257.0" y2="403.6" stroke="#9a9aa0" stroke-width="1.1" stroke-dasharray="1 3" stroke-linecap="round"/>
<line x1="257.0" y1="403.6" x2="290.9" y2="387.7" stroke="#9a9aa0" stroke-width="1.1" stroke-dasharray="1 3" stroke-linecap="round"/>
<text x="82.1" y="183.1" font-size="15" font-weight="600" fill="#1d1d1f" text-anchor="middle" dominant-baseline="middle" transform="rotate(-90 82.1 183.1)">1800 mm</text>
<text x="197.7" y="398.4" font-size="15" font-weight="600" fill="#1d1d1f" text-anchor="middle" dominant-baseline="middle">800 mm</text>
<text x="288.0" y="411.7" font-size="15" font-weight="600" fill="#1d1d1f" text-anchor="middle" dominant-baseline="middle">300 mm</text>
<text x="192.5" y="490" font-size="17" font-weight="700" fill="#1d1d1f" text-anchor="middle">Freestanding bookshelf</text>
<text x="192.5" y="512" font-size="13" fill="#6b6b70" text-anchor="middle">4 shelves · 18 mm plywood · cuts from one 8×4 sheet</text>
</svg>